{
.appVersion = "1357";
DisplayStrings = (
"a/Placeholder a/space b/Placeholder b/space c/Placeholder c/space d/Placeholder d/space e/Placeholder e/space f/Placeholder f/space g/Placeholder g/space h/Placeholder h/space i/Placeholder i/space jjj/space k/Placeholder k/space l/Placeholder l/space m/Placeholder m/space n/Placeholder n/space o/Placeholder o/space p/Placeholder p/space q/Placeholder q/space r/Placeholder r/space s/Placeholder s/space t/Placeholder t/space u/Placeholder u/space v/Placeholder v/space w/Placeholder w/space x/Placeholder x/space y/Placeholder y/space z/Placeholder z\012nn/Placeholder no/Placeholder oo\012abcdefghijklmnopqrstuv\012rwxyz/space afgano\012fear/space fall/space kilo/space long/space ovoide/space want/space wind/space oxo/space zapato\012Twombli/space Tgmaiwan/space Taiwan/space Tomato/space Temperture/space Tiro/space Twardock/space Walking/space Wonder/space Wc/space Wd/space/space Wrcnder/space/space You/space Family/space Fear/space Furor/space Vocal/space Viajar/space Zusam/space Pearl/space Point/space Pain/space Ayuda/space \012Kilo/space Londres/space Leon/space Lio/space Month\012abcdefghijklmnopqrstuvwxyz",
abcdefghijklmnopqrstuvwxyz,
"/f_f/f_f_i/f_f_l/fi/fl/f_f.ss01/f_f_i.ss01/f_f_l.ss01/fi.ss01/fl.ss01",

glyphs = (
{
glyphname = .notdef;
lastChange = "2021-11-11 14:06:44 +0000";
layers = (
{
background = {
paths = (
{
closed = 1;
nodes = (
"469 0 LINE",
"478 8 LINE",
"478 621 LINE",
"469 630 LINE",
"48 630 LINE",
"40 620 LINE",
"40 9 LINE",
"48 0 LINE"
);
},
{
closed = 1;
nodes = (
"144 150 LINE",
"234 316 LINE",
"144 479 LINE",
"163 514 LINE",
"253 350 LINE",
"344 514 LINE",
"363 479 LINE",
"273 314 LINE",
"363 150 LINE",
"344 116 LINE",
"253 279 LINE",
"163 116 LINE"
);
},
{
closed = 1;
nodes = (
"57 16 LINE",
"57 613 LINE",
"461 613 LINE",
"461 16 LINE"
);
},
{
closed = 1;
nodes = (
"92 49 LINE",
"427 49 LINE",
"427 577 LINE",
"92 577 LINE"
);
}
);
};
layerId = "2ADFC918-CAA7-4AF7-825A-5AAC412EF250";
paths = (
{
closed = 1;
nodes = (
"469 20 LINE",
"478 28 LINE",
"478 641 LINE",
"469 650 LINE",
"48 650 LINE",
"40 640 LINE",
"40 29 LINE",
"48 20 LINE"
);
},
{
closed = 1;
nodes = (
"144 170 LINE",
"234 336 LINE",
"144 499 LINE",
"163 534 LINE",
"253 370 LINE",
"344 534 LINE",
"363 499 LINE",
"273 334 LINE",
"363 170 LINE",
"344 136 LINE",
"253 299 LINE",
"163 136 LINE"
);
},
{
closed = 1;
nodes = (
"57 633 LINE",
"461 633 LINE",
"461 36 LINE",
"57 36 LINE"
);
},
{
closed = 1;
nodes = (
"427 69 LINE",
"427 597 LINE",
"92 597 LINE",
"92 69 LINE"
);
}
);
width = 518;
}
);
note = .notdef;
},
{
glyphname = A;
lastChange = "2021-11-11 14:10:08 +0000";
layers = (
{
anchors = (
{
name = bottom;
position = "{619, 0}";
},
{
name = ogonek;
position = "{1020, -10}";
},
{
name = top;
position = "{681, 705}";
}
);
background = {
anchors = (
{
name = bottom;
position = "{618, 0}";
},
{
name = ogonek;
position = "{941, -54}";
},
{
name = top;
position = "{687, 752}";
}
);
paths = (
{
closed = 1;
nodes = (
"161 -90 OFFCURVE",
"169 -90 OFFCURVE",
"177 -90 CURVE SMOOTH",
"386 -90 OFFCURVE",
"473 135 OFFCURVE",
"550 294 CURVE",
"615 293 OFFCURVE",
"681 289 OFFCURVE",
"746 289 CURVE",
"767 207 OFFCURVE",
"831 -54 OFFCURVE",
"941 -54 CURVE SMOOTH",
"958 -54 OFFCURVE",
"968 -38 OFFCURVE",
"970 -26 CURVE SMOOTH",
"972 -12 OFFCURVE",
"964 4 OFFCURVE",
"942 0 CURVE",
"879 -22 OFFCURVE",
"813 232 OFFCURVE",
"798 288 CURVE",
"818 290 OFFCURVE",
"825 300 OFFCURVE",
"825 310 CURVE SMOOTH",
"825 323 OFFCURVE",
"813 337 OFFCURVE",
"799 337 CURVE SMOOTH",
"795 337 OFFCURVE",
"791 336 OFFCURVE",
"787 336 CURVE",
"761 443 OFFCURVE",
"740 550 OFFCURVE",
"719 658 CURVE SMOOTH",
"714 683 OFFCURVE",
"711 706 OFFCURVE",
"688 706 CURVE SMOOTH",
"670 706 OFFCURVE",
"662 693 OFFCURVE",
"656 676 CURVE SMOOTH",
"627 586 OFFCURVE",
"557 426 OFFCURVE",
"516 340 CURVE",
"493 335 OFFCURVE",
"449 319 OFFCURVE",
"442 295 CURVE SMOOTH",
"441 292 OFFCURVE",
"441 289 OFFCURVE",
"441 287 CURVE SMOOTH",
"441 273 OFFCURVE",
"451 266 OFFCURVE",
"463 266 CURVE SMOOTH",
"472 266 OFFCURVE",
"482 270 OFFCURVE",
"488 280 CURVE",
"428 149 OFFCURVE",
"343 -41 OFFCURVE",
"177 -41 CURVE SMOOTH",
"170 -41 OFFCURVE",
"164 -41 OFFCURVE",
"157 -40 CURVE SMOOTH",
"137 -38 OFFCURVE",
"116 -29 OFFCURVE",
"99 -18 CURVE SMOOTH",
"51 14 OFFCURVE",
"31 65 OFFCURVE",
"31 121 CURVE SMOOTH",
"31 223 OFFCURVE",
"99 315 OFFCURVE",
"206 315 CURVE SMOOTH",
"228 315 OFFCURVE",
"253 310 OFFCURVE",
"272 299 CURVE SMOOTH",
"305 281 OFFCURVE",
"319 248 OFFCURVE",
"319 215 CURVE SMOOTH",
"319 169 OFFCURVE",
"291 124 OFFCURVE",
"247 124 CURVE SMOOTH",
"222 124 OFFCURVE",
"219 133 OFFCURVE",
"199 138 CURVE SMOOTH",
"196 139 OFFCURVE",
"192 139 OFFCURVE",
"190 139 CURVE SMOOTH",
"175 139 OFFCURVE",
"167 128 OFFCURVE",
"167 116 CURVE SMOOTH",
"167 108 OFFCURVE",
"170 99 OFFCURVE",
"178 94 CURVE SMOOTH",
"187 87 OFFCURVE",
"219 79 OFFCURVE",
"229 78 CURVE SMOOTH",
"236 77 OFFCURVE",
"243 76 OFFCURVE",
"249 76 CURVE SMOOTH",
"326 76 OFFCURVE",
"368 143 OFFCURVE",
"368 211 CURVE SMOOTH",
"368 263 OFFCURVE",
"344 316 OFFCURVE",
"294 343 CURVE SMOOTH",
"268 357 OFFCURVE",
"237 365 OFFCURVE",
"207 365 CURVE SMOOTH",
"65 365 OFFCURVE",
"-19 240 OFFCURVE",
"-19 121 CURVE SMOOTH",
"-19 50 OFFCURVE",
"11 -19 OFFCURVE",
"75 -61 CURVE SMOOTH",
"97 -76 OFFCURVE",
"124 -87 OFFCURVE",
"152 -89 CURVE SMOOTH"
);
},
{
closed = 1;
nodes = (
"490 285 OFFCURVE",
"490 286 OFFCURVE",
"492 288 CURVE",
"491 286 OFFCURVE",
"490 285 OFFCURVE",
"490 283 CURVE"
);
},
{
closed = 1;
nodes = (
"681 339 OFFCURVE",
"628 344 OFFCURVE",
"574 345 CURVE",
"611 425 OFFCURVE",
"652 511 OFFCURVE",
"682 595 CURVE",
"701 503 OFFCURVE",
"716 420 OFFCURVE",
"735 338 CURVE"
);
}
);
};
layerId = "2ADFC918-CAA7-4AF7-825A-5AAC412EF250";
paths = (
{
closed = 1;
nodes = (
"386 -70 OFFCURVE",
"473 155 OFFCURVE",
"550 314 CURVE",
"615 313 OFFCURVE",
"681 309 OFFCURVE",
"746 309 CURVE",
"767 227 OFFCURVE",
"831 -34 OFFCURVE",
"941 -34 CURVE SMOOTH",
"960 -34 OFFCURVE",
"970 -14 OFFCURVE",
"970 -2 CURVE SMOOTH",
"970 11 OFFCURVE",
"962 24 OFFCURVE",
"942 20 CURVE",
"879 -2 OFFCURVE",
"813 252 OFFCURVE",
"798 308 CURVE",
"818 310 OFFCURVE",
"825 320 OFFCURVE",
"825 330 CURVE SMOOTH",
"825 343 OFFCURVE",
"813 357 OFFCURVE",
"799 357 CURVE SMOOTH",
"795 357 OFFCURVE",
"791 356 OFFCURVE",
"787 356 CURVE",
"761 463 OFFCURVE",
"740 570 OFFCURVE",
"719 678 CURVE SMOOTH",
"714 703 OFFCURVE",
"711 726 OFFCURVE",
"688 726 CURVE SMOOTH",
"670 726 OFFCURVE",
"662 713 OFFCURVE",
"656 696 CURVE SMOOTH",
"627 606 OFFCURVE",
"557 446 OFFCURVE",
"516 360 CURVE",
"493 355 OFFCURVE",
"449 339 OFFCURVE",
"442 315 CURVE SMOOTH",
"441 312 OFFCURVE",
"441 309 OFFCURVE",
"441 307 CURVE SMOOTH",
"441 293 OFFCURVE",
"451 286 OFFCURVE",
"463 286 CURVE SMOOTH",
"472 286 OFFCURVE",
"482 290 OFFCURVE",
"488 300 CURVE",
"428 169 OFFCURVE",
"343 -21 OFFCURVE",
"177 -21 CURVE SMOOTH",
"170 -21 OFFCURVE",
"164 -21 OFFCURVE",
"157 -20 CURVE SMOOTH",
"137 -18 OFFCURVE",
"116 -9 OFFCURVE",
"99 2 CURVE SMOOTH",
"51 34 OFFCURVE",
"31 85 OFFCURVE",
"31 141 CURVE SMOOTH",
"31 243 OFFCURVE",
"99 335 OFFCURVE",
"206 335 CURVE SMOOTH",
"228 335 OFFCURVE",
"253 330 OFFCURVE",
"272 319 CURVE SMOOTH",
"305 301 OFFCURVE",
"319 268 OFFCURVE",
"319 235 CURVE SMOOTH",
"319 189 OFFCURVE",
"291 144 OFFCURVE",
"247 144 CURVE SMOOTH",
"222 144 OFFCURVE",
"219 153 OFFCURVE",
"199 158 CURVE SMOOTH",
"196 159 OFFCURVE",
"192 159 OFFCURVE",
"190 159 CURVE SMOOTH",
"175 159 OFFCURVE",
"167 148 OFFCURVE",
"167 136 CURVE SMOOTH",
"167 128 OFFCURVE",
"170 119 OFFCURVE",
"178 114 CURVE SMOOTH",
"187 107 OFFCURVE",
"219 99 OFFCURVE",
"229 98 CURVE SMOOTH",
"236 97 OFFCURVE",
"243 96 OFFCURVE",
"249 96 CURVE SMOOTH",
"326 96 OFFCURVE",
"368 163 OFFCURVE",
"368 231 CURVE SMOOTH",
"368 283 OFFCURVE",
"344 336 OFFCURVE",
"294 363 CURVE SMOOTH",
"268 377 OFFCURVE",
"237 385 OFFCURVE",
"207 385 CURVE SMOOTH",
"65 385 OFFCURVE",
"-19 260 OFFCURVE",
"-19 141 CURVE SMOOTH",
"-19 70 OFFCURVE",
"11 1 OFFCURVE",
"75 -41 CURVE SMOOTH",
"97 -56 OFFCURVE",
"124 -67 OFFCURVE",
"152 -69 CURVE SMOOTH",
"161 -70 OFFCURVE",
"169 -70 OFFCURVE",
"177 -70 CURVE SMOOTH"
);
},
{
closed = 1;
nodes = (
"490 305 OFFCURVE",
"490 306 OFFCURVE",
"492 308 CURVE",
"491 306 OFFCURVE",
"490 305 OFFCURVE",
"490 303 CURVE"
);
},
{
closed = 1;
nodes = (
"681 359 OFFCURVE",
"628 364 OFFCURVE",
"574 365 CURVE",
"611 445 OFFCURVE",
"652 531 OFFCURVE",
"682 615 CURVE",
"701 523 OFFCURVE",
"716 440 OFFCURVE",
"735 358 CURVE"
);
}
);
width = 973;
}
);
note = A;
unicode = 0041;
},
{
glyphname = AE;
lastChange = "2021-11-11 14:10:08 +0000";
layers = (
{
anchors = (
{
name = bottom;
position = "{654, 0}";
},
{
name = top;
position = "{929, 754}";
}
);
background = {
anchors = (
{
name = bottom;
position = "{1295, -37}";
},
{
name = ogonek;
position = "{1291, -37}";
},
{
name = top;
position = "{1319, 752}";
},
{
name = topleft;
position = "{993, 705}";
}
);
paths = (
{
closed = 1;
nodes = (
"161 -90 OFFCURVE",
"169 -90 OFFCURVE",
"177 -90 CURVE SMOOTH",
"386 -90 OFFCURVE",
"473 135 OFFCURVE",
"550 294 CURVE",
"615 293 OFFCURVE",
"722 289 OFFCURVE",
"787 289 CURVE",
"787 336 LINE",
"761 443 OFFCURVE",
"740 550 OFFCURVE",
"719 658 CURVE SMOOTH",
"714 683 OFFCURVE",
"711 706 OFFCURVE",
"688 706 CURVE SMOOTH",
"670 706 OFFCURVE",
"662 693 OFFCURVE",
"656 676 CURVE SMOOTH",
"627 586 OFFCURVE",
"557 426 OFFCURVE",
"516 340 CURVE",
"493 335 OFFCURVE",
"449 319 OFFCURVE",
"442 295 CURVE SMOOTH",
"441 292 OFFCURVE",
"441 289 OFFCURVE",
"441 287 CURVE SMOOTH",
"441 273 OFFCURVE",
"451 266 OFFCURVE",
"463 266 CURVE SMOOTH",
"472 266 OFFCURVE",
"482 270 OFFCURVE",
"488 280 CURVE",
"428 149 OFFCURVE",
"343 -41 OFFCURVE",
"177 -41 CURVE SMOOTH",
"170 -41 OFFCURVE",
"164 -41 OFFCURVE",
"157 -40 CURVE SMOOTH",
"137 -38 OFFCURVE",
"116 -29 OFFCURVE",
"99 -18 CURVE SMOOTH",
"51 14 OFFCURVE",
"31 65 OFFCURVE",
"31 121 CURVE SMOOTH",
"31 223 OFFCURVE",
"99 315 OFFCURVE",
"206 315 CURVE SMOOTH",
"228 315 OFFCURVE",
"253 310 OFFCURVE",
"272 299 CURVE SMOOTH",
"305 281 OFFCURVE",
"319 248 OFFCURVE",
"319 215 CURVE SMOOTH",
"319 169 OFFCURVE",
"291 124 OFFCURVE",
"247 124 CURVE SMOOTH",
"222 124 OFFCURVE",
"219 133 OFFCURVE",
"199 138 CURVE SMOOTH",
"196 139 OFFCURVE",
"192 139 OFFCURVE",
"190 139 CURVE SMOOTH",
"175 139 OFFCURVE",
"167 128 OFFCURVE",
"167 116 CURVE SMOOTH",
"167 108 OFFCURVE",
"170 99 OFFCURVE",
"178 94 CURVE SMOOTH",
"187 87 OFFCURVE",
"219 79 OFFCURVE",
"229 78 CURVE SMOOTH",
"236 77 OFFCURVE",
"243 76 OFFCURVE",
"249 76 CURVE SMOOTH",
"326 76 OFFCURVE",
"368 143 OFFCURVE",
"368 211 CURVE SMOOTH",
"368 263 OFFCURVE",
"344 316 OFFCURVE",
"294 343 CURVE SMOOTH",
"268 357 OFFCURVE",
"237 365 OFFCURVE",
"207 365 CURVE SMOOTH",
"65 365 OFFCURVE",
"-19 240 OFFCURVE",
"-19 121 CURVE SMOOTH",
"-19 50 OFFCURVE",
"11 -19 OFFCURVE",
"75 -61 CURVE SMOOTH",
"97 -76 OFFCURVE",
"124 -87 OFFCURVE",
"152 -89 CURVE SMOOTH"
);
},
{
closed = 1;
nodes = (
"490 285 OFFCURVE",
"490 286 OFFCURVE",
"492 288 CURVE",
"491 286 OFFCURVE",
"490 285 OFFCURVE",
"490 283 CURVE"
);
},
{
closed = 1;
nodes = (
"681 339 OFFCURVE",
"628 344 OFFCURVE",
"574 345 CURVE",
"611 425 OFFCURVE",
"652 511 OFFCURVE",
"682 595 CURVE",
"701 503 OFFCURVE",
"716 420 OFFCURVE",
"735 338 CURVE"
);
},
{
closed = 1;
nodes = (
"891 3 OFFCURVE",
"777 59 OFFCURVE",
"777 189 CURVE SMOOTH",
"777 269 OFFCURVE",
"840 334 OFFCURVE",
"913 370 CURVE",
"953 344 OFFCURVE",
"998 330 OFFCURVE",
"1044 330 CURVE SMOOTH",
"1117 330 OFFCURVE",
"1154 355 OFFCURVE",
"1154 389 CURVE SMOOTH",
"1154 420 OFFCURVE",
"1124 441 OFFCURVE",
"1059 448 CURVE SMOOTH",
"1014 452 OFFCURVE",
"962 441 OFFCURVE",
"920 426 CURVE",
"889 453 OFFCURVE",
"868 488 OFFCURVE",
"868 525 CURVE SMOOTH",
"868 642 OFFCURVE",
"964 687 OFFCURVE",
"1070 687 CURVE SMOOTH",
"1122 687 OFFCURVE",
"1185 661 OFFCURVE",
"1185 602 CURVE SMOOTH",
"1185 591 OFFCURVE",
"1181 578 OFFCURVE",
"1175 569 CURVE SMOOTH",
"1170 562 OFFCURVE",
"1160 559 OFFCURVE",
"1150 559 CURVE SMOOTH",
"1135 559 OFFCURVE",
"1120 566 OFFCURVE",
"1118 574 CURVE",
"1118 577 OFFCURVE",
"1121 584 OFFCURVE",
"1121 588 CURVE SMOOTH",
"1122 610 OFFCURVE",
"1112 619 OFFCURVE",
"1101 619 CURVE SMOOTH",
"1088 619 OFFCURVE",
"1072 605 OFFCURVE",
"1072 587 CURVE SMOOTH",
"1072 542 OFFCURVE",
"1113 507 OFFCURVE",
"1155 507 CURVE SMOOTH",
"1177 507 OFFCURVE",
"1200 518 OFFCURVE",
"1217 542 CURVE SMOOTH",
"1230 560 OFFCURVE",
"1236 583 OFFCURVE",
"1236 605 CURVE SMOOTH",
"1234 691 OFFCURVE",
"1143 736 OFFCURVE",
"1070 736 CURVE SMOOTH",
"941 736 OFFCURVE",
"818 671 OFFCURVE",
"818 524 CURVE SMOOTH",
"818 477 OFFCURVE",
"839 436 OFFCURVE",
"870 403 CURVE",
"791 359 OFFCURVE",
"730 285 OFFCURVE",
"730 188 CURVE SMOOTH",
"730 26 OFFCURVE",
"864 -46 OFFCURVE",
"1003 -46 CURVE SMOOTH",
"1145 -46 OFFCURVE",
"1292 29 OFFCURVE",
"1305 159 CURVE SMOOTH",
"1306 168 OFFCURVE",
"1306 177 OFFCURVE",
"1306 186 CURVE SMOOTH",
"1306 200 OFFCURVE",
"1305 213 OFFCURVE",
"1301 228 CURVE SMOOTH",
"1290 268 OFFCURVE",
"1257 305 OFFCURVE",
"1210 305 CURVE SMOOTH",
"1202 305 OFFCURVE",
"1176 301 OFFCURVE",
"1168 292 CURVE SMOOTH",
"1158 281 OFFCURVE",
"1154 273 OFFCURVE",
"1154 267 CURVE SMOOTH",
"1154 255 OFFCURVE",
"1171 252 OFFCURVE",
"1187 252 CURVE SMOOTH",
"1200 252 OFFCURVE",
"1212 254 OFFCURVE",
"1211 254 CURVE SMOOTH",
"1259 255 OFFCURVE",
"1257 196 OFFCURVE",
"1256 162 CURVE SMOOTH",
"1255 141 OFFCURVE",
"1246 120 OFFCURVE",
"1235 102 CURVE SMOOTH",
"1189 31 OFFCURVE",
"1089 3 OFFCURVE",
"1008 3 CURVE SMOOTH"
);
},
{
closed = 1;
nodes = (
"1101 374 OFFCURVE",
"1082 369 OFFCURVE",
"1058 369 CURVE SMOOTH",
"1020 369 OFFCURVE",
"970 381 OFFCURVE",
"958 396 CURVE",
"970 405 OFFCURVE",
"1013 415 OFFCURVE",
"1049 415 CURVE SMOOTH",
"1080 415 OFFCURVE",
"1106 408 OFFCURVE",
"1103 387 CURVE SMOOTH"
);
}
);
};
layerId = "2ADFC918-CAA7-4AF7-825A-5AAC412EF250";
paths = (
{
closed = 1;
nodes = (
"386 -70 OFFCURVE",
"473 155 OFFCURVE",
"550 314 CURVE",
"615 313 OFFCURVE",
"722 309 OFFCURVE",
"787 309 CURVE",
"787 356 LINE",
"761 463 OFFCURVE",
"740 570 OFFCURVE",
"719 678 CURVE SMOOTH",
"714 703 OFFCURVE",
"711 726 OFFCURVE",
"688 726 CURVE SMOOTH",
"670 726 OFFCURVE",
"662 713 OFFCURVE",
"656 696 CURVE SMOOTH",
"627 606 OFFCURVE",
"557 446 OFFCURVE",
"516 360 CURVE",
"493 355 OFFCURVE",
"449 339 OFFCURVE",
"442 315 CURVE SMOOTH",
"441 312 OFFCURVE",
"441 309 OFFCURVE",
"441 307 CURVE SMOOTH",
"441 293 OFFCURVE",
"451 286 OFFCURVE",
"463 286 CURVE SMOOTH",
"472 286 OFFCURVE",
"482 290 OFFCURVE",
"488 300 CURVE",
"428 169 OFFCURVE",
"343 -21 OFFCURVE",
"177 -21 CURVE SMOOTH",
"170 -21 OFFCURVE",
"164 -21 OFFCURVE",
"157 -20 CURVE SMOOTH",
"137 -18 OFFCURVE",
"116 -9 OFFCURVE",
"99 2 CURVE SMOOTH",
"51 34 OFFCURVE",
"31 85 OFFCURVE",
"31 141 CURVE SMOOTH",
"31 243 OFFCURVE",
"99 335 OFFCURVE",
"206 335 CURVE SMOOTH",
"228 335 OFFCURVE",
"253 330 OFFCURVE",
"272 319 CURVE SMOOTH",
"305 301 OFFCURVE",
"319 268 OFFCURVE",
"319 235 CURVE SMOOTH",
"319 189 OFFCURVE",
"291 144 OFFCURVE",
"247 144 CURVE SMOOTH",
"222 144 OFFCURVE",
"219 153 OFFCURVE",
"199 158 CURVE SMOOTH",
"196 159 OFFCURVE",
"192 159 OFFCURVE",
"190 159 CURVE SMOOTH",
"175 159 OFFCURVE",
"167 148 OFFCURVE",
"167 136 CURVE SMOOTH",
"167 128 OFFCURVE",
"170 119 OFFCURVE",
"178 114 CURVE SMOOTH",
"187 107 OFFCURVE",
"219 99 OFFCURVE",
"229 98 CURVE SMOOTH",
"236 97 OFFCURVE",
"243 96 OFFCURVE",
"249 96 CURVE SMOOTH",
"326 96 OFFCURVE",
"368 163 OFFCURVE",
"368 231 CURVE SMOOTH",
"368 283 OFFCURVE",
"344 336 OFFCURVE",
"294 363 CURVE SMOOTH",
"268 377 OFFCURVE",
"237 385 OFFCURVE",
"207 385 CURVE SMOOTH",
"65 385 OFFCURVE",
"-19 260 OFFCURVE",
"-19 141 CURVE SMOOTH",
"-19 70 OFFCURVE",
"11 1 OFFCURVE",
"75 -41 CURVE SMOOTH",
"97 -56 OFFCURVE",
"124 -67 OFFCURVE",
"152 -69 CURVE SMOOTH",
"161 -70 OFFCURVE",
"169 -70 OFFCURVE",
"177 -70 CURVE SMOOTH"
);
},
{
closed = 1;
nodes = (
"490 305 OFFCURVE",
"490 306 OFFCURVE",
"492 308 CURVE",
"491 306 OFFCURVE",
"490 305 OFFCURVE",
"490 303 CURVE"
);
},
{
closed = 1;
nodes = (
"681 359 OFFCURVE",
"628 364 OFFCURVE",
"574 365 CURVE",
"611 445 OFFCURVE",
"652 531 OFFCURVE",
"682 615 CURVE",
"701 523 OFFCURVE",
"716 440 OFFCURVE",
"735 358 CURVE"
);
},
{
closed = 1;
nodes = (
"1145 -26 OFFCURVE",
"1292 49 OFFCURVE",
"1305 179 CURVE SMOOTH",
"1306 188 OFFCURVE",
"1306 197 OFFCURVE",
"1306 206 CURVE SMOOTH",
"1306 220 OFFCURVE",
"1305 233 OFFCURVE",
"1301 248 CURVE SMOOTH",
"1290 288 OFFCURVE",
"1257 325 OFFCURVE",
"1210 325 CURVE SMOOTH",
"1202 325 OFFCURVE",
"1176 321 OFFCURVE",
"1168 312 CURVE SMOOTH",
"1158 301 OFFCURVE",
"1154 293 OFFCURVE",
"1154 287 CURVE SMOOTH",
"1154 275 OFFCURVE",
"1171 272 OFFCURVE",
"1187 272 CURVE SMOOTH",
"1202 272 OFFCURVE",
"1215 274 OFFCURVE",
"1212 274 CURVE SMOOTH",
"1259 274 OFFCURVE",
"1257 216 OFFCURVE",
"1256 182 CURVE SMOOTH",
"1255 161 OFFCURVE",
"1246 140 OFFCURVE",
"1235 122 CURVE SMOOTH",
"1189 51 OFFCURVE",
"1089 23 OFFCURVE",
"1008 23 CURVE SMOOTH",
"891 23 OFFCURVE",
"777 79 OFFCURVE",
"777 209 CURVE SMOOTH",
"777 289 OFFCURVE",
"840 354 OFFCURVE",
"913 390 CURVE",
"953 364 OFFCURVE",
"998 350 OFFCURVE",
"1044 350 CURVE SMOOTH",
"1117 350 OFFCURVE",
"1154 375 OFFCURVE",
"1154 409 CURVE SMOOTH",
"1154 440 OFFCURVE",
"1124 461 OFFCURVE",
"1059 468 CURVE SMOOTH",
"1014 472 OFFCURVE",
"962 461 OFFCURVE",
"920 446 CURVE",
"889 473 OFFCURVE",
"868 508 OFFCURVE",
"868 545 CURVE SMOOTH",
"868 662 OFFCURVE",
"964 707 OFFCURVE",
"1070 707 CURVE SMOOTH",
"1122 707 OFFCURVE",
"1185 681 OFFCURVE",
"1185 622 CURVE SMOOTH",
"1185 611 OFFCURVE",
"1181 598 OFFCURVE",
"1175 589 CURVE SMOOTH",
"1170 582 OFFCURVE",
"1160 579 OFFCURVE",
"1150 579 CURVE SMOOTH",
"1135 579 OFFCURVE",
"1120 586 OFFCURVE",
"1118 594 CURVE",
"1118 597 OFFCURVE",
"1121 604 OFFCURVE",
"1121 608 CURVE SMOOTH",
"1122 630 OFFCURVE",
"1112 639 OFFCURVE",
"1101 639 CURVE SMOOTH",
"1088 639 OFFCURVE",
"1072 625 OFFCURVE",
"1072 607 CURVE SMOOTH",
"1072 562 OFFCURVE",
"1113 527 OFFCURVE",
"1155 527 CURVE SMOOTH",
"1177 527 OFFCURVE",
"1200 538 OFFCURVE",
"1217 562 CURVE SMOOTH",
"1230 580 OFFCURVE",
"1236 603 OFFCURVE",
"1236 625 CURVE SMOOTH",
"1234 711 OFFCURVE",
"1143 756 OFFCURVE",
"1070 756 CURVE SMOOTH",
"941 756 OFFCURVE",
"818 691 OFFCURVE",
"818 544 CURVE SMOOTH",
"818 497 OFFCURVE",
"839 456 OFFCURVE",
"870 423 CURVE",
"791 379 OFFCURVE",
"730 305 OFFCURVE",
"730 208 CURVE SMOOTH",
"730 46 OFFCURVE",
"864 -26 OFFCURVE",
"1003 -26 CURVE SMOOTH"
);
},
{
closed = 1;
nodes = (
"1020 389 OFFCURVE",
"970 401 OFFCURVE",
"958 416 CURVE",
"970 425 OFFCURVE",
"1013 435 OFFCURVE",
"1049 435 CURVE SMOOTH",
"1078 435 OFFCURVE",
"1103 429 OFFCURVE",
"1103 410 CURVE SMOOTH",
"1103 395 OFFCURVE",
"1084 389 OFFCURVE",
"1058 389 CURVE SMOOTH"
);
}
);
width = 1308;
}
);
note = AE;
unicode = 00C6;
},
{
glyphname = B;
lastChange = "2021-11-11 14:10:08 +0000";
layers = (
{
background = {
paths = (
{
closed = 1;
nodes = (
"414 -44 OFFCURVE",
"608 24 OFFCURVE",
"608 183 CURVE SMOOTH",
"608 193 OFFCURVE",
"607 203 OFFCURVE",
"606 213 CURVE SMOOTH",
"594 292 OFFCURVE",
"546 344 OFFCURVE",
"484 374 CURVE",
"522 405 OFFCURVE",
"549 448 OFFCURVE",
"549 501 CURVE SMOOTH",
"549 643 OFFCURVE",
"372 696 OFFCURVE",
"268 696 CURVE SMOOTH",
"186 696 OFFCURVE",
"59 663 OFFCURVE",
"30 582 CURVE SMOOTH",
"28 577 OFFCURVE",
"28 573 OFFCURVE",
"28 569 CURVE SMOOTH",
"28 553 OFFCURVE",
"38 543 OFFCURVE",
"47 543 CURVE SMOOTH",
"53 543 OFFCURVE",
"58 546 OFFCURVE",
"61 555 CURVE SMOOTH",
"82 615 OFFCURVE",
"167 644 OFFCURVE",
"257 644 CURVE SMOOTH",
"350 644 OFFCURVE",
"447 612 OFFCURVE",
"484 551 CURVE SMOOTH",
"495 532 OFFCURVE",
"500 514 OFFCURVE",
"500 497 CURVE SMOOTH",
"500 454 OFFCURVE",
"468 419 OFFCURVE",
"421 395 CURVE",
"399 398 OFFCURVE",
"379 403 OFFCURVE",
"351 403 CURVE SMOOTH",
"336 403 OFFCURVE",
"320 402 OFFCURVE",
"301 398 CURVE SMOOTH",
"280 393 OFFCURVE",
"270 381 OFFCURVE",
"270 368 CURVE SMOOTH",
"270 356 OFFCURVE",
"279 342 OFFCURVE",
"295 334 CURVE SMOOTH",
"305 329 OFFCURVE",
"324 326 OFFCURVE",
"347 326 CURVE SMOOTH",
"374 326 OFFCURVE",
"406 330 OFFCURVE",
"431 342 CURVE",
"495 322 OFFCURVE",
"547 278 OFFCURVE",
"557 206 CURVE SMOOTH",
"558 200 OFFCURVE",
"558 193 OFFCURVE",
"558 187 CURVE SMOOTH",
"558 108 OFFCURVE",
"489 52 OFFCURVE",
"416 26 CURVE SMOOTH",
"373 11 OFFCURVE",
"328 5 OFFCURVE",
"284 5 CURVE SMOOTH",
"261 5 OFFCURVE",
"238 7 OFFCURVE",
"216 8 CURVE",
"219 29 LINE SMOOTH",
"227 86 OFFCURVE",
"229 142 OFFCURVE",
"229 198 CURVE SMOOTH",
"229 231 OFFCURVE",
"228 265 OFFCURVE",
"228 299 CURVE SMOOTH",
"227 325 OFFCURVE",
"227 351 OFFCURVE",
"227 377 CURVE SMOOTH",
"227 396 OFFCURVE",
"227 415 OFFCURVE",
"228 434 CURVE SMOOTH",
"230 468 OFFCURVE",
"235 502 OFFCURVE",
"249 533 CURVE SMOOTH",
"252 539 OFFCURVE",
"256 544 OFFCURVE",
"258 550 CURVE SMOOTH",
"261 557 OFFCURVE",
"264 565 OFFCURVE",
"264 573 CURVE SMOOTH",
"264 580 OFFCURVE",
"261 587 OFFCURVE",
"253 592 CURVE",
"251 594 OFFCURVE",
"248 594 OFFCURVE",
"245 594 CURVE SMOOTH",
"240 594 OFFCURVE",
"236 593 OFFCURVE",
"234 592 CURVE SMOOTH",
"197 577 OFFCURVE",
"182 471 OFFCURVE",
"179 437 CURVE SMOOTH",
"176 400 OFFCURVE",
"176 362 OFFCURVE",
"176 325 CURVE SMOOTH",
"176 275 OFFCURVE",
"177 226 OFFCURVE",
"177 176 CURVE SMOOTH",
"177 151 OFFCURVE",
"177 127 OFFCURVE",
"176 102 CURVE SMOOTH",
"175 79 OFFCURVE",
"173 56 OFFCURVE",
"170 33 CURVE SMOOTH",
"168 16 LINE",
"106 31 OFFCURVE",
"32 63 OFFCURVE",
"32 131 CURVE SMOOTH",
"32 165 OFFCURVE",
"50 216 OFFCURVE",
"84 221 CURVE SMOOTH",
"89 222 OFFCURVE",
"90 222 OFFCURVE",
"92 222 CURVE",
"98 220 OFFCURVE",
"103 218 OFFCURVE",
"109 218 CURVE SMOOTH",
"124 216 OFFCURVE",
"135 229 OFFCURVE",
"135 243 CURVE SMOOTH",
"135 252 OFFCURVE",
"130 261 OFFCURVE",
"120 266 CURVE SMOOTH",
"109 271 OFFCURVE",
"86 271 OFFCURVE",
"76 270 CURVE SMOOTH",
"15 260 OFFCURVE",
"-18 192 OFFCURVE",
"-18 137 CURVE SMOOTH",
"-18 32 OFFCURVE",
"69 -11 OFFCURVE",
"154 -30 CURVE",
"151 -34 LINE",
"137 -39 OFFCURVE",
"132 -49 OFFCURVE",
"132 -58 CURVE SMOOTH",
"132 -70 OFFCURVE",
"141 -81 OFFCURVE",
"155 -81 CURVE SMOOTH",
"169 -81 OFFCURVE",
"186 -70 OFFCURVE",
"201 -38 CURVE",
"229 -41 OFFCURVE",
"257 -44 OFFCURVE",
"284 -44 CURVE SMOOTH"
);
}
);
};
layerId = "2ADFC918-CAA7-4AF7-825A-5AAC412EF250";
paths = (
{
closed = 1;
nodes = (
"169 -61 OFFCURVE",
"186 -50 OFFCURVE",
"201 -18 CURVE",
"229 -21 OFFCURVE",
"257 -24 OFFCURVE",
"284 -24 CURVE SMOOTH",
"414 -24 OFFCURVE",
"608 44 OFFCURVE",
"608 203 CURVE SMOOTH",
"608 213 OFFCURVE",
"607 223 OFFCURVE",
"606 233 CURVE SMOOTH",
"594 312 OFFCURVE",
"546 364 OFFCURVE",
"484 394 CURVE",
"522 425 OFFCURVE",
"549 468 OFFCURVE",
"549 521 CURVE SMOOTH",
"549 663 OFFCURVE",
"372 716 OFFCURVE",
"268 716 CURVE SMOOTH",
"186 716 OFFCURVE",
"59 683 OFFCURVE",
"30 602 CURVE SMOOTH",
"28 597 OFFCURVE",
"28 593 OFFCURVE",
"28 589 CURVE SMOOTH",
"28 573 OFFCURVE",
"38 563 OFFCURVE",
"47 563 CURVE SMOOTH",
"53 563 OFFCURVE",
"58 566 OFFCURVE",
"61 575 CURVE SMOOTH",
"82 635 OFFCURVE",
"167 664 OFFCURVE",
"257 664 CURVE SMOOTH",
"350 664 OFFCURVE",
"447 632 OFFCURVE",
"484 571 CURVE SMOOTH",
"495 552 OFFCURVE",
"500 534 OFFCURVE",
"500 517 CURVE SMOOTH",
"500 474 OFFCURVE",
"468 439 OFFCURVE",
"421 415 CURVE",
"399 418 OFFCURVE",
"379 423 OFFCURVE",
"351 423 CURVE SMOOTH",
"336 423 OFFCURVE",
"320 422 OFFCURVE",
"301 418 CURVE SMOOTH",
"280 413 OFFCURVE",
"270 401 OFFCURVE",
"270 388 CURVE SMOOTH",
"270 376 OFFCURVE",
"279 362 OFFCURVE",
"295 354 CURVE SMOOTH",
"305 349 OFFCURVE",
"324 346 OFFCURVE",
"347 346 CURVE SMOOTH",
"374 346 OFFCURVE",
"406 350 OFFCURVE",
"431 362 CURVE",
"495 342 OFFCURVE",
"547 298 OFFCURVE",
"557 226 CURVE SMOOTH",
"558 220 OFFCURVE",
"558 213 OFFCURVE",
"558 207 CURVE SMOOTH",
"558 128 OFFCURVE",
"489 72 OFFCURVE",
"416 46 CURVE SMOOTH",
"373 31 OFFCURVE",
"328 25 OFFCURVE",
"284 25 CURVE SMOOTH",
"261 25 OFFCURVE",
"238 27 OFFCURVE",
"216 28 CURVE",
"219 49 LINE SMOOTH",
"227 106 OFFCURVE",
"229 162 OFFCURVE",
"229 218 CURVE SMOOTH",
"229 251 OFFCURVE",
"228 285 OFFCURVE",
"228 319 CURVE SMOOTH",
"227 345 OFFCURVE",
"227 371 OFFCURVE",
"227 397 CURVE SMOOTH",
"227 416 OFFCURVE",
"227 435 OFFCURVE",
"228 454 CURVE SMOOTH",
"230 488 OFFCURVE",
"235 522 OFFCURVE",
"249 553 CURVE SMOOTH",
"252 559 OFFCURVE",
"256 564 OFFCURVE",
"258 570 CURVE SMOOTH",
"261 577 OFFCURVE",
"264 585 OFFCURVE",
"264 593 CURVE SMOOTH",
"264 600 OFFCURVE",
"261 607 OFFCURVE",
"253 612 CURVE",
"251 614 OFFCURVE",
"248 614 OFFCURVE",
"245 614 CURVE SMOOTH",
"240 614 OFFCURVE",
"236 613 OFFCURVE",
"234 612 CURVE SMOOTH",
"197 597 OFFCURVE",
"182 491 OFFCURVE",
"179 457 CURVE SMOOTH",
"176 420 OFFCURVE",
"176 382 OFFCURVE",
"176 345 CURVE SMOOTH",
"176 295 OFFCURVE",
"177 246 OFFCURVE",
"177 196 CURVE SMOOTH",
"177 171 OFFCURVE",
"177 147 OFFCURVE",
"176 122 CURVE SMOOTH",
"175 99 OFFCURVE",
"173 76 OFFCURVE",
"170 53 CURVE SMOOTH",
"168 36 LINE",
"106 51 OFFCURVE",
"32 83 OFFCURVE",
"32 151 CURVE SMOOTH",
"32 185 OFFCURVE",
"50 236 OFFCURVE",
"84 241 CURVE SMOOTH",
"89 242 OFFCURVE",
"90 242 OFFCURVE",
"92 242 CURVE",
"99 240 OFFCURVE",
"105 238 OFFCURVE",
"112 238 CURVE SMOOTH",
"125 238 OFFCURVE",
"135 250 OFFCURVE",
"135 263 CURVE SMOOTH",
"135 272 OFFCURVE",
"130 281 OFFCURVE",
"120 286 CURVE SMOOTH",
"109 291 OFFCURVE",
"86 291 OFFCURVE",
"76 290 CURVE SMOOTH",
"15 280 OFFCURVE",
"-18 212 OFFCURVE",
"-18 157 CURVE SMOOTH",
"-18 52 OFFCURVE",
"69 9 OFFCURVE",
"154 -10 CURVE",
"151 -14 LINE",
"137 -19 OFFCURVE",
"132 -29 OFFCURVE",
"132 -38 CURVE SMOOTH",
"132 -50 OFFCURVE",
"141 -61 OFFCURVE",
"155 -61 CURVE SMOOTH"
);
}
);
width = 625;
}
);
note = B;
unicode = 0042;
},
{
glyphname = C;
lastChange = "2021-11-11 14:10:08 +0000";
layers = (
{
anchors = (
{
name = bottom;
position = "{332, -10}";
},
{
name = top;
position = "{363, 705}";
}
);
background = {
anchors = (
{
name = bottom;
position = "{361, -28}";
},
{
name = top;
position = "{345, 752}";
}
);
paths = (
{
closed = 1;
nodes = (
"432 -35 OFFCURVE",
"540 8 OFFCURVE",
"596 90 CURVE SMOOTH",
"611 112 OFFCURVE",
"623 138 OFFCURVE",
"623 166 CURVE SMOOTH",
"623 175 OFFCURVE",
"616 187 OFFCURVE",
"607 187 CURVE SMOOTH",
"576 187 OFFCURVE",
"584 156 OFFCURVE",
"570 132 CURVE SMOOTH",
"539 79 OFFCURVE",
"473 38 OFFCURVE",
"417 22 CURVE SMOOTH",
"389 14 OFFCURVE",
"363 11 OFFCURVE",
"335 11 CURVE SMOOTH",
"151 11 OFFCURVE",
"61 135 OFFCURVE",
"61 314 CURVE SMOOTH",
"61 480 OFFCURVE",
"180 646 OFFCURVE",
"353 646 CURVE SMOOTH",
"451 646 OFFCURVE",
"571 605 OFFCURVE",
"571 491 CURVE SMOOTH",
"571 408 OFFCURVE",
"512 356 OFFCURVE",
"435 356 CURVE SMOOTH",
"425 356 OFFCURVE",
"415 357 OFFCURVE",
"405 359 CURVE SMOOTH",
"369 365 OFFCURVE",
"339 404 OFFCURVE",
"339 440 CURVE SMOOTH",
"339 446 OFFCURVE",
"340 453 OFFCURVE",
"342 459 CURVE SMOOTH",
"347 474 OFFCURVE",
"351 481 OFFCURVE",
"365 492 CURVE SMOOTH",
"371 496 OFFCURVE",
"374 502 OFFCURVE",
"374 508 CURVE SMOOTH",
"374 519 OFFCURVE",
"364 529 OFFCURVE",
"351 529 CURVE SMOOTH",
"347 529 OFFCURVE",
"343 528 OFFCURVE",
"339 526 CURVE SMOOTH",
"328 521 OFFCURVE",
"312 500 OFFCURVE",
"306 491 CURVE SMOOTH",
"297 475 OFFCURVE",
"293 458 OFFCURVE",
"293 441 CURVE SMOOTH",
"293 382 OFFCURVE",
"340 324 OFFCURVE",
"398 314 CURVE SMOOTH",
"410 312 OFFCURVE",
"423 311 OFFCURVE",
"435 311 CURVE SMOOTH",
"535 311 OFFCURVE",
"618 383 OFFCURVE",
"618 491 CURVE SMOOTH",
"618 635 OFFCURVE",
"474 690 OFFCURVE",
"356 690 CURVE SMOOTH",
"151 690 OFFCURVE",
"15 503 OFFCURVE",
"15 310 CURVE SMOOTH",
"15 111 OFFCURVE",
"128 -35 OFFCURVE",
"335 -35 CURVE SMOOTH"
);
}
);
};
layerId = "2ADFC918-CAA7-4AF7-825A-5AAC412EF250";
paths = (
{
closed = 1;
nodes = (
"432 -15 OFFCURVE",
"540 28 OFFCURVE",
"596 110 CURVE SMOOTH",
"611 132 OFFCURVE",
"623 158 OFFCURVE",
"623 186 CURVE SMOOTH",
"623 195 OFFCURVE",
"616 207 OFFCURVE",
"607 207 CURVE SMOOTH",
"576 207 OFFCURVE",
"584 176 OFFCURVE",
"570 152 CURVE SMOOTH",
"539 99 OFFCURVE",
"473 58 OFFCURVE",
"417 42 CURVE SMOOTH",
"389 34 OFFCURVE",
"363 31 OFFCURVE",
"335 31 CURVE SMOOTH",
"151 31 OFFCURVE",
"61 155 OFFCURVE",
"61 334 CURVE SMOOTH",
"61 500 OFFCURVE",
"180 666 OFFCURVE",
"353 666 CURVE SMOOTH",
"451 666 OFFCURVE",
"571 625 OFFCURVE",
"571 511 CURVE SMOOTH",
"571 428 OFFCURVE",
"512 376 OFFCURVE",
"435 376 CURVE SMOOTH",
"425 376 OFFCURVE",
"415 377 OFFCURVE",
"405 379 CURVE SMOOTH",
"369 385 OFFCURVE",
"339 424 OFFCURVE",
"339 460 CURVE SMOOTH",
"339 466 OFFCURVE",
"340 473 OFFCURVE",
"342 479 CURVE SMOOTH",
"347 494 OFFCURVE",
"351 501 OFFCURVE",
"365 512 CURVE SMOOTH",
"371 516 OFFCURVE",
"374 522 OFFCURVE",
"374 528 CURVE SMOOTH",
"374 539 OFFCURVE",
"364 549 OFFCURVE",
"351 549 CURVE SMOOTH",
"347 549 OFFCURVE",
"343 548 OFFCURVE",
"339 546 CURVE SMOOTH",
"328 541 OFFCURVE",
"312 520 OFFCURVE",
"306 511 CURVE SMOOTH",
"297 495 OFFCURVE",
"293 478 OFFCURVE",
"293 461 CURVE SMOOTH",
"293 402 OFFCURVE",
"340 344 OFFCURVE",
"398 334 CURVE SMOOTH",
"410 332 OFFCURVE",
"423 331 OFFCURVE",
"435 331 CURVE SMOOTH",
"535 331 OFFCURVE",
"618 403 OFFCURVE",
"618 511 CURVE SMOOTH",
"618 655 OFFCURVE",
"474 710 OFFCURVE",
"356 710 CURVE SMOOTH",
"151 710 OFFCURVE",
"15 523 OFFCURVE",
"15 330 CURVE SMOOTH",
"15 131 OFFCURVE",
"128 -15 OFFCURVE",
"335 -15 CURVE SMOOTH"
);
}
);
width = 689;
}
);
note = C;
unicode = 0043;
},
{
glyphname = D;
lastChange = "2021-11-11 14:10:08 +0000";
layers = (
{
anchors = (
{
name = bottom;
position = "{350, -45}";
},
{
name = center;
position = "{319, 350}";
},
{
name = top;
position = "{517, 705}";
}
);
background = {
anchors = (
{
name = bottom;
position = "{392, -80}";
},
{
name = center;
position = "{392, 353}";
},
{
name = top;
position = "{392, 752}";
}
);
paths = (
{
closed = 1;
nodes = (
"270 -114 OFFCURVE",
"286 -85 OFFCURVE",
"295 -54 CURVE",
"338 -54 LINE SMOOTH",
"580 -54 OFFCURVE",
"780 68 OFFCURVE",
"780 331 CURVE SMOOTH",
"780 583 OFFCURVE",
"574 719 OFFCURVE",
"342 719 CURVE SMOOTH",
"215 719 OFFCURVE",
"9 663 OFFCURVE",
"9 499 CURVE SMOOTH",
"9 430 OFFCURVE",
"58 386 OFFCURVE",
"113 386 CURVE SMOOTH",
"137 386 OFFCURVE",
"162 394 OFFCURVE",
"185 412 CURVE SMOOTH",
"191 416 OFFCURVE",
"209 433 OFFCURVE",
"212 440 CURVE SMOOTH",
"214 445 OFFCURVE",
"216 451 OFFCURVE",
"216 456 CURVE SMOOTH",
"216 468 OFFCURVE",
"209 478 OFFCURVE",
"197 478 CURVE SMOOTH",
"192 478 OFFCURVE",
"185 475 OFFCURVE",
"177 470 CURVE SMOOTH",
"173 468 OFFCURVE",
"160 461 OFFCURVE",
"160 454 CURVE SMOOTH",
"160 453 LINE SMOOTH",
"160 452 OFFCURVE",
"159 453 OFFCURVE",
"148 446 CURVE SMOOTH",
"134 438 OFFCURVE",
"122 434 OFFCURVE",
"111 434 CURVE SMOOTH",
"81 434 OFFCURVE",
"62 462 OFFCURVE",
"58 502 CURVE SMOOTH",
"55 524 OFFCURVE",
"64 546 OFFCURVE",
"76 565 CURVE SMOOTH",
"127 641 OFFCURVE",
"253 670 OFFCURVE",
"342 670 CURVE SMOOTH",
"552 670 OFFCURVE",
"731 556 OFFCURVE",
"731 331 CURVE SMOOTH",
"731 93 OFFCURVE",
"560 -6 OFFCURVE",
"338 -6 CURVE SMOOTH",
"327 -6 OFFCURVE",
"316 -4 OFFCURVE",
"305 -3 CURVE",
"306 -1 OFFCURVE",
"306 0 OFFCURVE",
"306 1 CURVE SMOOTH",
"318 49 OFFCURVE",
"321 98 OFFCURVE",
"321 147 CURVE SMOOTH",
"321 187 OFFCURVE",
"319 228 OFFCURVE",
"319 268 CURVE SMOOTH",
"319 330 OFFCURVE",
"320 425 OFFCURVE",
"331 484 CURVE SMOOTH",
"332 490 OFFCURVE",
"341 549 OFFCURVE",
"351 549 CURVE SMOOTH",
"364 549 OFFCURVE",
"370 559 OFFCURVE",
"370 570 CURVE SMOOTH",
"370 582 OFFCURVE",
"362 596 OFFCURVE",
"345 596 CURVE SMOOTH",
"343 596 OFFCURVE",
"340 596 OFFCURVE",
"337 595 CURVE SMOOTH",
"305 587 OFFCURVE",
"295 551 OFFCURVE",
"288 520 CURVE SMOOTH",
"271 437 OFFCURVE",
"270 352 OFFCURVE",
"270 268 CURVE SMOOTH",
"270 181 OFFCURVE",
"266 95 OFFCURVE",
"257 9 CURVE",
"257 1 LINE",
"178 12 OFFCURVE",
"88 44 OFFCURVE",
"47 114 CURVE SMOOTH",
"35 134 OFFCURVE",
"28 157 OFFCURVE",
"28 180 CURVE SMOOTH",
"28 208 OFFCURVE",
"41 243 OFFCURVE",
"63 261 CURVE SMOOTH",
"74 270 OFFCURVE",
"88 273 OFFCURVE",
"103 273 CURVE SMOOTH",
"138 273 OFFCURVE",
"176 251 OFFCURVE",
"178 218 CURVE SMOOTH",
"178 210 OFFCURVE",
"178 208 OFFCURVE",
"177 206 CURVE SMOOTH",
"174 201 OFFCURVE",
"172 196 OFFCURVE",
"171 189 CURVE SMOOTH",
"167 168 OFFCURVE",
"179 157 OFFCURVE",
"192 157 CURVE SMOOTH",
"201 157 OFFCURVE",
"210 162 OFFCURVE",
"216 171 CURVE",
"220 180 OFFCURVE",
"224 200 OFFCURVE",
"225 208 CURVE SMOOTH",
"231 278 OFFCURVE",
"167 323 OFFCURVE",
"104 323 CURVE SMOOTH",
"78 323 OFFCURVE",
"52 315 OFFCURVE",
"31 298 CURVE SMOOTH",
"10 281 OFFCURVE",
"-6 256 OFFCURVE",
"-15 230 CURVE SMOOTH",
"-21 213 OFFCURVE",
"-23 197 OFFCURVE",
"-23 181 CURVE SMOOTH",
"-23 110 OFFCURVE",
"26 45 OFFCURVE",
"85 8 CURVE SMOOTH",
"133 -23 OFFCURVE",
"189 -40 OFFCURVE",
"245 -48 CURVE",
"243 -53 OFFCURVE",
"236 -67 OFFCURVE",
"231 -70 CURVE SMOOTH",
"227 -72 OFFCURVE",
"210 -75 OFFCURVE",
"201 -81 CURVE SMOOTH",
"196 -85 OFFCURVE",
"194 -90 OFFCURVE",
"194 -96 CURVE SMOOTH",
"194 -110 OFFCURVE",
"207 -125 OFFCURVE",
"228 -120 CURVE"
);
}
);
};
layerId = "2ADFC918-CAA7-4AF7-825A-5AAC412EF250";
paths = (
{
closed = 1;
nodes = (
"222 -101 OFFCURVE",
"225 -101 OFFCURVE",
"228 -100 CURVE",
"270 -94 OFFCURVE",
"286 -65 OFFCURVE",
"295 -34 CURVE",
"338 -34 LINE SMOOTH",
"580 -34 OFFCURVE",
"780 88 OFFCURVE",
"780 351 CURVE SMOOTH",
"780 603 OFFCURVE",
"574 739 OFFCURVE",
"342 739 CURVE SMOOTH",
"215 739 OFFCURVE",
"9 683 OFFCURVE",
"9 519 CURVE SMOOTH",
"9 450 OFFCURVE",
"58 406 OFFCURVE",
"113 406 CURVE SMOOTH",
"137 406 OFFCURVE",
"162 414 OFFCURVE",
"185 432 CURVE SMOOTH",
"191 436 OFFCURVE",
"209 453 OFFCURVE",
"212 460 CURVE SMOOTH",
"214 465 OFFCURVE",
"216 471 OFFCURVE",
"216 476 CURVE SMOOTH",
"216 488 OFFCURVE",
"209 498 OFFCURVE",
"197 498 CURVE SMOOTH",
"192 498 OFFCURVE",
"185 495 OFFCURVE",
"177 490 CURVE SMOOTH",
"173 488 OFFCURVE",
"160 481 OFFCURVE",
"160 474 CURVE SMOOTH",
"160 473 LINE SMOOTH",
"160 472 OFFCURVE",
"159 473 OFFCURVE",
"148 466 CURVE SMOOTH",
"134 458 OFFCURVE",
"122 454 OFFCURVE",
"111 454 CURVE SMOOTH",
"79 454 OFFCURVE",
"57 486 OFFCURVE",
"57 531 CURVE SMOOTH",
"57 550 OFFCURVE",
"66 568 OFFCURVE",
"76 585 CURVE SMOOTH",
"127 661 OFFCURVE",
"253 690 OFFCURVE",
"342 690 CURVE SMOOTH",
"552 690 OFFCURVE",
"731 576 OFFCURVE",
"731 351 CURVE SMOOTH",
"731 113 OFFCURVE",
"560 14 OFFCURVE",
"338 14 CURVE SMOOTH",
"327 14 OFFCURVE",
"316 16 OFFCURVE",
"305 17 CURVE",
"306 19 OFFCURVE",
"306 20 OFFCURVE",
"306 21 CURVE SMOOTH",
"318 69 OFFCURVE",
"321 118 OFFCURVE",
"321 167 CURVE SMOOTH",
"321 207 OFFCURVE",
"319 248 OFFCURVE",
"319 288 CURVE SMOOTH",
"319 350 OFFCURVE",
"320 445 OFFCURVE",
"331 504 CURVE SMOOTH",
"332 510 OFFCURVE",
"341 569 OFFCURVE",
"351 569 CURVE SMOOTH",
"364 569 OFFCURVE",
"370 579 OFFCURVE",
"370 590 CURVE SMOOTH",
"370 602 OFFCURVE",
"362 616 OFFCURVE",
"345 616 CURVE SMOOTH",
"343 616 OFFCURVE",
"340 616 OFFCURVE",
"337 615 CURVE SMOOTH",
"305 607 OFFCURVE",
"295 571 OFFCURVE",
"288 540 CURVE SMOOTH",
"271 457 OFFCURVE",
"270 372 OFFCURVE",
"270 288 CURVE SMOOTH",
"270 201 OFFCURVE",
"266 115 OFFCURVE",
"257 29 CURVE",
"257 21 LINE",
"178 32 OFFCURVE",
"88 64 OFFCURVE",
"47 134 CURVE SMOOTH",
"35 154 OFFCURVE",
"28 177 OFFCURVE",
"28 200 CURVE SMOOTH",
"28 228 OFFCURVE",
"41 263 OFFCURVE",
"63 281 CURVE SMOOTH",
"74 290 OFFCURVE",
"88 293 OFFCURVE",
"103 293 CURVE SMOOTH",
"138 293 OFFCURVE",
"176 271 OFFCURVE",
"178 238 CURVE SMOOTH",
"178 230 OFFCURVE",
"178 228 OFFCURVE",
"177 226 CURVE SMOOTH",
"174 221 OFFCURVE",
"172 216 OFFCURVE",
"171 209 CURVE SMOOTH",
"167 188 OFFCURVE",
"179 177 OFFCURVE",
"192 177 CURVE SMOOTH",
"201 177 OFFCURVE",
"210 182 OFFCURVE",
"216 191 CURVE",
"220 200 OFFCURVE",
"224 220 OFFCURVE",
"225 228 CURVE SMOOTH",
"231 298 OFFCURVE",
"167 343 OFFCURVE",
"104 343 CURVE SMOOTH",
"78 343 OFFCURVE",
"52 335 OFFCURVE",
"31 318 CURVE SMOOTH",
"10 301 OFFCURVE",
"-6 276 OFFCURVE",
"-15 250 CURVE SMOOTH",
"-21 233 OFFCURVE",
"-23 217 OFFCURVE",
"-23 201 CURVE SMOOTH",
"-23 130 OFFCURVE",
"26 65 OFFCURVE",
"85 28 CURVE SMOOTH",
"133 -3 OFFCURVE",
"189 -20 OFFCURVE",
"245 -28 CURVE",
"243 -33 OFFCURVE",
"236 -47 OFFCURVE",
"231 -50 CURVE SMOOTH",
"227 -52 OFFCURVE",
"210 -55 OFFCURVE",
"201 -61 CURVE SMOOTH",
"196 -65 OFFCURVE",
"194 -70 OFFCURVE",
"194 -76 CURVE SMOOTH",
"194 -88 OFFCURVE",
"204 -101 OFFCURVE",
"220 -101 CURVE SMOOTH"
);
}
);
width = 784;
}
);
note = D;
unicode = 0044;
},
{
glyphname = E;
lastChange = "2021-11-11 14:10:08 +0000";
layers = (
{
anchors = (
{
name = bottom;
position = "{289, -19}";
},
{
name = ogonek;
position = "{561, 41}";
},
{
name = top;
position = "{344, 749}";
},
{
name = topleft;
position = "{20, 705}";
}
);
background = {
anchors = (
{
name = bottom;
position = "{322, -37}";
},
{
name = ogonek;
position = "{318, -37}";
},
{
name = top;
position = "{346, 752}";
},
{
name = topleft;
position = "{20, 705}";
}
);
paths = (
{
closed = 1;
nodes = (
"172 3 OFFCURVE",
"58 59 OFFCURVE",
"58 189 CURVE SMOOTH",
"58 269 OFFCURVE",
"121 334 OFFCURVE",
"194 370 CURVE",
"234 344 OFFCURVE",
"279 330 OFFCURVE",
"325 330 CURVE SMOOTH",
"398 330 OFFCURVE",
"435 355 OFFCURVE",
"435 389 CURVE SMOOTH",
"435 420 OFFCURVE",
"405 441 OFFCURVE",
"340 448 CURVE SMOOTH",
"295 452 OFFCURVE",
"243 441 OFFCURVE",
"201 426 CURVE",
"170 453 OFFCURVE",
"149 488 OFFCURVE",
"149 525 CURVE SMOOTH",
"149 642 OFFCURVE",
"245 687 OFFCURVE",
"351 687 CURVE SMOOTH",
"403 687 OFFCURVE",
"466 661 OFFCURVE",
"466 602 CURVE SMOOTH",
"466 591 OFFCURVE",
"462 578 OFFCURVE",
"456 569 CURVE SMOOTH",
"451 562 OFFCURVE",
"441 559 OFFCURVE",
"431 559 CURVE SMOOTH",
"416 559 OFFCURVE",
"401 566 OFFCURVE",
"399 574 CURVE",
"399 577 OFFCURVE",
"402 584 OFFCURVE",
"402 588 CURVE SMOOTH",
"403 610 OFFCURVE",
"393 619 OFFCURVE",
"382 619 CURVE SMOOTH",
"369 619 OFFCURVE",
"353 605 OFFCURVE",
"353 587 CURVE SMOOTH",
"353 542 OFFCURVE",
"394 507 OFFCURVE",
"436 507 CURVE SMOOTH",
"458 507 OFFCURVE",
"481 518 OFFCURVE",
"498 542 CURVE SMOOTH",
"511 560 OFFCURVE",
"517 583 OFFCURVE",
"517 605 CURVE SMOOTH",
"515 691 OFFCURVE",
"424 736 OFFCURVE",
"351 736 CURVE SMOOTH",
"222 736 OFFCURVE",
"99 671 OFFCURVE",
"99 524 CURVE SMOOTH",
"99 477 OFFCURVE",
"120 436 OFFCURVE",
"151 403 CURVE",
"72 359 OFFCURVE",
"11 285 OFFCURVE",
"11 188 CURVE SMOOTH",
"11 26 OFFCURVE",
"145 -46 OFFCURVE",
"284 -46 CURVE SMOOTH",
"426 -46 OFFCURVE",
"573 29 OFFCURVE",
"586 159 CURVE SMOOTH",
"587 168 OFFCURVE",
"587 177 OFFCURVE",
"587 186 CURVE SMOOTH",
"587 200 OFFCURVE",
"586 213 OFFCURVE",
"582 228 CURVE SMOOTH",
"571 268 OFFCURVE",
"538 305 OFFCURVE",
"491 305 CURVE SMOOTH",
"483 305 OFFCURVE",
"457 301 OFFCURVE",
"449 292 CURVE SMOOTH",
"439 281 OFFCURVE",
"435 273 OFFCURVE",
"435 267 CURVE SMOOTH",
"435 255 OFFCURVE",
"452 252 OFFCURVE",
"468 252 CURVE SMOOTH",
"481 252 OFFCURVE",
"493 254 OFFCURVE",
"492 254 CURVE SMOOTH",
"540 255 OFFCURVE",
"538 196 OFFCURVE",
"537 162 CURVE SMOOTH",
"536 141 OFFCURVE",
"527 120 OFFCURVE",
"516 102 CURVE SMOOTH",
"470 31 OFFCURVE",
"370 3 OFFCURVE",
"289 3 CURVE SMOOTH"
);
},
{
closed = 1;
nodes = (
"382 374 OFFCURVE",
"363 369 OFFCURVE",
"339 369 CURVE SMOOTH",
"301 369 OFFCURVE",
"251 381 OFFCURVE",
"239 396 CURVE",
"251 405 OFFCURVE",
"294 415 OFFCURVE",
"330 415 CURVE SMOOTH",
"361 415 OFFCURVE",
"387 408 OFFCURVE",
"384 387 CURVE SMOOTH"
);
}
);
};
layerId = "2ADFC918-CAA7-4AF7-825A-5AAC412EF250";
paths = (
{
closed = 1;
nodes = (
"426 -26 OFFCURVE",
"573 49 OFFCURVE",
"586 179 CURVE SMOOTH",
"587 188 OFFCURVE",
"587 197 OFFCURVE",
"587 206 CURVE SMOOTH",
"587 220 OFFCURVE",
"586 233 OFFCURVE",
"582 248 CURVE SMOOTH",
"571 288 OFFCURVE",
"538 325 OFFCURVE",
"491 325 CURVE SMOOTH",
"483 325 OFFCURVE",
"457 321 OFFCURVE",
"449 312 CURVE SMOOTH",
"439 301 OFFCURVE",
"435 293 OFFCURVE",
"435 287 CURVE SMOOTH",
"435 275 OFFCURVE",
"452 272 OFFCURVE",
"468 272 CURVE SMOOTH",
"483 272 OFFCURVE",
"496 274 OFFCURVE",
"493 274 CURVE SMOOTH",
"540 274 OFFCURVE",
"538 216 OFFCURVE",
"537 182 CURVE SMOOTH",
"536 161 OFFCURVE",
"527 140 OFFCURVE",
"516 122 CURVE SMOOTH",
"470 51 OFFCURVE",
"370 23 OFFCURVE",
"289 23 CURVE SMOOTH",
"172 23 OFFCURVE",
"58 79 OFFCURVE",
"58 209 CURVE SMOOTH",
"58 289 OFFCURVE",
"121 354 OFFCURVE",
"194 390 CURVE",
"234 364 OFFCURVE",
"279 350 OFFCURVE",
"325 350 CURVE SMOOTH",
"398 350 OFFCURVE",
"435 375 OFFCURVE",
"435 409 CURVE SMOOTH",
"435 440 OFFCURVE",
"405 461 OFFCURVE",
"340 468 CURVE SMOOTH",
"295 472 OFFCURVE",
"243 461 OFFCURVE",
"201 446 CURVE",
"170 473 OFFCURVE",
"149 508 OFFCURVE",
"149 545 CURVE SMOOTH",
"149 662 OFFCURVE",
"245 707 OFFCURVE",
"351 707 CURVE SMOOTH",
"403 707 OFFCURVE",
"466 681 OFFCURVE",
"466 622 CURVE SMOOTH",
"466 611 OFFCURVE",
"462 598 OFFCURVE",
"456 589 CURVE SMOOTH",
"451 582 OFFCURVE",
"441 579 OFFCURVE",
"431 579 CURVE SMOOTH",
"416 579 OFFCURVE",
"401 586 OFFCURVE",
"399 594 CURVE",
"399 597 OFFCURVE",
"402 604 OFFCURVE",
"402 608 CURVE SMOOTH",
"403 630 OFFCURVE",
"393 639 OFFCURVE",
"382 639 CURVE SMOOTH",
"369 639 OFFCURVE",
"353 625 OFFCURVE",
"353 607 CURVE SMOOTH",
"353 562 OFFCURVE",
"394 527 OFFCURVE",
"436 527 CURVE SMOOTH",
"458 527 OFFCURVE",
"481 538 OFFCURVE",
"498 562 CURVE SMOOTH",
"511 580 OFFCURVE",
"517 603 OFFCURVE",
"517 625 CURVE SMOOTH",
"515 711 OFFCURVE",
"424 756 OFFCURVE",
"351 756 CURVE SMOOTH",
"222 756 OFFCURVE",
"99 691 OFFCURVE",
"99 544 CURVE SMOOTH",
"99 497 OFFCURVE",
"120 456 OFFCURVE",
"151 423 CURVE",
"72 379 OFFCURVE",
"11 305 OFFCURVE",
"11 208 CURVE SMOOTH",
"11 46 OFFCURVE",
"145 -26 OFFCURVE",
"284 -26 CURVE SMOOTH"
);
},
{
closed = 1;
nodes = (
"301 389 OFFCURVE",
"251 401 OFFCURVE",
"239 416 CURVE",
"251 425 OFFCURVE",
"294 435 OFFCURVE",
"330 435 CURVE SMOOTH",
"359 435 OFFCURVE",
"384 429 OFFCURVE",
"384 410 CURVE SMOOTH",
"384 395 OFFCURVE",
"365 389 OFFCURVE",
"339 389 CURVE SMOOTH"
);
}
);
width = 589;
}
);
note = E;
unicode = 0045;
},
{
glyphname = F;
lastChange = "2021-11-11 00:11:46 +0000";
layers = (
{
background = {
paths = (
{
closed = 1;
nodes = (
"462 -66 OFFCURVE",
"550 61 OFFCURVE",
"578 247 CURVE SMOOTH",
"585 291 OFFCURVE",
"587 336 OFFCURVE",
"589 380 CURVE",
"719 380 LINE SMOOTH",
"735 380 OFFCURVE",
"742 392 OFFCURVE",
"742 405 CURVE SMOOTH",
"742 417 OFFCURVE",
"735 429 OFFCURVE",
"719 429 CURVE SMOOTH",
"592 429 LINE",
"594 481 OFFCURVE",
"598 562 OFFCURVE",
"631 596 CURVE",
"649 590 LINE SMOOTH",
"663 586 OFFCURVE",
"677 584 OFFCURVE",
"690 584 CURVE SMOOTH",
"713 584 OFFCURVE",
"733 592 OFFCURVE",
"741 615 CURVE",
"747 645 OFFCURVE",
"713 662 OFFCURVE",
"675 662 CURVE SMOOTH",
"657 662 OFFCURVE",
"638 658 OFFCURVE",
"623 650 CURVE",
"506 683 OFFCURVE",
"388 725 OFFCURVE",
"265 725 CURVE SMOOTH",
"127 725 OFFCURVE",
"59 627 OFFCURVE",
"59 540 CURVE SMOOTH",
"59 482 OFFCURVE",
"89 428 OFFCURVE",
"147 411 CURVE SMOOTH",
"155 409 OFFCURVE",
"164 408 OFFCURVE",
"172 408 CURVE SMOOTH",
"209 408 OFFCURVE",
"243 426 OFFCURVE",
"243 458 CURVE SMOOTH",
"243 480 OFFCURVE",
"231 489 OFFCURVE",
"220 489 CURVE SMOOTH",
"207 489 OFFCURVE",
"195 479 OFFCURVE",
"195 465 CURVE",
"193 460 OFFCURVE",
"184 458 OFFCURVE",
"174 458 CURVE SMOOTH",
"165 458 OFFCURVE",
"156 459 OFFCURVE",
"150 460 CURVE",
"123 470 OFFCURVE",
"108 501 OFFCURVE",
"108 537 CURVE SMOOTH",
"108 600 OFFCURVE",
"154 676 OFFCURVE",
"264 676 CURVE SMOOTH",
"372 676 OFFCURVE",
"477 642 OFFCURVE",
"580 610 CURVE",
"548 561 OFFCURVE",
"545 486 OFFCURVE",
"542 429 CURVE",
"408 429 LINE SMOOTH",
"392 429 OFFCURVE",
"384 417 OFFCURVE",
"384 405 CURVE SMOOTH",
"384 392 OFFCURVE",
"392 380 OFFCURVE",
"408 380 CURVE SMOOTH",
"540 380 LINE",
"528 184 OFFCURVE",
"496 -22 OFFCURVE",
"257 -33 CURVE SMOOTH",
"229 -34 OFFCURVE",
"198 -29 OFFCURVE",
"172 -21 CURVE SMOOTH",
"81 9 OFFCURVE",
"38 83 OFFCURVE",
"43 177 CURVE SMOOTH",
"48 261 OFFCURVE",
"123 318 OFFCURVE",
"187 318 CURVE SMOOTH",
"223 318 OFFCURVE",
"256 299 OFFCURVE",
"269 256 CURVE SMOOTH",
"281 215 OFFCURVE",
"279 200 OFFCURVE",
"306 200 CURVE SMOOTH",
"315 200 OFFCURVE",
"325 209 OFFCURVE",
"325 230 CURVE SMOOTH",
"325 240 OFFCURVE",
"323 252 OFFCURVE",
"317 267 CURVE SMOOTH",
"291 337 OFFCURVE",
"240 366 OFFCURVE",
"187 366 CURVE SMOOTH",
"97 366 OFFCURVE",
"0 286 OFFCURVE",
"-6 180 CURVE SMOOTH",
"-13 62 OFFCURVE",
"45 -32 OFFCURVE",
"159 -68 CURVE SMOOTH",
"191 -78 OFFCURVE",
"227 -83 OFFCURVE",
"260 -81 CURVE SMOOTH"
);
}
);
};
layerId = "2ADFC918-CAA7-4AF7-825A-5AAC412EF250";
paths = (
{
closed = 1;
nodes = (
"462 -46 OFFCURVE",
"550 81 OFFCURVE",
"578 267 CURVE SMOOTH",
"585 311 OFFCURVE",
"587 356 OFFCURVE",
"589 400 CURVE",
"719 400 LINE SMOOTH",
"735 400 OFFCURVE",
"742 412 OFFCURVE",
"742 425 CURVE SMOOTH",
"742 437 OFFCURVE",
"735 449 OFFCURVE",
"719 449 CURVE SMOOTH",
"592 449 LINE",
"594 501 OFFCURVE",
"598 582 OFFCURVE",
"631 616 CURVE",
"649 610 LINE SMOOTH",
"663 606 OFFCURVE",
"677 604 OFFCURVE",
"690 604 CURVE SMOOTH",
"713 604 OFFCURVE",
"733 612 OFFCURVE",
"741 635 CURVE",
"747 665 OFFCURVE",
"713 682 OFFCURVE",
"675 682 CURVE SMOOTH",
"657 682 OFFCURVE",
"638 678 OFFCURVE",
"623 670 CURVE",
"506 703 OFFCURVE",
"388 745 OFFCURVE",
"265 745 CURVE SMOOTH",
"127 745 OFFCURVE",
"59 647 OFFCURVE",
"59 560 CURVE SMOOTH",
"59 502 OFFCURVE",
"89 448 OFFCURVE",
"147 431 CURVE SMOOTH",
"155 429 OFFCURVE",
"164 428 OFFCURVE",
"172 428 CURVE SMOOTH",
"209 428 OFFCURVE",
"243 446 OFFCURVE",
"243 478 CURVE SMOOTH",
"243 500 OFFCURVE",
"231 509 OFFCURVE",
"220 509 CURVE SMOOTH",
"207 509 OFFCURVE",
"195 499 OFFCURVE",
"195 485 CURVE",
"193 480 OFFCURVE",
"184 478 OFFCURVE",
"174 478 CURVE SMOOTH",
"165 478 OFFCURVE",
"156 479 OFFCURVE",
"150 480 CURVE",
"123 490 OFFCURVE",
"108 521 OFFCURVE",
"108 557 CURVE SMOOTH",
"108 620 OFFCURVE",
"154 696 OFFCURVE",
"264 696 CURVE SMOOTH",
"372 696 OFFCURVE",
"477 662 OFFCURVE",
"580 630 CURVE",
"548 581 OFFCURVE",
"545 506 OFFCURVE",
"542 449 CURVE",
"408 449 LINE SMOOTH",
"392 449 OFFCURVE",
"384 437 OFFCURVE",
"384 425 CURVE SMOOTH",
"384 412 OFFCURVE",
"392 400 OFFCURVE",
"408 400 CURVE SMOOTH",
"540 400 LINE",
"528 204 OFFCURVE",
"496 -2 OFFCURVE",
"257 -13 CURVE SMOOTH",
"229 -14 OFFCURVE",
"198 -9 OFFCURVE",
"172 -1 CURVE SMOOTH",
"81 29 OFFCURVE",
"38 103 OFFCURVE",
"43 197 CURVE SMOOTH",
"48 281 OFFCURVE",
"123 338 OFFCURVE",
"187 338 CURVE SMOOTH",
"223 338 OFFCURVE",
"256 319 OFFCURVE",
"269 276 CURVE SMOOTH",
"281 235 OFFCURVE",
"279 220 OFFCURVE",
"306 220 CURVE SMOOTH",
"315 220 OFFCURVE",
"325 229 OFFCURVE",
"325 250 CURVE SMOOTH",
"325 260 OFFCURVE",
"323 272 OFFCURVE",
"317 287 CURVE SMOOTH",
"291 357 OFFCURVE",
"240 386 OFFCURVE",
"187 386 CURVE SMOOTH",
"97 386 OFFCURVE",
"0 306 OFFCURVE",
"-6 200 CURVE SMOOTH",
"-13 82 OFFCURVE",
"45 -12 OFFCURVE",
"159 -48 CURVE SMOOTH",
"191 -58 OFFCURVE",
"227 -63 OFFCURVE",
"260 -61 CURVE SMOOTH"
);
}
);
width = 740;
}
);
note = F;
unicode = 0046;
},
{
glyphname = G;
lastChange = "2021-11-11 14:10:08 +0000";
layers = (
{
anchors = (
{
name = bottom;
position = "{364, -194}";
},
{
name = top;
position = "{429, 720}";
}
);
background = {
anchors = (
{
name = bottom;
position = "{345, 0}";
},
{
name = top;
position = "{415, 752}";
}
);
paths = (
{
closed = 1;
nodes = (
"455 -209 OFFCURVE",
"528 -145 OFFCURVE",
"571 -64 CURVE",
"586 -66 OFFCURVE",
"622 -75 OFFCURVE",
"635 -82 CURVE SMOOTH",
"637 -83 LINE SMOOTH",
"642 -86 OFFCURVE",
"648 -87 OFFCURVE",
"654 -87 CURVE SMOOTH",
"668 -87 OFFCURVE",
"680 -80 OFFCURVE",
"680 -68 CURVE SMOOTH",
"680 -62 OFFCURVE",
"677 -54 OFFCURVE",
"669 -45 CURVE SMOOTH",
"666 -42 OFFCURVE",
"644 -33 OFFCURVE",
"642 -32 CURVE SMOOTH",
"625 -26 OFFCURVE",
"608 -21 OFFCURVE",
"590 -18 CURVE",
"606 27 OFFCURVE",
"611 73 OFFCURVE",
"612 120 CURVE",
"638 145 OFFCURVE",
"659 174 OFFCURVE",
"671 204 CURVE SMOOTH",
"679 226 OFFCURVE",
"690 262 OFFCURVE",
"690 295 CURVE SMOOTH",
"690 333 OFFCURVE",
"676 366 OFFCURVE",
"630 366 CURVE SMOOTH",
"580 366 OFFCURVE",
"561 324 OFFCURVE",
"556 280 CURVE SMOOTH",
"554 268 OFFCURVE",
"554 255 OFFCURVE",
"554 242 CURVE SMOOTH",
"554 207 OFFCURVE",
"559 171 OFFCURVE",
"561 135 CURVE",
"502 90 OFFCURVE",
"416 53 OFFCURVE",
"340 53 CURVE SMOOTH",
"201 53 OFFCURVE",
"76 147 OFFCURVE",
"62 289 CURVE SMOOTH",
"61 300 OFFCURVE",
"60 310 OFFCURVE",
"60 321 CURVE SMOOTH",
"60 409 OFFCURVE",
"97 490 OFFCURVE",
"155 552 CURVE",
"216 489 OFFCURVE",
"325 453 OFFCURVE",
"397 444 CURVE SMOOTH",
"419 441 OFFCURVE",
"445 439 OFFCURVE",
"473 439 CURVE SMOOTH",
"536 439 OFFCURVE",
"607 451 OFFCURVE",
"648 491 CURVE SMOOTH",
"660 503 OFFCURVE",
"672 521 OFFCURVE",
"676 538 CURVE SMOOTH",
"677 544 OFFCURVE",
"678 550 OFFCURVE",
"678 557 CURVE SMOOTH",
"678 574 OFFCURVE",
"674 593 OFFCURVE",
"667 607 CURVE SMOOTH",
"629 690 OFFCURVE",
"506 709 OFFCURVE",
"418 709 CURVE SMOOTH",
"404 709 OFFCURVE",
"391 709 OFFCURVE",
"379 708 CURVE SMOOTH",
"298 703 OFFCURVE",
"223 672 OFFCURVE",
"163 625 CURVE",
"161 630 OFFCURVE",
"159 634 OFFCURVE",
"158 639 CURVE SMOOTH",
"156 647 OFFCURVE",
"155 652 OFFCURVE",
"155 657 CURVE SMOOTH",
"155 670 OFFCURVE",
"163 672 OFFCURVE",
"163 694 CURVE SMOOTH",
"163 713 OFFCURVE",
"154 719 OFFCURVE",
"143 719 CURVE SMOOTH",
"132 719 OFFCURVE",
"120 712 OFFCURVE",
"115 705 CURVE SMOOTH",
"110 697 OFFCURVE",
"108 680 OFFCURVE",
"108 664 CURVE SMOOTH",
"108 653 OFFCURVE",
"109 642 OFFCURVE",
"110 636 CURVE SMOOTH",
"113 620 OFFCURVE",
"118 605 OFFCURVE",
"126 592 CURVE",
"55 521 OFFCURVE",
"11 425 OFFCURVE",
"11 320 CURVE SMOOTH",
"11 309 OFFCURVE",
"12 297 OFFCURVE",
"13 285 CURVE SMOOTH",
"30 115 OFFCURVE",
"176 4 OFFCURVE",
"340 4 CURVE SMOOTH",
"419 4 OFFCURVE",
"496 34 OFFCURVE",
"560 78 CURVE",
"557 48 OFFCURVE",
"548 14 OFFCURVE",
"536 -14 CURVE",
"488 -14 OFFCURVE",
"440 -23 OFFCURVE",
"395 -33 CURVE SMOOTH",
"364 -40 OFFCURVE",
"338 -46 OFFCURVE",
"310 -63 CURVE SMOOTH",
"269 -88 OFFCURVE",
"253 -118 OFFCURVE",
"253 -146 CURVE SMOOTH",
"253 -189 OFFCURVE",
"293 -225 OFFCURVE",
"344 -225 CURVE SMOOTH",
"350 -225 OFFCURVE",
"356 -225 OFFCURVE",
"362 -224 CURVE SMOOTH"
);
},
{
closed = 1;
nodes = (
"328 -172 OFFCURVE",
"308 -161 OFFCURVE",
"308 -146 CURVE SMOOTH",
"308 -139 OFFCURVE",
"312 -132 OFFCURVE",
"320 -124 CURVE SMOOTH",
"342 -102 OFFCURVE",
"378 -89 OFFCURVE",
"408 -79 CURVE SMOOTH",
"439 -69 OFFCURVE",
"475 -63 OFFCURVE",
"511 -61 CURVE",
"492 -92 OFFCURVE",
"467 -120 OFFCURVE",
"437 -142 CURVE SMOOTH",
"413 -159 OFFCURVE",
"388 -172 OFFCURVE",
"359 -172 CURVE SMOOTH"
);
},
{
closed = 1;
nodes = (
"613 216 OFFCURVE",
"613 239 OFFCURVE",
"614 263 CURVE SMOOTH",
"614 267 OFFCURVE",
"614 285 OFFCURVE",
"618 301 CURVE SMOOTH",
"619 307 OFFCURVE",
"620 313 OFFCURVE",
"627 313 CURVE SMOOTH",
"629 313 OFFCURVE",
"633 312 OFFCURVE",
"637 310 CURVE",
"639 281 OFFCURVE",
"628 218 OFFCURVE",
"613 192 CURVE"
);
},
{
closed = 1;
nodes = (
"459 489 OFFCURVE",
"431 491 OFFCURVE",
"403 494 CURVE SMOOTH",
"347 501 OFFCURVE",
"247 536 OFFCURVE",
"193 586 CURVE",
"259 639 OFFCURVE",
"337 661 OFFCURVE",
"418 661 CURVE SMOOTH",
"436 661 OFFCURVE",
"454 660 OFFCURVE",
"472 658 CURVE SMOOTH",
"520 653 OFFCURVE",
"627 633 OFFCURVE",
"627 557 CURVE SMOOTH",
"627 553 OFFCURVE",
"627 548 OFFCURVE",
"626 543 CURVE SMOOTH",
"620 501 OFFCURVE",
"509 491 OFFCURVE",
"487 490 CURVE SMOOTH"
);
}
);
};
layerId = "2ADFC918-CAA7-4AF7-825A-5AAC412EF250";
paths = (
{
closed = 1;
nodes = (
"350 -205 OFFCURVE",
"356 -205 OFFCURVE",
"362 -204 CURVE SMOOTH",
"455 -189 OFFCURVE",
"528 -125 OFFCURVE",
"571 -44 CURVE",
"586 -46 OFFCURVE",
"622 -55 OFFCURVE",
"635 -62 CURVE SMOOTH",
"637 -63 LINE SMOOTH",
"642 -66 OFFCURVE",
"648 -67 OFFCURVE",
"654 -67 CURVE SMOOTH",
"668 -67 OFFCURVE",
"680 -60 OFFCURVE",
"680 -48 CURVE SMOOTH",
"680 -42 OFFCURVE",
"677 -34 OFFCURVE",
"669 -25 CURVE SMOOTH",
"666 -22 OFFCURVE",
"644 -13 OFFCURVE",
"642 -12 CURVE SMOOTH",
"625 -6 OFFCURVE",
"608 -1 OFFCURVE",
"590 2 CURVE",
"606 47 OFFCURVE",
"611 93 OFFCURVE",
"612 140 CURVE",
"638 165 OFFCURVE",
"659 194 OFFCURVE",
"671 224 CURVE SMOOTH",
"679 246 OFFCURVE",
"690 282 OFFCURVE",
"690 315 CURVE SMOOTH",
"690 353 OFFCURVE",
"676 386 OFFCURVE",
"630 386 CURVE SMOOTH",
"580 386 OFFCURVE",
"561 344 OFFCURVE",
"556 300 CURVE SMOOTH",
"554 288 OFFCURVE",
"554 275 OFFCURVE",
"554 262 CURVE SMOOTH",
"554 227 OFFCURVE",
"559 191 OFFCURVE",
"561 155 CURVE",
"502 110 OFFCURVE",
"416 73 OFFCURVE",
"340 73 CURVE SMOOTH",
"201 73 OFFCURVE",
"76 167 OFFCURVE",
"62 309 CURVE SMOOTH",
"61 320 OFFCURVE",
"60 330 OFFCURVE",
"60 341 CURVE SMOOTH",
"60 429 OFFCURVE",
"97 510 OFFCURVE",
"155 572 CURVE",
"216 509 OFFCURVE",
"325 473 OFFCURVE",
"397 464 CURVE SMOOTH",
"419 461 OFFCURVE",
"445 459 OFFCURVE",
"473 459 CURVE SMOOTH",
"536 459 OFFCURVE",
"607 471 OFFCURVE",
"648 511 CURVE SMOOTH",
"660 523 OFFCURVE",
"672 541 OFFCURVE",
"676 558 CURVE SMOOTH",
"677 564 OFFCURVE",
"678 570 OFFCURVE",
"678 577 CURVE SMOOTH",
"678 594 OFFCURVE",
"674 613 OFFCURVE",
"667 627 CURVE SMOOTH",
"629 710 OFFCURVE",
"506 729 OFFCURVE",
"418 729 CURVE SMOOTH",
"404 729 OFFCURVE",
"391 729 OFFCURVE",
"379 728 CURVE SMOOTH",
"298 723 OFFCURVE",
"223 692 OFFCURVE",
"163 645 CURVE",
"161 650 OFFCURVE",
"159 654 OFFCURVE",
"158 659 CURVE SMOOTH",
"156 667 OFFCURVE",
"155 672 OFFCURVE",
"155 677 CURVE SMOOTH",
"155 690 OFFCURVE",
"163 692 OFFCURVE",
"163 714 CURVE SMOOTH",
"163 733 OFFCURVE",
"154 739 OFFCURVE",
"143 739 CURVE SMOOTH",
"132 739 OFFCURVE",
"120 732 OFFCURVE",
"115 725 CURVE SMOOTH",
"110 717 OFFCURVE",
"108 700 OFFCURVE",
"108 684 CURVE SMOOTH",
"108 673 OFFCURVE",
"109 662 OFFCURVE",
"110 656 CURVE SMOOTH",
"113 640 OFFCURVE",
"118 625 OFFCURVE",
"126 612 CURVE",
"55 541 OFFCURVE",
"11 445 OFFCURVE",
"11 340 CURVE SMOOTH",
"11 329 OFFCURVE",
"12 317 OFFCURVE",
"13 305 CURVE SMOOTH",
"30 135 OFFCURVE",
"176 24 OFFCURVE",
"340 24 CURVE SMOOTH",
"419 24 OFFCURVE",
"496 54 OFFCURVE",
"560 98 CURVE",
"557 68 OFFCURVE",
"548 34 OFFCURVE",
"536 6 CURVE",
"488 6 OFFCURVE",
"440 -3 OFFCURVE",
"395 -13 CURVE SMOOTH",
"364 -20 OFFCURVE",
"338 -26 OFFCURVE",
"310 -43 CURVE SMOOTH",
"269 -68 OFFCURVE",
"253 -98 OFFCURVE",
"253 -126 CURVE SMOOTH",
"253 -169 OFFCURVE",
"293 -205 OFFCURVE",
"344 -205 CURVE SMOOTH"
);
},
{
closed = 1;
nodes = (
"328 -152 OFFCURVE",
"308 -141 OFFCURVE",
"308 -126 CURVE SMOOTH",
"308 -119 OFFCURVE",
"312 -112 OFFCURVE",
"320 -104 CURVE SMOOTH",
"342 -82 OFFCURVE",
"378 -69 OFFCURVE",
"408 -59 CURVE SMOOTH",
"439 -49 OFFCURVE",
"475 -43 OFFCURVE",
"511 -41 CURVE",
"492 -72 OFFCURVE",
"467 -100 OFFCURVE",
"437 -122 CURVE SMOOTH",
"413 -139 OFFCURVE",
"388 -152 OFFCURVE",
"359 -152 CURVE SMOOTH"
);
},
{
closed = 1;
nodes = (
"613 236 OFFCURVE",
"613 259 OFFCURVE",
"614 283 CURVE SMOOTH",
"614 287 OFFCURVE",
"614 305 OFFCURVE",
"618 321 CURVE SMOOTH",
"619 327 OFFCURVE",
"620 333 OFFCURVE",
"627 333 CURVE SMOOTH",
"629 333 OFFCURVE",
"633 332 OFFCURVE",
"637 330 CURVE",
"639 301 OFFCURVE",
"628 238 OFFCURVE",
"613 212 CURVE"
);
},
{
closed = 1;
nodes = (
"459 509 OFFCURVE",
"431 511 OFFCURVE",
"403 514 CURVE SMOOTH",
"347 521 OFFCURVE",
"247 556 OFFCURVE",
"193 606 CURVE",
"259 659 OFFCURVE",
"337 681 OFFCURVE",
"418 681 CURVE SMOOTH",
"436 681 OFFCURVE",
"454 680 OFFCURVE",
"472 678 CURVE SMOOTH",
"520 673 OFFCURVE",
"627 653 OFFCURVE",
"627 577 CURVE SMOOTH",
"627 573 OFFCURVE",
"627 568 OFFCURVE",
"626 563 CURVE SMOOTH",
"620 521 OFFCURVE",
"509 511 OFFCURVE",
"487 510 CURVE SMOOTH"
);
}
);
width = 690;
}
);
note = G;
unicode = 0047;
},
{
glyphname = H;
lastChange = "2021-11-11 14:10:08 +0000";
layers = (
{
anchors = (
{
name = bottom;
position = "{541, 0}";
},
{
name = center;
position = "{541, 353}";
},
{
name = top;
position = "{810, 705}";
},
{
name = topleft;
position = "{20, 705}";
}
);
background = {
paths = (
{
closed = 1;
nodes = (
"554 -104 OFFCURVE",
"634 115 OFFCURVE",
"644 320 CURVE",
"968 320 LINE",
"968 316 LINE SMOOTH",
"968 239 OFFCURVE",
"971 -10 OFFCURVE",
"1057 -47 CURVE SMOOTH",
"1063 -50 OFFCURVE",
"1077 -53 OFFCURVE",
"1088 -53 CURVE SMOOTH",
"1092 -53 OFFCURVE",
"1096 -53 OFFCURVE",
"1099 -52 CURVE SMOOTH",
"1112 -47 OFFCURVE",
"1118 -40 OFFCURVE",
"1118 -33 CURVE SMOOTH",
"1118 -20 OFFCURVE",
"1099 -7 OFFCURVE",
"1082 -6 CURVE",
"1079 -11 OFFCURVE",
"1078 -11 OFFCURVE",
"1075 -9 CURVE SMOOTH",
"1071 -5 OFFCURVE",
"1066 3 OFFCURVE",
"1062 13 CURVE SMOOTH",
"1024 96 OFFCURVE",
"1018 227 OFFCURVE",
"1018 316 CURVE SMOOTH",
"1018 380 OFFCURVE",
"1050 654 OFFCURVE",
"1105 675 CURVE",
"1107 675 OFFCURVE",
"1108 676 OFFCURVE",
"1108 677 CURVE",
"1109 677 LINE",
"1112 674 OFFCURVE",
"1115 674 OFFCURVE",
"1118 674 CURVE SMOOTH",
"1123 674 LINE SMOOTH",
"1142 674 OFFCURVE",
"1148 682 OFFCURVE",
"1148 691 CURVE SMOOTH",
"1148 703 OFFCURVE",
"1139 716 OFFCURVE",
"1131 722 CURVE",
"1000 727 OFFCURVE",
"977 464 OFFCURVE",
"971 370 CURVE",
"646 370 LINE",
"645 469 OFFCURVE",
"636 636 OFFCURVE",
"535 691 CURVE SMOOTH",
"525 696 OFFCURVE",
"494 709 OFFCURVE",
"478 709 CURVE SMOOTH",
"466 709 OFFCURVE",
"448 697 OFFCURVE",
"448 682 CURVE SMOOTH",
"448 674 OFFCURVE",
"454 665 OFFCURVE",
"471 660 CURVE SMOOTH",
"480 657 OFFCURVE",
"485 657 OFFCURVE",
"490 657 CURVE SMOOTH",
"496 657 OFFCURVE",
"503 657 OFFCURVE",
"517 647 CURVE SMOOTH",
"581 605 OFFCURVE",
"597 464 OFFCURVE",
"597 373 CURVE SMOOTH",
"597 360 OFFCURVE",
"596 349 OFFCURVE",
"596 339 CURVE SMOOTH",
"586 153 OFFCURVE",
"527 -55 OFFCURVE",
"306 -55 CURVE SMOOTH",
"174 -55 OFFCURVE",
"87 26 OFFCURVE",
"87 148 CURVE SMOOTH",
"87 164 OFFCURVE",
"89 181 OFFCURVE",
"92 199 CURVE SMOOTH",
"105 270 OFFCURVE",
"191 324 OFFCURVE",
"265 324 CURVE SMOOTH",
"305 324 OFFCURVE",
"341 308 OFFCURVE",
"361 271 CURVE SMOOTH",
"369 257 OFFCURVE",
"373 241 OFFCURVE",
"373 225 CURVE SMOOTH",
"373 200 OFFCURVE",
"362 176 OFFCURVE",
"336 165 CURVE SMOOTH",
"326 160 OFFCURVE",
"322 159 OFFCURVE",
"320 159 CURVE SMOOTH",
"319 159 LINE SMOOTH",
"315 160 OFFCURVE",
"312 161 OFFCURVE",
"308 161 CURVE SMOOTH",
"302 161 OFFCURVE",
"296 159 OFFCURVE",
"290 158 CURVE SMOOTH",
"272 154 OFFCURVE",
"264 144 OFFCURVE",
"264 134 CURVE SMOOTH",
"264 121 OFFCURVE",
"278 108 OFFCURVE",
"298 108 CURVE SMOOTH",
"312 108 OFFCURVE",
"331 111 OFFCURVE",
"339 113 CURVE SMOOTH",
"393 128 OFFCURVE",
"422 178 OFFCURVE",
"422 229 CURVE SMOOTH",
"422 252 OFFCURVE",
"416 275 OFFCURVE",
"403 295 CURVE SMOOTH",
"368 350 OFFCURVE",
"315 374 OFFCURVE",
"259 374 CURVE SMOOTH",
"164 374 OFFCURVE",
"63 304 OFFCURVE",
"43 208 CURVE SMOOTH",
"39 187 OFFCURVE",
"37 166 OFFCURVE",
"37 146 CURVE SMOOTH",
"37 50 OFFCURVE",
"83 -31 OFFCURVE",
"178 -76 CURVE SMOOTH",
"218 -95 OFFCURVE",
"262 -104 OFFCURVE",
"306 -104 CURVE SMOOTH"
);
}
);
};
layerId = "2ADFC918-CAA7-4AF7-825A-5AAC412EF250";
paths = (
{
closed = 1;
nodes = (
"554 -84 OFFCURVE",
"634 135 OFFCURVE",
"644 340 CURVE",
"968 340 LINE",
"968 336 LINE SMOOTH",
"968 259 OFFCURVE",
"971 10 OFFCURVE",
"1057 -27 CURVE SMOOTH",
"1063 -30 OFFCURVE",
"1077 -33 OFFCURVE",
"1088 -33 CURVE SMOOTH",
"1092 -33 OFFCURVE",
"1096 -33 OFFCURVE",
"1099 -32 CURVE SMOOTH",
"1112 -27 OFFCURVE",
"1118 -20 OFFCURVE",
"1118 -13 CURVE SMOOTH",
"1118 0 OFFCURVE",
"1099 13 OFFCURVE",
"1082 14 CURVE",
"1079 9 OFFCURVE",
"1078 9 OFFCURVE",
"1075 11 CURVE SMOOTH",
"1071 15 OFFCURVE",
"1066 23 OFFCURVE",
"1062 33 CURVE SMOOTH",
"1024 116 OFFCURVE",
"1018 247 OFFCURVE",
"1018 336 CURVE SMOOTH",
"1018 400 OFFCURVE",
"1050 674 OFFCURVE",
"1105 695 CURVE",
"1107 695 OFFCURVE",
"1108 696 OFFCURVE",
"1108 697 CURVE",
"1109 697 LINE",
"1112 694 OFFCURVE",
"1115 694 OFFCURVE",
"1118 694 CURVE SMOOTH",
"1123 694 LINE SMOOTH",
"1142 694 OFFCURVE",
"1148 702 OFFCURVE",
"1148 711 CURVE SMOOTH",
"1148 723 OFFCURVE",
"1139 736 OFFCURVE",
"1131 742 CURVE",
"1000 747 OFFCURVE",
"977 484 OFFCURVE",
"971 390 CURVE",
"646 390 LINE",
"645 489 OFFCURVE",
"636 656 OFFCURVE",
"535 711 CURVE SMOOTH",
"525 716 OFFCURVE",
"494 729 OFFCURVE",
"478 729 CURVE SMOOTH",
"466 729 OFFCURVE",
"448 717 OFFCURVE",
"448 702 CURVE SMOOTH",
"448 694 OFFCURVE",
"454 685 OFFCURVE",
"471 680 CURVE SMOOTH",
"480 677 OFFCURVE",
"485 677 OFFCURVE",
"490 677 CURVE SMOOTH",
"496 677 OFFCURVE",
"503 677 OFFCURVE",
"517 667 CURVE SMOOTH",
"581 625 OFFCURVE",
"597 484 OFFCURVE",
"597 393 CURVE SMOOTH",
"597 380 OFFCURVE",
"596 369 OFFCURVE",
"596 359 CURVE SMOOTH",
"586 173 OFFCURVE",
"527 -35 OFFCURVE",
"306 -35 CURVE SMOOTH",
"174 -35 OFFCURVE",
"87 46 OFFCURVE",
"87 168 CURVE SMOOTH",
"87 184 OFFCURVE",
"89 201 OFFCURVE",
"92 219 CURVE SMOOTH",
"105 290 OFFCURVE",
"191 344 OFFCURVE",
"265 344 CURVE SMOOTH",
"305 344 OFFCURVE",
"341 328 OFFCURVE",
"361 291 CURVE SMOOTH",
"369 277 OFFCURVE",
"373 261 OFFCURVE",
"373 245 CURVE SMOOTH",
"373 220 OFFCURVE",
"362 196 OFFCURVE",
"336 185 CURVE SMOOTH",
"326 180 OFFCURVE",
"322 179 OFFCURVE",
"320 179 CURVE SMOOTH",
"319 179 LINE SMOOTH",
"315 179 OFFCURVE",
"312 181 OFFCURVE",
"308 181 CURVE SMOOTH",
"302 181 OFFCURVE",
"296 179 OFFCURVE",
"290 178 CURVE SMOOTH",
"272 174 OFFCURVE",
"264 164 OFFCURVE",
"264 154 CURVE SMOOTH",
"264 141 OFFCURVE",
"278 128 OFFCURVE",
"298 128 CURVE SMOOTH",
"312 128 OFFCURVE",
"331 131 OFFCURVE",
"339 133 CURVE SMOOTH",
"393 148 OFFCURVE",
"422 198 OFFCURVE",
"422 249 CURVE SMOOTH",
"422 272 OFFCURVE",
"416 295 OFFCURVE",
"403 315 CURVE SMOOTH",
"368 370 OFFCURVE",
"315 394 OFFCURVE",
"259 394 CURVE SMOOTH",
"164 394 OFFCURVE",
"63 324 OFFCURVE",
"43 228 CURVE SMOOTH",
"39 207 OFFCURVE",
"37 186 OFFCURVE",
"37 166 CURVE SMOOTH",
"37 70 OFFCURVE",
"83 -11 OFFCURVE",
"178 -56 CURVE SMOOTH",
"218 -75 OFFCURVE",
"262 -84 OFFCURVE",
"306 -84 CURVE SMOOTH"
);
}
);
width = 1082;
}
);
note = H;
unicode = 0048;
},
{
glyphname = Hbar;
lastChange = "2021-11-11 14:10:08 +0000";
layers = (
{
anchors = (
{
name = bottom;
position = "{541, 0}";
},
{
name = center;
position = "{541, 353}";
},
{
name = top;
position = "{810, 705}";
},
{
name = topleft;
position = "{20, 705}";
}
);
background = {
components = (
{
name = H;
},
{
name = emdash;
transform = "{1.13239, 0, 0, 1, 464, 284}";
}
);
};
layerId = "2ADFC918-CAA7-4AF7-825A-5AAC412EF250";
paths = (
{
closed = 1;
nodes = (
"554 -84 OFFCURVE",
"634 135 OFFCURVE",
"644 340 CURVE",
"968 340 LINE",
"968 336 LINE SMOOTH",
"968 259 OFFCURVE",
"971 10 OFFCURVE",
"1057 -27 CURVE SMOOTH",
"1063 -30 OFFCURVE",
"1077 -33 OFFCURVE",
"1088 -33 CURVE SMOOTH",
"1092 -33 OFFCURVE",
"1096 -33 OFFCURVE",
"1099 -32 CURVE SMOOTH",
"1112 -27 OFFCURVE",
"1118 -20 OFFCURVE",
"1118 -13 CURVE SMOOTH",
"1118 0 OFFCURVE",
"1099 13 OFFCURVE",
"1082 14 CURVE",
"1079 9 OFFCURVE",
"1078 9 OFFCURVE",
"1075 11 CURVE SMOOTH",
"1071 15 OFFCURVE",
"1066 23 OFFCURVE",
"1062 33 CURVE SMOOTH",
"1024 116 OFFCURVE",
"1018 247 OFFCURVE",
"1018 336 CURVE SMOOTH",
"1018 400 OFFCURVE",
"1050 674 OFFCURVE",
"1105 695 CURVE",
"1107 695 OFFCURVE",
"1108 696 OFFCURVE",
"1108 697 CURVE",
"1109 697 LINE",
"1112 694 OFFCURVE",
"1115 694 OFFCURVE",
"1118 694 CURVE SMOOTH",
"1123 694 LINE SMOOTH",
"1142 694 OFFCURVE",
"1148 702 OFFCURVE",
"1148 711 CURVE SMOOTH",
"1148 723 OFFCURVE",
"1139 736 OFFCURVE",
"1131 742 CURVE",
"1000 747 OFFCURVE",
"977 484 OFFCURVE",
"971 390 CURVE",
"646 390 LINE",
"645 489 OFFCURVE",
"636 656 OFFCURVE",
"535 711 CURVE SMOOTH",
"525 716 OFFCURVE",
"494 729 OFFCURVE",
"478 729 CURVE SMOOTH",
"466 729 OFFCURVE",
"448 717 OFFCURVE",
"448 702 CURVE SMOOTH",
"448 694 OFFCURVE",
"454 685 OFFCURVE",
"471 680 CURVE SMOOTH",
"480 677 OFFCURVE",
"485 677 OFFCURVE",
"490 677 CURVE SMOOTH",
"496 677 OFFCURVE",
"503 677 OFFCURVE",
"517 667 CURVE SMOOTH",
"581 625 OFFCURVE",
"597 484 OFFCURVE",
"597 393 CURVE SMOOTH",
"597 380 OFFCURVE",
"596 369 OFFCURVE",
"596 359 CURVE SMOOTH",
"586 173 OFFCURVE",
"527 -35 OFFCURVE",
"306 -35 CURVE SMOOTH",
"174 -35 OFFCURVE",
"87 46 OFFCURVE",
"87 168 CURVE SMOOTH",
"87 184 OFFCURVE",
"89 201 OFFCURVE",
"92 219 CURVE SMOOTH",
"105 290 OFFCURVE",
"191 344 OFFCURVE",
"265 344 CURVE SMOOTH",
"305 344 OFFCURVE",
"341 328 OFFCURVE",
"361 291 CURVE SMOOTH",
"369 277 OFFCURVE",
"373 261 OFFCURVE",
"373 245 CURVE SMOOTH",
"373 220 OFFCURVE",
"362 196 OFFCURVE",
"336 185 CURVE SMOOTH",
"326 180 OFFCURVE",
"322 179 OFFCURVE",
"320 179 CURVE SMOOTH",
"319 179 LINE SMOOTH",
"315 179 OFFCURVE",
"312 181 OFFCURVE",
"308 181 CURVE SMOOTH",
"302 181 OFFCURVE",
"296 179 OFFCURVE",
"290 178 CURVE SMOOTH",
"272 174 OFFCURVE",
"264 164 OFFCURVE",
"264 154 CURVE SMOOTH",
"264 141 OFFCURVE",
"278 128 OFFCURVE",
"298 128 CURVE SMOOTH",
"312 128 OFFCURVE",
"331 131 OFFCURVE",
"339 133 CURVE SMOOTH",
"393 148 OFFCURVE",
"422 198 OFFCURVE",
"422 249 CURVE SMOOTH",
"422 272 OFFCURVE",
"416 295 OFFCURVE",
"403 315 CURVE SMOOTH",
"368 370 OFFCURVE",
"315 394 OFFCURVE",
"259 394 CURVE SMOOTH",
"164 394 OFFCURVE",
"63 324 OFFCURVE",
"43 228 CURVE SMOOTH",
"39 207 OFFCURVE",
"37 186 OFFCURVE",
"37 166 CURVE SMOOTH",
"37 70 OFFCURVE",
"83 -11 OFFCURVE",
"178 -56 CURVE SMOOTH",
"218 -75 OFFCURVE",
"262 -84 OFFCURVE",
"306 -84 CURVE SMOOTH"
);
},
{
closed = 1;
nodes = (
"600 514 OFFCURVE",
"739 525 OFFCURVE",
"788.996 526 CURVE SMOOTH",
"856 527 OFFCURVE",
"991 531 OFFCURVE",
"1028 531 CURVE SMOOTH",
"1048 531 OFFCURVE",
"1066 526 OFFCURVE",
"1087 526 CURVE SMOOTH",
"1097.006 526 OFFCURVE",
"1104 534 OFFCURVE",
"1104 546 CURVE SMOOTH",
"1104 558 OFFCURVE",
"1097.006 565 OFFCURVE",
"1088 568 CURVE SMOOTH",
"1071 572 OFFCURVE",
"1053 572 OFFCURVE",
"1036 572 CURVE SMOOTH",
"950 572 OFFCURVE",
"655 556 OFFCURVE",
"569 556 CURVE SMOOTH",
"556 556 OFFCURVE",
"538 572 OFFCURVE",
"525 572 CURVE SMOOTH",
"515 572 OFFCURVE",
"505 563 OFFCURVE",
"505 551 CURVE SMOOTH",
"505 527 OFFCURVE",
"539 514 OFFCURVE",
"551 514 CURVE SMOOTH"
);
}
);
width = 1082;
}
);
unicode = 0126;
},
{
glyphname = I;
lastChange = "2021-11-11 14:10:08 +0000";
layers = (
{
anchors = (
{
name = bottom;
position = "{169, -125}";
},
{
name = ogonek;
position = "{282, -105}";
},
{
name = top;
position = "{535, 705}";
},
{
name = topleft;
position = "{20, 705}";
}
);
background = {
anchors = (
{
name = bottom;
position = "{184, -98}";
},
{
name = ogonek;
position = "{215, -139}";
},
{
name = top;
position = "{583, 752}";
},
{
name = topleft;
position = "{20, 705}";
}
);
paths = (
{
closed = 1;
nodes = (
"185 -147 LINE SMOOTH",
"457 -147 OFFCURVE",
"511 116 OFFCURVE",
"518 319 CURVE",
"527 326 OFFCURVE",
"535 334 OFFCURVE",
"543 343 CURVE SMOOTH",
"553 354 OFFCURVE",
"578 389 OFFCURVE",
"581 403 CURVE SMOOTH",
"585 422 OFFCURVE",
"574 436 OFFCURVE",
"560 436 CURVE SMOOTH",
"552 436 OFFCURVE",
"544 432 OFFCURVE",
"537 424 CURVE SMOOTH",
"533 419 OFFCURVE",
"531 415 OFFCURVE",
"530 411 CURVE",
"526 404 OFFCURVE",
"523 398 OFFCURVE",
"518 392 CURVE",
"518 473 LINE SMOOTH",
"518 525 OFFCURVE",
"530 597 OFFCURVE",
"567 641 CURVE",
"578 642 OFFCURVE",
"589 640 OFFCURVE",
"600 642 CURVE SMOOTH",
"613 644 LINE SMOOTH",
"635 647 OFFCURVE",
"646 666 OFFCURVE",
"646 684 CURVE SMOOTH",
"646 703 OFFCURVE",
"634 721 OFFCURVE",
"609 721 CURVE SMOOTH",
"605 721 OFFCURVE",
"600 720 OFFCURVE",
"595 719 CURVE SMOOTH",
"580 716 OFFCURVE",
"555 698 OFFCURVE",
"543 687 CURVE",
"448 672 OFFCURVE",
"346 620 OFFCURVE",
"302 536 CURVE SMOOTH",
"283 499 OFFCURVE",
"275 466 OFFCURVE",
"275 435 CURVE SMOOTH",
"275 345 OFFCURVE",
"347 287 OFFCURVE",
"424 287 CURVE SMOOTH",
"438 287 OFFCURVE",
"452 289 OFFCURVE",
"466 293 CURVE",
"455 134 OFFCURVE",
"411 -98 OFFCURVE",
"184 -98 CURVE SMOOTH",
"63 -98 OFFCURVE",
"-41 -28 OFFCURVE",
"-41 82 CURVE SMOOTH",
"-41 104 OFFCURVE",
"-37 127 OFFCURVE",
"-28 152 CURVE SMOOTH",
"-6 215 OFFCURVE",
"63 263 OFFCURVE",
"131 263 CURVE SMOOTH",
"147 263 OFFCURVE",
"162 260 OFFCURVE",
"177 255 CURVE SMOOTH",
"192 249 OFFCURVE",
"211 237 OFFCURVE",
"220 225 CURVE SMOOTH",
"236 203 OFFCURVE",
"233 199 OFFCURVE",
"238 176 CURVE SMOOTH",
"242 157 OFFCURVE",
"252 149 OFFCURVE",
"261 149 CURVE SMOOTH",
"272 149 OFFCURVE",
"282 161 OFFCURVE",
"282 178 CURVE SMOOTH",
"282 204 OFFCURVE",
"270 237 OFFCURVE",
"255 257 CURVE SMOOTH",
"236 284 OFFCURVE",
"206 301 OFFCURVE",
"175 308 CURVE SMOOTH",
"161 311 OFFCURVE",
"148 313 OFFCURVE",
"134 313 CURVE SMOOTH",
"45 313 OFFCURVE",
"-47 252 OFFCURVE",
"-76 169 CURVE SMOOTH",
"-87 139 OFFCURVE",
"-91 111 OFFCURVE",
"-91 84 CURVE SMOOTH",
"-91 -54 OFFCURVE",
"38 -147 OFFCURVE",
"184 -147 CURVE SMOOTH"
);
},
{
closed = 1;
nodes = (
"452 340 OFFCURVE",
"435 336 OFFCURVE",
"419 336 CURVE SMOOTH",
"370 336 OFFCURVE",
"326 370 OFFCURVE",
"326 434 CURVE SMOOTH",
"326 461 OFFCURVE",
"335 488 OFFCURVE",
"347 513 CURVE SMOOTH",
"372 566 OFFCURVE",
"440 607 OFFCURVE",
"500 627 CURVE",
"477 579 OFFCURVE",
"469 522 OFFCURVE",
"469 473 CURVE SMOOTH",
"469 431 OFFCURVE",
"469 389 OFFCURVE",
"468 348 CURVE"
);
}
);
};
layerId = "2ADFC918-CAA7-4AF7-825A-5AAC412EF250";
paths = (
{
closed = 1;
nodes = (
"185 -127 LINE SMOOTH",
"457 -127 OFFCURVE",
"511 136 OFFCURVE",
"518 339 CURVE",
"527 346 OFFCURVE",
"535 354 OFFCURVE",
"543 363 CURVE SMOOTH",
"553 374 OFFCURVE",
"578 409 OFFCURVE",
"581 423 CURVE SMOOTH",
"585 442 OFFCURVE",
"574 456 OFFCURVE",
"560 456 CURVE SMOOTH",
"552 456 OFFCURVE",
"544 452 OFFCURVE",
"537 444 CURVE SMOOTH",
"533 439 OFFCURVE",
"531 435 OFFCURVE",
"530 431 CURVE",
"526 424 OFFCURVE",
"523 418 OFFCURVE",
"518 412 CURVE",
"518 493 LINE SMOOTH",
"518 545 OFFCURVE",
"530 617 OFFCURVE",
"567 661 CURVE",
"578 662 OFFCURVE",
"589 660 OFFCURVE",
"600 662 CURVE SMOOTH",
"613 664 LINE SMOOTH",
"635 667 OFFCURVE",
"646 686 OFFCURVE",
"646 704 CURVE SMOOTH",
"646 723 OFFCURVE",
"634 741 OFFCURVE",
"609 741 CURVE SMOOTH",
"605 741 OFFCURVE",
"600 740 OFFCURVE",
"595 739 CURVE SMOOTH",
"580 736 OFFCURVE",
"555 718 OFFCURVE",
"543 707 CURVE",
"448 692 OFFCURVE",
"346 640 OFFCURVE",
"302 556 CURVE SMOOTH",
"283 519 OFFCURVE",
"275 486 OFFCURVE",
"275 455 CURVE SMOOTH",
"275 365 OFFCURVE",
"347 307 OFFCURVE",
"424 307 CURVE SMOOTH",
"438 307 OFFCURVE",
"452 309 OFFCURVE",
"466 313 CURVE",
"455 154 OFFCURVE",
"411 -78 OFFCURVE",
"184 -78 CURVE SMOOTH",
"63 -78 OFFCURVE",
"-41 -8 OFFCURVE",
"-41 102 CURVE SMOOTH",
"-41 124 OFFCURVE",
"-37 147 OFFCURVE",
"-28 172 CURVE SMOOTH",
"-6 235 OFFCURVE",
"63 283 OFFCURVE",
"131 283 CURVE SMOOTH",
"147 283 OFFCURVE",
"162 280 OFFCURVE",
"177 275 CURVE SMOOTH",
"192 269 OFFCURVE",
"211 257 OFFCURVE",
"220 245 CURVE SMOOTH",
"236 223 OFFCURVE",
"233 219 OFFCURVE",
"238 196 CURVE SMOOTH",
"242 177 OFFCURVE",
"252 169 OFFCURVE",
"261 169 CURVE SMOOTH",
"272 169 OFFCURVE",
"282 181 OFFCURVE",
"282 198 CURVE SMOOTH",
"282 224 OFFCURVE",
"270 257 OFFCURVE",
"255 277 CURVE SMOOTH",
"236 304 OFFCURVE",
"206 321 OFFCURVE",
"175 328 CURVE SMOOTH",
"161 331 OFFCURVE",
"148 333 OFFCURVE",
"134 333 CURVE SMOOTH",
"45 333 OFFCURVE",
"-47 272 OFFCURVE",
"-76 189 CURVE SMOOTH",
"-87 159 OFFCURVE",
"-91 131 OFFCURVE",
"-91 104 CURVE SMOOTH",
"-91 -34 OFFCURVE",
"38 -127 OFFCURVE",
"184 -127 CURVE SMOOTH"
);
},
{
closed = 1;
nodes = (
"370 356 OFFCURVE",
"326 390 OFFCURVE",
"326 454 CURVE SMOOTH",
"326 481 OFFCURVE",
"335 508 OFFCURVE",
"347 533 CURVE SMOOTH",
"372 586 OFFCURVE",
"440 627 OFFCURVE",
"500 647 CURVE",
"477 599 OFFCURVE",
"469 542 OFFCURVE",
"469 493 CURVE SMOOTH",
"469 451 OFFCURVE",
"469 409 OFFCURVE",
"468 368 CURVE",
"452 360 OFFCURVE",
"435 356 OFFCURVE",
"419 356 CURVE SMOOTH"
);
}
);
width = 575;
}
);
note = I;
unicode = 0049;
},
{
glyphname = J;
lastChange = "2021-11-11 14:10:08 +0000";
layers = (
{
anchors = (
{
name = bottom;
position = "{288, 0}";
},
{
name = top;
position = "{529, 705}";
}
);
background = {
anchors = (
{
name = bottom;
position = "{288, -43}";
},
{
name = top;
position = "{288, 705}";
}
);
paths = (
{
closed = 1;
nodes = (
"55 -260 OFFCURVE",
"92 -267 OFFCURVE",
"130 -267 CURVE SMOOTH",
"178 -267 OFFCURVE",
"225 -256 OFFCURVE",
"268 -234 CURVE SMOOTH",
"488 -120 OFFCURVE",
"518 257 OFFCURVE",
"518 473 CURVE SMOOTH",
"518 525 OFFCURVE",
"530 598 OFFCURVE",
"567 641 CURVE",
"571 642 OFFCURVE",
"575 642 OFFCURVE",
"579 642 CURVE SMOOTH",
"587 642 OFFCURVE",
"591 641 OFFCURVE",
"600 642 CURVE SMOOTH",
"613 644 LINE SMOOTH",
"635 647 OFFCURVE",
"646 666 OFFCURVE",
"646 684 CURVE SMOOTH",
"646 703 OFFCURVE",
"634 721 OFFCURVE",
"610 721 CURVE SMOOTH",
"605 721 OFFCURVE",
"600 720 OFFCURVE",
"595 719 CURVE SMOOTH",
"580 715 OFFCURVE",
"555 698 OFFCURVE",
"543 687 CURVE",
"429 668 OFFCURVE",
"322 595 OFFCURVE",
"270 492 CURVE SMOOTH",
"257 467 OFFCURVE",
"249 444 OFFCURVE",
"249 415 CURVE SMOOTH",
"250 347 OFFCURVE",
"301 311 OFFCURVE",
"357 311 CURVE SMOOTH",
"376 311 OFFCURVE",
"395 315 OFFCURVE",
"413 323 CURVE SMOOTH",
"426 329 OFFCURVE",
"433 342 OFFCURVE",
"433 353 CURVE SMOOTH",
"433 364 OFFCURVE",
"426 373 OFFCURVE",
"411 373 CURVE SMOOTH",
"408 373 OFFCURVE",
"404 373 OFFCURVE",
"400 372 CURVE SMOOTH",
"394 370 OFFCURVE",
"381 367 OFFCURVE",
"376 362 CURVE SMOOTH",
"375 361 LINE",
"375 361 OFFCURVE",
"369 360 OFFCURVE",
"360 360 CURVE SMOOTH",
"337 360 OFFCURVE",
"298 367 OFFCURVE",
"298 412 CURVE SMOOTH",
"298 435 OFFCURVE",
"304 449 OFFCURVE",
"313 469 CURVE SMOOTH",
"348 544 OFFCURVE",
"421 602 OFFCURVE",
"500 628 CURVE",
"477 580 OFFCURVE",
"469 522 OFFCURVE",
"469 473 CURVE SMOOTH",
"469 257 OFFCURVE",
"426 -219 OFFCURVE",
"142 -219 CURVE SMOOTH",
"21 -219 OFFCURVE",
"-82 -148 OFFCURVE",
"-82 -37 CURVE SMOOTH",
"-82 -16 OFFCURVE",
"-78 7 OFFCURVE",
"-70 32 CURVE SMOOTH",
"-48 98 OFFCURVE",
"23 142 OFFCURVE",
"89 142 CURVE SMOOTH",
"122 142 OFFCURVE",
"154 130 OFFCURVE",
"178 104 CURVE SMOOTH",
"183 98 OFFCURVE",
"188 93 OFFCURVE",
"191 86 CURVE SMOOTH",
"199 69 OFFCURVE",
"184 19 OFFCURVE",
"216 19 CURVE SMOOTH",
"235 19 OFFCURVE",
"241 38 OFFCURVE",
"241 58 CURVE SMOOTH",
"241 77 OFFCURVE",
"235 98 OFFCURVE",
"232 106 CURVE SMOOTH",
"226 119 OFFCURVE",
"222 127 OFFCURVE",
"213 138 CURVE SMOOTH",
"203 151 OFFCURVE",
"173 169 OFFCURVE",
"159 175 CURVE SMOOTH",
"135 186 OFFCURVE",
"109 191 OFFCURVE",
"83 191 CURVE SMOOTH",
"-3 191 OFFCURVE",
"-88 133 OFFCURVE",
"-117 50 CURVE SMOOTH",
"-127 20 OFFCURVE",
"-132 -9 OFFCURVE",
"-132 -37 CURVE SMOOTH",
"-132 -129 OFFCURVE",
"-77 -208 OFFCURVE",
"20 -246 CURVE SMOOTH"
);
}
);
};
layerId = "2ADFC918-CAA7-4AF7-825A-5AAC412EF250";
paths = (
{
closed = 1;
nodes = (
"178 -247 OFFCURVE",
"225 -236 OFFCURVE",
"268 -214 CURVE SMOOTH",
"488 -100 OFFCURVE",
"518 277 OFFCURVE",
"518 493 CURVE SMOOTH",
"518 545 OFFCURVE",
"530 618 OFFCURVE",
"567 661 CURVE",
"571 662 OFFCURVE",
"575 662 OFFCURVE",
"579 662 CURVE SMOOTH",
"587 662 OFFCURVE",
"591 661 OFFCURVE",
"600 662 CURVE SMOOTH",
"613 664 LINE SMOOTH",
"635 667 OFFCURVE",
"646 686 OFFCURVE",
"646 704 CURVE SMOOTH",
"646 723 OFFCURVE",
"634 741 OFFCURVE",
"610 741 CURVE SMOOTH",
"605 741 OFFCURVE",
"600 740 OFFCURVE",
"595 739 CURVE SMOOTH",
"580 735 OFFCURVE",
"555 718 OFFCURVE",
"543 707 CURVE",
"429 688 OFFCURVE",
"322 615 OFFCURVE",
"270 512 CURVE SMOOTH",
"257 487 OFFCURVE",
"249 464 OFFCURVE",
"249 435 CURVE SMOOTH",
"250 367 OFFCURVE",
"301 331 OFFCURVE",
"357 331 CURVE SMOOTH",
"376 331 OFFCURVE",
"395 335 OFFCURVE",
"413 343 CURVE SMOOTH",
"426 349 OFFCURVE",
"433 362 OFFCURVE",
"433 373 CURVE SMOOTH",
"433 384 OFFCURVE",
"426 393 OFFCURVE",
"411 393 CURVE SMOOTH",
"408 393 OFFCURVE",
"404 393 OFFCURVE",
"400 392 CURVE SMOOTH",
"394 390 OFFCURVE",
"381 387 OFFCURVE",
"376 382 CURVE SMOOTH",
"375 381 LINE",
"375 381 OFFCURVE",
"369 380 OFFCURVE",
"360 380 CURVE SMOOTH",
"337 380 OFFCURVE",
"298 387 OFFCURVE",
"298 432 CURVE SMOOTH",
"298 455 OFFCURVE",
"304 469 OFFCURVE",
"313 489 CURVE SMOOTH",
"348 564 OFFCURVE",
"421 622 OFFCURVE",
"500 648 CURVE",
"477 600 OFFCURVE",
"469 542 OFFCURVE",
"469 493 CURVE SMOOTH",
"469 277 OFFCURVE",
"426 -199 OFFCURVE",
"142 -199 CURVE SMOOTH",
"21 -199 OFFCURVE",
"-82 -128 OFFCURVE",
"-82 -17 CURVE SMOOTH",
"-82 4 OFFCURVE",
"-78 27 OFFCURVE",
"-70 52 CURVE SMOOTH",
"-48 118 OFFCURVE",
"23 162 OFFCURVE",
"89 162 CURVE SMOOTH",
"122 162 OFFCURVE",
"154 150 OFFCURVE",
"178 124 CURVE SMOOTH",
"183 118 OFFCURVE",
"188 113 OFFCURVE",
"191 106 CURVE SMOOTH",
"199 89 OFFCURVE",
"184 39 OFFCURVE",
"216 39 CURVE SMOOTH",
"235 39 OFFCURVE",
"241 58 OFFCURVE",
"241 78 CURVE SMOOTH",
"241 97 OFFCURVE",
"235 118 OFFCURVE",
"232 126 CURVE SMOOTH",
"226 139 OFFCURVE",
"222 147 OFFCURVE",
"213 158 CURVE SMOOTH",
"203 171 OFFCURVE",
"173 189 OFFCURVE",
"159 195 CURVE SMOOTH",
"135 206 OFFCURVE",
"109 211 OFFCURVE",
"83 211 CURVE SMOOTH",
"-3 211 OFFCURVE",
"-88 153 OFFCURVE",
"-117 70 CURVE SMOOTH",
"-127 40 OFFCURVE",
"-132 11 OFFCURVE",
"-132 -17 CURVE SMOOTH",
"-132 -109 OFFCURVE",
"-77 -188 OFFCURVE",
"20 -226 CURVE SMOOTH",
"55 -240 OFFCURVE",
"92 -247 OFFCURVE",
"130 -247 CURVE SMOOTH"
);
}
);
width = 575;
}
);
note = J;
unicode = 004A;
},
{
glyphname = K;
lastChange = "2021-11-11 14:10:08 +0000";
layers = (
{
anchors = (
{
name = bottom;
position = "{627, 0}";
},
{
name = top;
position = "{678, 705}";
}
);
background = {
anchors = (
{
name = bottom;
position = "{608, 0}";
},
{
name = top;
position = "{691, 752}";
}
);
paths = (
{
closed = 1;
nodes = (
"1002 -95 OFFCURVE",
"1036 -94 OFFCURVE",
"1047 -88 CURVE SMOOTH",
"1060 -81 OFFCURVE",
"1065 -74 OFFCURVE",
"1065 -66 CURVE SMOOTH",
"1065 -53 OFFCURVE",
"1050 -42 OFFCURVE",
"1035 -42 CURVE SMOOTH",
"1032 -42 OFFCURVE",
"1029 -43 OFFCURVE",
"1026 -44 CURVE SMOOTH",
"1018 -47 OFFCURVE",
"1008 -48 OFFCURVE",
"999 -48 CURVE SMOOTH",
"994 -48 OFFCURVE",
"990 -47 OFFCURVE",
"986 -47 CURVE SMOOTH",
"899 -37 OFFCURVE",
"835 50 OFFCURVE",
"804 127 CURVE SMOOTH",
"775 199 OFFCURVE",
"742 285 OFFCURVE",
"683 338 CURVE",
"715 357 OFFCURVE",
"743 383 OFFCURVE",
"775 416 CURVE SMOOTH",
"821 463 OFFCURVE",
"857 518 OFFCURVE",
"888 575 CURVE SMOOTH",
"897 593 OFFCURVE",
"934 674 OFFCURVE",
"954 674 CURVE SMOOTH",
"968 674 OFFCURVE",
"974 683 OFFCURVE",
"974 693 CURVE SMOOTH",
"974 706 OFFCURVE",
"964 721 OFFCURVE",
"944 722 CURVE",
"896 703 OFFCURVE",
"870 649 OFFCURVE",
"847 606 CURVE SMOOTH",
"817 549 OFFCURVE",
"787 498 OFFCURVE",
"741 451 CURVE SMOOTH",
"712 422 OFFCURVE",
"678 390 OFFCURVE",
"641 368 CURVE",
"618 379 OFFCURVE",
"593 386 OFFCURVE",
"564 386 CURVE SMOOTH",
"557 386 OFFCURVE",
"551 385 OFFCURVE",
"545 385 CURVE",
"544 549 OFFCURVE",
"491 706 OFFCURVE",
"299 722 CURVE SMOOTH",
"260 725 OFFCURVE",
"220 720 OFFCURVE",
"183 708 CURVE SMOOTH",
"66 672 OFFCURVE",
"4 577 OFFCURVE",
"4 457 CURVE SMOOTH",
"4 338 OFFCURVE",
"92 262 OFFCURVE",
"192 262 CURVE SMOOTH",
"224 262 OFFCURVE",
"257 270 OFFCURVE",
"289 287 CURVE SMOOTH",
"333 310 OFFCURVE",
"359 363 OFFCURVE",
"359 412 CURVE SMOOTH",
"359 461 OFFCURVE",
"333 507 OFFCURVE",
"276 516 CURVE SMOOTH",
"271 517 OFFCURVE",
"261 518 OFFCURVE",
"251 518 CURVE SMOOTH",
"246 518 OFFCURVE",
"240 518 OFFCURVE",
"237 517 CURVE SMOOTH",
"221 512 OFFCURVE",
"216 504 OFFCURVE",
"216 496 CURVE SMOOTH",
"216 482 OFFCURVE",
"232 469 OFFCURVE",
"246 469 CURVE SMOOTH",
"253 469 OFFCURVE",
"257 471 OFFCURVE",
"265 471 CURVE SMOOTH",
"291 471 OFFCURVE",
"309 439 OFFCURVE",
"309 404 CURVE SMOOTH",
"309 375 OFFCURVE",
"297 346 OFFCURVE",
"267 330 CURVE SMOOTH",
"243 317 OFFCURVE",
"217 311 OFFCURVE",
"192 311 CURVE SMOOTH",
"118 311 OFFCURVE",
"53 364 OFFCURVE",
"53 449 CURVE SMOOTH",
"53 591 OFFCURVE",
"144 673 OFFCURVE",
"280 673 CURVE SMOOTH",
"463 673 OFFCURVE",
"496 506 OFFCURVE",
"496 359 CURVE",
"492 353 OFFCURVE",
"489 346 OFFCURVE",
"489 340 CURVE SMOOTH",
"489 334 OFFCURVE",
"491 328 OFFCURVE",
"495 323 CURVE",
"494 301 OFFCURVE",
"490 280 OFFCURVE",
"488 258 CURVE SMOOTH",
"479 166 OFFCURVE",
"423 -34 OFFCURVE",
"325 -34 CURVE SMOOTH",
"321 -34 OFFCURVE",
"318 -34 OFFCURVE",
"314 -33 CURVE SMOOTH",
"296 -29 OFFCURVE",
"280 -44 OFFCURVE",
"280 -58 CURVE SMOOTH",
"280 -67 OFFCURVE",
"286 -76 OFFCURVE",
"300 -80 CURVE SMOOTH",
"303 -81 OFFCURVE",
"308 -82 OFFCURVE",
"314 -82 CURVE SMOOTH",
"331 -82 OFFCURVE",
"354 -77 OFFCURVE",
"364 -74 CURVE SMOOTH",
"466 -41 OFFCURVE",
"507 99 OFFCURVE",
"525 188 CURVE SMOOTH",
"533 226 OFFCURVE",
"539 263 OFFCURVE",
"541 301 CURVE",
"577 301 OFFCURVE",
"608 306 OFFCURVE",
"635 316 CURVE",
"695 272 OFFCURVE",
"732 176 OFFCURVE",
"758 109 CURVE SMOOTH",
"796 14 OFFCURVE",
"877 -90 OFFCURVE",
"990 -95 CURVE SMOOTH"
);
}
);
};
layerId = "2ADFC918-CAA7-4AF7-825A-5AAC412EF250";
paths = (
{
closed = 1;
nodes = (
"1002 -75 OFFCURVE",
"1036 -74 OFFCURVE",
"1047 -68 CURVE SMOOTH",
"1060 -61 OFFCURVE",
"1065 -54 OFFCURVE",
"1065 -46 CURVE SMOOTH",
"1065 -33 OFFCURVE",
"1050 -22 OFFCURVE",
"1035 -22 CURVE SMOOTH",
"1032 -22 OFFCURVE",
"1029 -23 OFFCURVE",
"1026 -24 CURVE SMOOTH",
"1018 -27 OFFCURVE",
"1008 -28 OFFCURVE",
"999 -28 CURVE SMOOTH",
"994 -28 OFFCURVE",
"990 -27 OFFCURVE",
"986 -27 CURVE SMOOTH",
"899 -17 OFFCURVE",
"835 70 OFFCURVE",
"804 147 CURVE SMOOTH",
"775 219 OFFCURVE",
"742 305 OFFCURVE",
"683 358 CURVE",
"715 377 OFFCURVE",
"743 403 OFFCURVE",
"775 436 CURVE SMOOTH",
"821 483 OFFCURVE",
"857 538 OFFCURVE",
"888 595 CURVE SMOOTH",
"897 613 OFFCURVE",
"934 694 OFFCURVE",
"954 694 CURVE SMOOTH",
"968 694 OFFCURVE",
"974 703 OFFCURVE",
"974 713 CURVE SMOOTH",
"974 726 OFFCURVE",
"964 741 OFFCURVE",
"944 742 CURVE",
"896 723 OFFCURVE",
"870 669 OFFCURVE",
"847 626 CURVE SMOOTH",
"817 569 OFFCURVE",
"787 518 OFFCURVE",
"741 471 CURVE SMOOTH",
"712 442 OFFCURVE",
"678 410 OFFCURVE",
"641 388 CURVE",
"618 399 OFFCURVE",
"593 406 OFFCURVE",
"564 406 CURVE SMOOTH",
"557 406 OFFCURVE",
"551 405 OFFCURVE",
"545 405 CURVE",
"544 569 OFFCURVE",
"491 726 OFFCURVE",
"299 742 CURVE SMOOTH",
"260 745 OFFCURVE",
"220 740 OFFCURVE",
"183 728 CURVE SMOOTH",
"66 692 OFFCURVE",
"4 597 OFFCURVE",
"4 477 CURVE SMOOTH",
"4 358 OFFCURVE",
"92 282 OFFCURVE",
"192 282 CURVE SMOOTH",
"224 282 OFFCURVE",
"257 290 OFFCURVE",
"289 307 CURVE SMOOTH",
"333 330 OFFCURVE",
"359 383 OFFCURVE",
"359 432 CURVE SMOOTH",
"359 481 OFFCURVE",
"333 527 OFFCURVE",
"276 536 CURVE SMOOTH",
"271 537 OFFCURVE",
"261 538 OFFCURVE",
"251 538 CURVE SMOOTH",
"246 538 OFFCURVE",
"240 538 OFFCURVE",
"237 537 CURVE SMOOTH",
"221 532 OFFCURVE",
"216 524 OFFCURVE",
"216 516 CURVE SMOOTH",
"216 502 OFFCURVE",
"232 489 OFFCURVE",
"246 489 CURVE SMOOTH",
"253 489 OFFCURVE",
"257 491 OFFCURVE",
"265 491 CURVE SMOOTH",
"291 491 OFFCURVE",
"309 459 OFFCURVE",
"309 424 CURVE SMOOTH",
"309 395 OFFCURVE",
"297 366 OFFCURVE",
"267 350 CURVE SMOOTH",
"243 337 OFFCURVE",
"217 331 OFFCURVE",
"192 331 CURVE SMOOTH",
"118 331 OFFCURVE",
"53 384 OFFCURVE",
"53 469 CURVE SMOOTH",
"53 611 OFFCURVE",
"144 693 OFFCURVE",
"280 693 CURVE SMOOTH",
"463 693 OFFCURVE",
"496 526 OFFCURVE",
"496 379 CURVE",
"492 373 OFFCURVE",
"489 366 OFFCURVE",
"489 360 CURVE SMOOTH",
"489 354 OFFCURVE",
"491 348 OFFCURVE",
"495 343 CURVE",
"494 321 OFFCURVE",
"490 300 OFFCURVE",
"488 278 CURVE SMOOTH",
"479 186 OFFCURVE",
"423 -14 OFFCURVE",
"325 -14 CURVE SMOOTH",
"321 -14 OFFCURVE",
"318 -14 OFFCURVE",
"314 -13 CURVE SMOOTH",
"296 -9 OFFCURVE",
"280 -24 OFFCURVE",
"280 -38 CURVE SMOOTH",
"280 -47 OFFCURVE",
"286 -56 OFFCURVE",
"300 -60 CURVE SMOOTH",
"303 -61 OFFCURVE",
"308 -62 OFFCURVE",
"314 -62 CURVE SMOOTH",
"331 -62 OFFCURVE",
"354 -57 OFFCURVE",
"364 -54 CURVE SMOOTH",
"466 -21 OFFCURVE",
"507 119 OFFCURVE",
"525 208 CURVE SMOOTH",
"533 246 OFFCURVE",
"539 283 OFFCURVE",
"541 321 CURVE",
"577 321 OFFCURVE",
"608 326 OFFCURVE",
"635 336 CURVE",
"695 292 OFFCURVE",
"732 196 OFFCURVE",
"758 129 CURVE SMOOTH",
"796 34 OFFCURVE",
"877 -70 OFFCURVE",
"990 -75 CURVE SMOOTH"
);
}
);
width = 930;
}
);
note = K;
unicode = 004B;
},
{
glyphname = L;
lastChange = "2021-11-11 14:10:08 +0000";
layers = (
{
anchors = (
{
name = bottom;
position = "{477, -51}";
},
{
name = center;
position = "{352, 353}";
},
{
name = top;
position = "{553, 744}";
},
{
name = topright;
position = "{684, 743}";
}
);
background = {
anchors = (
{
name = bottom;
position = "{352, 0}";
},
{
name = center;
position = "{352, 353}";
},
{
name = top;
position = "{610, 752}";
},
{
name = topright;
position = "{684, 419}";
}
);
paths = (
{
closed = 1;
nodes = (
"734 -113 OFFCURVE",
"764 -91 OFFCURVE",
"764 -60 CURVE SMOOTH",
"764 -55 OFFCURVE",
"762 -48 OFFCURVE",
"760 -42 CURVE SMOOTH",
"756 -32 OFFCURVE",
"748 -27 OFFCURVE",
"740 -27 CURVE SMOOTH",
"727 -27 OFFCURVE",
"712 -41 OFFCURVE",
"714 -59 CURVE",
"712 -64 OFFCURVE",
"707 -66 OFFCURVE",
"699 -67 CURVE SMOOTH",
"691 -68 OFFCURVE",
"683 -68 OFFCURVE",
"675 -68 CURVE SMOOTH",
"586 -68 OFFCURVE",
"491 -24 OFFCURVE",
"408 22 CURVE",
"428 54 OFFCURVE",
"441 92 OFFCURVE",
"447 136 CURVE SMOOTH",
"454 191 OFFCURVE",
"456 248 OFFCURVE",
"458 303 CURVE",
"545 322 OFFCURVE",
"615 378 OFFCURVE",
"658 468 CURVE SMOOTH",
"673 499 OFFCURVE",
"682 536 OFFCURVE",
"682 572 CURVE SMOOTH",
"682 615 OFFCURVE",
"669 658 OFFCURVE",
"637 689 CURVE SMOOTH",
"612 712 OFFCURVE",
"584 724 OFFCURVE",
"553 724 CURVE SMOOTH",
"543 724 OFFCURVE",
"532 723 OFFCURVE",
"521 720 CURVE SMOOTH",
"425 695 OFFCURVE",
"416 543 OFFCURVE",
"413 464 CURVE SMOOTH",
"411 424 OFFCURVE",
"411 385 OFFCURVE",
"410 345 CURVE",
"365 342 OFFCURVE",
"318 348 OFFCURVE",
"278 372 CURVE SMOOTH",
"237 396 OFFCURVE",
"210 437 OFFCURVE",
"210 478 CURVE SMOOTH",
"210 503 OFFCURVE",
"220 527 OFFCURVE",
"243 548 CURVE SMOOTH",
"249 553 OFFCURVE",
"256 556 OFFCURVE",
"262 562 CURVE SMOOTH",
"269 570 OFFCURVE",
"271 577 OFFCURVE",
"271 584 CURVE SMOOTH",
"271 597 OFFCURVE",
"261 606 OFFCURVE",
"248 606 CURVE SMOOTH",
"244 606 OFFCURVE",
"239 605 OFFCURVE",
"235 603 CURVE SMOOTH",
"220 597 OFFCURVE",
"192 566 OFFCURVE",
"184 553 CURVE SMOOTH",
"168 529 OFFCURVE",
"161 504 OFFCURVE",
"161 480 CURVE SMOOTH",
"161 420 OFFCURVE",
"202 364 OFFCURVE",
"253 331 CURVE SMOOTH",
"294 305 OFFCURVE",
"337 296 OFFCURVE",
"383 296 CURVE SMOOTH",
"392 296 OFFCURVE",
"401 296 OFFCURVE",
"410 297 CURVE",
"408 221 OFFCURVE",
"405 115 OFFCURVE",
"364 47 CURVE",
"305 82 OFFCURVE",
"179 165 OFFCURVE",
"88 165 CURVE SMOOTH",
"60 165 OFFCURVE",
"35 157 OFFCURVE",
"17 137 CURVE SMOOTH",
"0 119 OFFCURVE",
"-7 103 OFFCURVE",
"-7 82 CURVE SMOOTH",
"-7 74 OFFCURVE",
"-5 64 OFFCURVE",
"-3 53 CURVE SMOOTH",
"14 -26 OFFCURVE",
"109 -65 OFFCURVE",
"178 -74 CURVE SMOOTH",
"191 -76 OFFCURVE",
"205 -76 OFFCURVE",
"217 -76 CURVE SMOOTH",
"282 -76 OFFCURVE",
"337 -55 OFFCURVE",
"376 -17 CURVE",
"463 -67 OFFCURVE",
"581 -118 OFFCURVE",
"677 -118 CURVE SMOOTH",
"687 -118 OFFCURVE",
"697 -117 OFFCURVE",
"706 -116 CURVE SMOOTH"
);
},
{
closed = 1;
nodes = (
"133 -19 OFFCURVE",
"62 8 OFFCURVE",
"46 57 CURVE SMOOTH",
"44 64 OFFCURVE",
"43 72 OFFCURVE",
"43 81 CURVE SMOOTH",
"43 94 OFFCURVE",
"45 107 OFFCURVE",
"49 111 CURVE SMOOTH",
"55 118 OFFCURVE",
"65 121 OFFCURVE",
"77 121 CURVE SMOOTH",
"133 121 OFFCURVE",
"240 64 OFFCURVE",
"268 48 CURVE SMOOTH",
"291 35 OFFCURVE",
"297 31 OFFCURVE",
"332 9 CURVE",
"304 -15 OFFCURVE",
"266 -27 OFFCURVE",
"218 -27 CURVE SMOOTH",
"207 -27 OFFCURVE",
"195 -26 OFFCURVE",
"183 -25 CURVE SMOOTH"
);
},
{
closed = 1;
nodes = (
"462 453 OFFCURVE",
"468 623 OFFCURVE",
"511 668 CURVE SMOOTH",
"520 677 OFFCURVE",
"531 681 OFFCURVE",
"544 681 CURVE SMOOTH",
"563 681 OFFCURVE",
"584 672 OFFCURVE",
"599 660 CURVE SMOOTH",
"624 639 OFFCURVE",
"634 606 OFFCURVE",
"634 572 CURVE SMOOTH",
"634 544 OFFCURVE",
"627 514 OFFCURVE",
"615 490 CURVE SMOOTH",
"579 416 OFFCURVE",
"527 371 OFFCURVE",
"459 353 CURVE"
);
}
);
};
layerId = "2ADFC918-CAA7-4AF7-825A-5AAC412EF250";
paths = (
{
closed = 1;
nodes = (
"687 -98 OFFCURVE",
"697 -97 OFFCURVE",
"706 -96 CURVE SMOOTH",
"734 -93 OFFCURVE",
"764 -71 OFFCURVE",
"764 -40 CURVE SMOOTH",
"764 -35 OFFCURVE",
"762 -28 OFFCURVE",
"760 -22 CURVE SMOOTH",
"756 -12 OFFCURVE",
"748 -7 OFFCURVE",
"740 -7 CURVE SMOOTH",
"727 -7 OFFCURVE",
"712 -21 OFFCURVE",
"714 -39 CURVE",
"712 -44 OFFCURVE",
"707 -46 OFFCURVE",
"699 -47 CURVE SMOOTH",
"691 -48 OFFCURVE",
"683 -48 OFFCURVE",
"675 -48 CURVE SMOOTH",
"586 -48 OFFCURVE",
"491 -4 OFFCURVE",
"408 42 CURVE",
"428 74 OFFCURVE",
"441 112 OFFCURVE",
"447 156 CURVE SMOOTH",
"454 211 OFFCURVE",
"456 268 OFFCURVE",
"458 323 CURVE",
"545 342 OFFCURVE",
"615 398 OFFCURVE",
"658 488 CURVE SMOOTH",
"673 519 OFFCURVE",
"682 556 OFFCURVE",
"682 592 CURVE SMOOTH",
"682 635 OFFCURVE",
"669 678 OFFCURVE",
"637 709 CURVE SMOOTH",
"612 732 OFFCURVE",
"584 744 OFFCURVE",
"553 744 CURVE SMOOTH",
"543 744 OFFCURVE",
"532 743 OFFCURVE",
"521 740 CURVE SMOOTH",
"425 715 OFFCURVE",
"416 563 OFFCURVE",
"413 484 CURVE SMOOTH",
"411 444 OFFCURVE",
"411 405 OFFCURVE",
"410 365 CURVE",
"365 362 OFFCURVE",
"318 368 OFFCURVE",
"278 392 CURVE SMOOTH",
"237 416 OFFCURVE",
"210 457 OFFCURVE",
"210 498 CURVE SMOOTH",
"210 523 OFFCURVE",
"220 547 OFFCURVE",
"243 568 CURVE SMOOTH",
"249 573 OFFCURVE",
"256 576 OFFCURVE",
"262 582 CURVE SMOOTH",
"269 590 OFFCURVE",
"271 597 OFFCURVE",
"271 604 CURVE SMOOTH",
"271 617 OFFCURVE",
"261 626 OFFCURVE",
"248 626 CURVE SMOOTH",
"244 626 OFFCURVE",
"239 625 OFFCURVE",
"235 623 CURVE SMOOTH",
"220 617 OFFCURVE",
"192 586 OFFCURVE",
"184 573 CURVE SMOOTH",
"168 549 OFFCURVE",
"161 524 OFFCURVE",
"161 500 CURVE SMOOTH",
"161 440 OFFCURVE",
"202 384 OFFCURVE",
"253 351 CURVE SMOOTH",
"294 325 OFFCURVE",
"337 316 OFFCURVE",
"383 316 CURVE SMOOTH",
"392 316 OFFCURVE",
"401 316 OFFCURVE",
"410 317 CURVE",
"408 241 OFFCURVE",
"405 135 OFFCURVE",
"364 67 CURVE",
"305 102 OFFCURVE",
"179 185 OFFCURVE",
"88 185 CURVE SMOOTH",
"60 185 OFFCURVE",
"35 177 OFFCURVE",
"17 157 CURVE SMOOTH",
"0 139 OFFCURVE",
"-7 123 OFFCURVE",
"-7 102 CURVE SMOOTH",
"-7 94 OFFCURVE",
"-5 84 OFFCURVE",
"-3 73 CURVE SMOOTH",
"14 -6 OFFCURVE",
"109 -45 OFFCURVE",
"178 -54 CURVE SMOOTH",
"191 -56 OFFCURVE",
"205 -56 OFFCURVE",
"217 -56 CURVE SMOOTH",
"282 -56 OFFCURVE",
"337 -35 OFFCURVE",
"376 3 CURVE",
"463 -47 OFFCURVE",
"581 -98 OFFCURVE",
"677 -98 CURVE SMOOTH"
);
},
{
closed = 1;
nodes = (
"207 -7 OFFCURVE",
"195 -6 OFFCURVE",
"183 -5 CURVE SMOOTH",
"133 1 OFFCURVE",
"62 28 OFFCURVE",
"46 77 CURVE SMOOTH",
"44 84 OFFCURVE",
"43 92 OFFCURVE",
"43 101 CURVE SMOOTH",
"43 114 OFFCURVE",
"45 127 OFFCURVE",
"49 131 CURVE SMOOTH",
"55 138 OFFCURVE",
"65 141 OFFCURVE",
"77 141 CURVE SMOOTH",
"133 141 OFFCURVE",
"240 84 OFFCURVE",
"268 68 CURVE SMOOTH",
"291 55 OFFCURVE",
"297 51 OFFCURVE",
"332 29 CURVE",
"304 5 OFFCURVE",
"266 -7 OFFCURVE",
"218 -7 CURVE SMOOTH"
);
},
{
closed = 1;
nodes = (
"462 473 OFFCURVE",
"468 643 OFFCURVE",
"511 688 CURVE SMOOTH",
"520 697 OFFCURVE",
"531 701 OFFCURVE",
"544 701 CURVE SMOOTH",
"563 701 OFFCURVE",
"584 692 OFFCURVE",
"599 680 CURVE SMOOTH",
"624 659 OFFCURVE",
"634 626 OFFCURVE",
"634 592 CURVE SMOOTH",
"634 564 OFFCURVE",
"627 534 OFFCURVE",
"615 510 CURVE SMOOTH",
"579 436 OFFCURVE",
"527 391 OFFCURVE",
"459 373 CURVE"
);
}
);
width = 704;
}
);
note = L;
unicode = 004C;
},
{
glyphname = M;
lastChange = "2021-11-11 14:10:08 +0000";
layers = (
{
background = {
paths = (
{
closed = 1;
nodes = (
"1115 -93 OFFCURVE",
"1134 -89 OFFCURVE",
"1140 -84 CURVE SMOOTH",
"1148 -76 OFFCURVE",
"1152 -69 OFFCURVE",
"1152 -63 CURVE SMOOTH",
"1152 -49 OFFCURVE",
"1133 -42 OFFCURVE",
"1119 -42 CURVE SMOOTH",
"1111 -42 OFFCURVE",
"1104 -44 OFFCURVE",
"1102 -48 CURVE",
"1102 -47 OFFCURVE",
"1101 -46 OFFCURVE",
"1099 -45 CURVE",
"1045 -36 OFFCURVE",
"1038 47 OFFCURVE",
"1038 110 CURVE SMOOTH",
"1038 132 OFFCURVE",
"1039 151 OFFCURVE",
"1039 164 CURVE SMOOTH",
"1041 257 OFFCURVE",
"1049 348 OFFCURVE",
"1049 441 CURVE SMOOTH",
"1049 529 OFFCURVE",
"1036 662 OFFCURVE",
"917 662 CURVE SMOOTH",
"821 662 OFFCURVE",
"777 573 OFFCURVE",
"751 494 CURVE SMOOTH",
"749 488 LINE",
"739 577 OFFCURVE",
"707 661 OFFCURVE",
"606 661 CURVE SMOOTH",
"516 661 OFFCURVE",
"463 572 OFFCURVE",
"439 497 CURVE",
"416 616 OFFCURVE",
"354 722 OFFCURVE",
"210 722 CURVE SMOOTH",
"178 722 OFFCURVE",
"148 716 OFFCURVE",
"120 703 CURVE SMOOTH",
"35 661 OFFCURVE",
"-8 570 OFFCURVE",
"-8 481 CURVE SMOOTH",
"-8 376 OFFCURVE",
"53 274 OFFCURVE",
"177 265 CURVE SMOOTH",
"211 262 OFFCURVE",
"247 269 OFFCURVE",
"278 285 CURVE SMOOTH",
"332 313 OFFCURVE",
"359 371 OFFCURVE",
"359 426 CURVE SMOOTH",
"359 500 OFFCURVE",
"312 570 OFFCURVE",
"221 566 CURVE SMOOTH",
"214 565 OFFCURVE",
"183 562 OFFCURVE",
"175 557 CURVE SMOOTH",
"164 551 OFFCURVE",
"158 542 OFFCURVE",
"158 533 CURVE SMOOTH",
"158 521 OFFCURVE",
"168 510 OFFCURVE",
"187 510 CURVE SMOOTH",
"196 510 OFFCURVE",
"203 515 OFFCURVE",
"211 516 CURVE SMOOTH",
"218 517 OFFCURVE",
"224 518 OFFCURVE",
"230 518 CURVE SMOOTH",
"282 518 OFFCURVE",
"310 473 OFFCURVE",
"310 425 CURVE SMOOTH",
"310 388 OFFCURVE",
"292 349 OFFCURVE",
"255 329 CURVE SMOOTH",
"236 320 OFFCURVE",
"212 315 OFFCURVE",
"190 315 CURVE SMOOTH",
"93 315 OFFCURVE",
"41 391 OFFCURVE",
"41 480 CURVE SMOOTH",
"41 556 OFFCURVE",
"74 627 OFFCURVE",
"144 660 CURVE SMOOTH",
"160 668 OFFCURVE",
"178 674 OFFCURVE",
"195 674 CURVE SMOOTH",
"362 674 OFFCURVE",
"393 535 OFFCURVE",
"401 391 CURVE SMOOTH",
"403 353 OFFCURVE",
"404 314 OFFCURVE",
"404 276 CURVE SMOOTH",
"404 214 OFFCURVE",
"402 151 OFFCURVE",
"398 89 CURVE SMOOTH",
"397 64 OFFCURVE",
"395 39 OFFCURVE",
"393 14 CURVE SMOOTH",
"392 1 LINE SMOOTH",
"392 0 OFFCURVE",
"391 -2 OFFCURVE",
"393 -4 CURVE",
"401 -17 OFFCURVE",
"408 -25 OFFCURVE",
"416 -25 CURVE SMOOTH",
"423 -25 OFFCURVE",
"431 -20 OFFCURVE",
"440 -8 CURVE",
"440 -8 OFFCURVE",
"441 -6 OFFCURVE",
"442 -1 CURVE SMOOTH",
"446 36 OFFCURVE",
"464 330 OFFCURVE",
"465 356 CURVE SMOOTH",
"471 454 OFFCURVE",
"501 611 OFFCURVE",
"620 611 CURVE SMOOTH",
"634 611 OFFCURVE",
"642 610 OFFCURVE",
"653 602 CURVE SMOOTH",
"694 572 OFFCURVE",
"701 467 OFFCURVE",
"701 380 CURVE SMOOTH",
"701 337 OFFCURVE",
"699 298 OFFCURVE",
"699 275 CURVE SMOOTH",
"697 204 OFFCURVE",
"697 134 OFFCURVE",
"694 64 CURVE SMOOTH",
"694 60 OFFCURVE",
"692 27 OFFCURVE",
"692 10 CURVE SMOOTH",
"692 4 OFFCURVE",
"693 0 OFFCURVE",
"693 -1 CURVE",
"701 -13 OFFCURVE",
"708 -21 OFFCURVE",
"716 -21 CURVE SMOOTH",
"723 -21 OFFCURVE",
"730 -15 OFFCURVE",
"739 -2 CURVE",
"742 1 OFFCURVE",
"746 125 OFFCURVE",
"746 134 CURVE SMOOTH",
"752 245 OFFCURVE",
"766 388 OFFCURVE",
"798 479 CURVE SMOOTH",
"812 518 OFFCURVE",
"837 590 OFFCURVE",
"879 607 CURVE SMOOTH",
"892 612 OFFCURVE",
"909 613 OFFCURVE",
"925 613 CURVE SMOOTH",
"993 613 OFFCURVE",
"1000 513 OFFCURVE",
"1000 448 CURVE SMOOTH",
"1000 416 LINE SMOOTH",
"999 332 OFFCURVE",
"991 248 OFFCURVE",
"990 164 CURVE SMOOTH",
"990 143 OFFCURVE",
"989 120 OFFCURVE",
"989 97 CURVE SMOOTH",
"989 62 OFFCURVE",
"991 26 OFFCURVE",
"1001 -4 CURVE SMOOTH",
"1015 -47 OFFCURVE",
"1053 -98 OFFCURVE",
"1108 -94 CURVE SMOOTH"
);
}
);
};
layerId = "2ADFC918-CAA7-4AF7-825A-5AAC412EF250";
paths = (
{
closed = 1;
nodes = (
"1115 -73 OFFCURVE",
"1134 -69 OFFCURVE",
"1140 -64 CURVE SMOOTH",
"1148 -56 OFFCURVE",
"1152 -49 OFFCURVE",
"1152 -43 CURVE SMOOTH",
"1152 -29 OFFCURVE",
"1133 -22 OFFCURVE",
"1119 -22 CURVE SMOOTH",
"1111 -22 OFFCURVE",
"1104 -24 OFFCURVE",
"1102 -28 CURVE",
"1102 -27 OFFCURVE",
"1101 -26 OFFCURVE",
"1099 -25 CURVE",
"1045 -16 OFFCURVE",
"1038 67 OFFCURVE",
"1038 130 CURVE SMOOTH",
"1038 152 OFFCURVE",
"1039 171 OFFCURVE",
"1039 184 CURVE SMOOTH",
"1041 277 OFFCURVE",
"1049 368 OFFCURVE",
"1049 461 CURVE SMOOTH",
"1049 549 OFFCURVE",
"1036 682 OFFCURVE",
"917 682 CURVE SMOOTH",
"821 682 OFFCURVE",
"777 593 OFFCURVE",
"751 514 CURVE SMOOTH",
"749 508 LINE",
"739 597 OFFCURVE",
"707 681 OFFCURVE",
"606 681 CURVE SMOOTH",
"516 681 OFFCURVE",
"463 592 OFFCURVE",
"439 517 CURVE",
"416 636 OFFCURVE",
"354 742 OFFCURVE",
"210 742 CURVE SMOOTH",
"178 742 OFFCURVE",
"148 736 OFFCURVE",
"120 723 CURVE SMOOTH",
"35 681 OFFCURVE",
"-8 590 OFFCURVE",
"-8 501 CURVE SMOOTH",
"-8 392 OFFCURVE",
"58 284 OFFCURVE",
"193 284 CURVE SMOOTH",
"222 284 OFFCURVE",
"252 291 OFFCURVE",
"278 305 CURVE SMOOTH",
"332 333 OFFCURVE",
"359 391 OFFCURVE",
"359 446 CURVE SMOOTH",
"359 520 OFFCURVE",
"312 590 OFFCURVE",
"221 586 CURVE SMOOTH",
"214 585 OFFCURVE",
"183 582 OFFCURVE",
"175 577 CURVE SMOOTH",
"164 571 OFFCURVE",
"158 562 OFFCURVE",
"158 553 CURVE SMOOTH",
"158 541 OFFCURVE",
"168 530 OFFCURVE",
"187 530 CURVE SMOOTH",
"196 530 OFFCURVE",
"203 535 OFFCURVE",
"211 536 CURVE SMOOTH",
"218 537 OFFCURVE",
"224 538 OFFCURVE",
"230 538 CURVE SMOOTH",
"282 538 OFFCURVE",
"310 493 OFFCURVE",
"310 445 CURVE SMOOTH",
"310 408 OFFCURVE",
"292 369 OFFCURVE",
"255 349 CURVE SMOOTH",
"236 340 OFFCURVE",
"212 335 OFFCURVE",
"190 335 CURVE SMOOTH",
"93 335 OFFCURVE",
"41 411 OFFCURVE",
"41 500 CURVE SMOOTH",
"41 576 OFFCURVE",
"74 647 OFFCURVE",
"144 680 CURVE SMOOTH",
"160 688 OFFCURVE",
"178 694 OFFCURVE",
"195 694 CURVE SMOOTH",
"362 694 OFFCURVE",
"393 555 OFFCURVE",
"401 411 CURVE SMOOTH",
"403 373 OFFCURVE",
"404 334 OFFCURVE",
"404 296 CURVE SMOOTH",
"404 234 OFFCURVE",
"402 171 OFFCURVE",
"398 109 CURVE SMOOTH",
"397 84 OFFCURVE",
"395 59 OFFCURVE",
"393 34 CURVE SMOOTH",
"392 21 LINE SMOOTH",
"392 20 OFFCURVE",
"391 18 OFFCURVE",
"393 16 CURVE",
"401 3 OFFCURVE",
"408 -5 OFFCURVE",
"416 -5 CURVE SMOOTH",
"423 -5 OFFCURVE",
"431 0 OFFCURVE",
"440 12 CURVE",
"440 12 OFFCURVE",
"441 14 OFFCURVE",
"442 19 CURVE SMOOTH",
"446 56 OFFCURVE",
"464 350 OFFCURVE",
"465 376 CURVE SMOOTH",
"471 474 OFFCURVE",
"501 631 OFFCURVE",
"620 631 CURVE SMOOTH",
"634 631 OFFCURVE",
"642 630 OFFCURVE",
"653 622 CURVE SMOOTH",
"694 592 OFFCURVE",
"701 487 OFFCURVE",
"701 400 CURVE SMOOTH",
"701 357 OFFCURVE",
"699 318 OFFCURVE",
"699 295 CURVE SMOOTH",
"697 224 OFFCURVE",
"697 154 OFFCURVE",
"694 84 CURVE SMOOTH",
"694 80 OFFCURVE",
"692 47 OFFCURVE",
"692 30 CURVE SMOOTH",
"692 24 OFFCURVE",
"693 20 OFFCURVE",
"693 19 CURVE",
"701 7 OFFCURVE",
"708 -1 OFFCURVE",
"716 -1 CURVE SMOOTH",
"723 -1 OFFCURVE",
"730 5 OFFCURVE",
"739 18 CURVE",
"742 21 OFFCURVE",
"746 145 OFFCURVE",
"746 154 CURVE SMOOTH",
"752 265 OFFCURVE",
"766 408 OFFCURVE",
"798 499 CURVE SMOOTH",
"812 538 OFFCURVE",
"837 610 OFFCURVE",
"879 627 CURVE SMOOTH",
"892 632 OFFCURVE",
"909 633 OFFCURVE",
"925 633 CURVE SMOOTH",
"993 633 OFFCURVE",
"1000 533 OFFCURVE",
"1000 468 CURVE SMOOTH",
"1000 436 LINE SMOOTH",
"999 352 OFFCURVE",
"991 268 OFFCURVE",
"990 184 CURVE SMOOTH",
"990 163 OFFCURVE",
"989 140 OFFCURVE",
"989 117 CURVE SMOOTH",
"989 82 OFFCURVE",
"991 46 OFFCURVE",
"1001 16 CURVE SMOOTH",
"1015 -27 OFFCURVE",
"1053 -78 OFFCURVE",
"1108 -74 CURVE SMOOTH"
);
}
);
width = 1106;
}
);
note = M;
unicode = 004D;
},
{
glyphname = N;
lastChange = "2021-11-11 14:10:08 +0000";
layers = (
{
anchors = (
{
name = bottom;
position = "{598, 0}";
},
{
name = top;
position = "{681, 740}";
}
);
background = {
anchors = (
{
name = bottom;
position = "{548, 0}";
},
{
name = top;
position = "{675, 752}";
}
);
paths = (
{
closed = 1;
nodes = (
"855 -95 OFFCURVE",
"859 -94 OFFCURVE",
"863 -92 CURVE SMOOTH",
"872 -88 OFFCURVE",
"881 -79 OFFCURVE",
"881 -68 CURVE SMOOTH",
"881 -63 OFFCURVE",
"879 -58 OFFCURVE",
"874 -53 CURVE SMOOTH",
"868 -46 OFFCURVE",
"852 -46 OFFCURVE",
"845 -46 CURVE SMOOTH",
"820 -46 OFFCURVE",
"815 6 OFFCURVE",
"815 18 CURVE SMOOTH",
"815 57 OFFCURVE",
"820 98 OFFCURVE",
"824 137 CURVE SMOOTH",
"832 205 OFFCURVE",
"842 272 OFFCURVE",
"849 340 CURVE SMOOTH",
"854 382 OFFCURVE",
"858 425 OFFCURVE",
"858 468 CURVE SMOOTH",
"858 592 OFFCURVE",
"800 717 OFFCURVE",
"659 717 CURVE SMOOTH",
"550 717 OFFCURVE",
"474 615 OFFCURVE",
"425 507 CURVE",
"398 633 OFFCURVE",
"308 729 OFFCURVE",
"166 729 CURVE SMOOTH",
"130 729 OFFCURVE",
"94 721 OFFCURVE",
"63 704 CURVE SMOOTH",
"-19 660 OFFCURVE",
"-60 573 OFFCURVE",
"-60 481 CURVE SMOOTH",
"-60 373 OFFCURVE",
"4 280 OFFCURVE",
"117 263 CURVE SMOOTH",
"127 261 OFFCURVE",
"138 261 OFFCURVE",
"149 261 CURVE SMOOTH",
"179 261 OFFCURVE",
"210 267 OFFCURVE",
"237 281 CURVE SMOOTH",
"294 310 OFFCURVE",
"321 370 OFFCURVE",
"321 427 CURVE SMOOTH",
"321 500 OFFCURVE",
"276 569 OFFCURVE",
"189 569 CURVE SMOOTH",
"184 569 OFFCURVE",
"144 566 OFFCURVE",
"132 560 CURVE SMOOTH",
"121 554 OFFCURVE",
"115 544 OFFCURVE",
"115 534 CURVE SMOOTH",
"115 523 OFFCURVE",
"123 513 OFFCURVE",
"142 513 CURVE SMOOTH",
"154 513 OFFCURVE",
"165 517 OFFCURVE",
"177 520 CURVE SMOOTH",
"181 521 OFFCURVE",
"186 521 OFFCURVE",
"190 521 CURVE SMOOTH",
"236 521 OFFCURVE",
"274 471 OFFCURVE",
"274 418 CURVE SMOOTH",
"274 383 OFFCURVE",
"257 348 OFFCURVE",
"215 326 CURVE SMOOTH",
"195 316 OFFCURVE",
"170 311 OFFCURVE",
"146 311 CURVE SMOOTH",
"48 311 OFFCURVE",
"-11 389 OFFCURVE",
"-11 481 CURVE SMOOTH",
"-11 558 OFFCURVE",
"22 623 OFFCURVE",
"88 660 CURVE SMOOTH",
"109 672 OFFCURVE",
"136 680 OFFCURVE",
"160 680 CURVE SMOOTH",
"306 680 OFFCURVE",
"376 574 OFFCURVE",
"385 437 CURVE SMOOTH",
"387 406 LINE",
"367 344 OFFCURVE",
"353 280 OFFCURVE",
"340 216 CURVE SMOOTH",
"334 190 OFFCURVE",
"320 124 OFFCURVE",
"320 66 CURVE SMOOTH",
"320 10 OFFCURVE",
"334 -40 OFFCURVE",
"384 -40 CURVE SMOOTH",
"445 -40 OFFCURVE",
"455 45 OFFCURVE",
"455 113 CURVE SMOOTH",
"455 138 OFFCURVE",
"454 160 OFFCURVE",
"453 175 CURVE SMOOTH",
"449 245 OFFCURVE",
"441 314 OFFCURVE",
"437 385 CURVE",
"480 506 OFFCURVE",
"557 669 OFFCURVE",
"652 669 CURVE SMOOTH",
"772 669 OFFCURVE",
"809 578 OFFCURVE",
"809 468 CURVE SMOOTH",
"809 427 OFFCURVE",
"805 385 OFFCURVE",
"800 345 CURVE SMOOTH",
"792 277 OFFCURVE",
"782 210 OFFCURVE",
"775 142 CURVE SMOOTH",
"770 101 OFFCURVE",
"766 59 OFFCURVE",
"766 18 CURVE SMOOTH",
"766 -26 OFFCURVE",
"788 -95 OFFCURVE",
"851 -95 CURVE SMOOTH"
);
},
{
closed = 1;
nodes = (
"381 8 OFFCURVE",
"378 18 OFFCURVE",
"377 21 CURVE SMOOTH",
"375 32 OFFCURVE",
"374 46 OFFCURVE",
"374 61 CURVE SMOOTH",
"374 120 OFFCURVE",
"388 201 OFFCURVE",
"396 241 CURVE",
"396 220 OFFCURVE",
"397 199 OFFCURVE",
"397 178 CURVE SMOOTH",
"397 149 OFFCURVE",
"396 121 OFFCURVE",
"395 93 CURVE SMOOTH",
"395 88 OFFCURVE",
"395 65 OFFCURVE",
"392 44 CURVE SMOOTH",
"390 26 OFFCURVE",
"390 8 OFFCURVE",
"384 8 CURVE SMOOTH"
);
}
);
};
layerId = "2ADFC918-CAA7-4AF7-825A-5AAC412EF250";
paths = (
{
closed = 1;
nodes = (
"855 -75 OFFCURVE",
"859 -74 OFFCURVE",
"863 -72 CURVE SMOOTH",
"872 -68 OFFCURVE",
"881 -59 OFFCURVE",
"881 -48 CURVE SMOOTH",
"881 -43 OFFCURVE",
"879 -38 OFFCURVE",
"874 -33 CURVE SMOOTH",
"868 -26 OFFCURVE",
"852 -26 OFFCURVE",
"845 -26 CURVE SMOOTH",
"820 -26 OFFCURVE",
"815 26 OFFCURVE",
"815 38 CURVE SMOOTH",
"815 77 OFFCURVE",
"820 118 OFFCURVE",
"824 157 CURVE SMOOTH",
"832 225 OFFCURVE",
"842 292 OFFCURVE",
"849 360 CURVE SMOOTH",
"854 402 OFFCURVE",
"858 445 OFFCURVE",
"858 488 CURVE SMOOTH",
"858 612 OFFCURVE",
"800 737 OFFCURVE",
"659 737 CURVE SMOOTH",
"550 737 OFFCURVE",
"474 635 OFFCURVE",
"425 527 CURVE",
"398 653 OFFCURVE",
"308 749 OFFCURVE",
"166 749 CURVE SMOOTH",
"130 749 OFFCURVE",
"94 741 OFFCURVE",
"63 724 CURVE SMOOTH",
"-19 680 OFFCURVE",
"-60 593 OFFCURVE",
"-60 501 CURVE SMOOTH",
"-60 393 OFFCURVE",
"4 300 OFFCURVE",
"117 283 CURVE SMOOTH",
"127 281 OFFCURVE",
"138 281 OFFCURVE",
"149 281 CURVE SMOOTH",
"179 281 OFFCURVE",
"210 287 OFFCURVE",
"237 301 CURVE SMOOTH",
"294 330 OFFCURVE",
"321 390 OFFCURVE",
"321 447 CURVE SMOOTH",
"321 520 OFFCURVE",
"276 589 OFFCURVE",
"189 589 CURVE SMOOTH",
"184 589 OFFCURVE",
"144 586 OFFCURVE",
"132 580 CURVE SMOOTH",
"121 574 OFFCURVE",
"115 564 OFFCURVE",
"115 554 CURVE SMOOTH",
"115 543 OFFCURVE",
"123 533 OFFCURVE",
"142 533 CURVE SMOOTH",
"154 533 OFFCURVE",
"165 537 OFFCURVE",
"177 540 CURVE SMOOTH",
"181 541 OFFCURVE",
"186 541 OFFCURVE",
"190 541 CURVE SMOOTH",
"236 541 OFFCURVE",
"274 491 OFFCURVE",
"274 438 CURVE SMOOTH",
"274 403 OFFCURVE",
"257 368 OFFCURVE",
"215 346 CURVE SMOOTH",
"195 336 OFFCURVE",
"170 331 OFFCURVE",
"146 331 CURVE SMOOTH",
"48 331 OFFCURVE",
"-11 409 OFFCURVE",
"-11 501 CURVE SMOOTH",
"-11 578 OFFCURVE",
"22 643 OFFCURVE",
"88 680 CURVE SMOOTH",
"109 692 OFFCURVE",
"136 700 OFFCURVE",
"160 700 CURVE SMOOTH",
"306 700 OFFCURVE",
"376 594 OFFCURVE",
"385 457 CURVE SMOOTH",
"387 426 LINE",
"367 364 OFFCURVE",
"353 300 OFFCURVE",
"340 236 CURVE SMOOTH",
"334 210 OFFCURVE",
"320 144 OFFCURVE",
"320 86 CURVE SMOOTH",
"320 30 OFFCURVE",
"334 -20 OFFCURVE",
"384 -20 CURVE SMOOTH",
"445 -20 OFFCURVE",
"455 65 OFFCURVE",
"455 133 CURVE SMOOTH",
"455 158 OFFCURVE",
"454 180 OFFCURVE",
"453 195 CURVE SMOOTH",
"449 265 OFFCURVE",
"441 334 OFFCURVE",
"437 405 CURVE",
"480 526 OFFCURVE",
"557 689 OFFCURVE",
"652 689 CURVE SMOOTH",
"772 689 OFFCURVE",
"809 598 OFFCURVE",
"809 488 CURVE SMOOTH",
"809 447 OFFCURVE",
"805 405 OFFCURVE",
"800 365 CURVE SMOOTH",
"792 297 OFFCURVE",
"782 230 OFFCURVE",
"775 162 CURVE SMOOTH",
"770 121 OFFCURVE",
"766 79 OFFCURVE",
"766 38 CURVE SMOOTH",
"766 -6 OFFCURVE",
"788 -75 OFFCURVE",
"851 -75 CURVE SMOOTH"
);
},
{
closed = 1;
nodes = (
"381 28 OFFCURVE",
"378 38 OFFCURVE",
"377 41 CURVE SMOOTH",
"375 52 OFFCURVE",
"374 66 OFFCURVE",
"374 81 CURVE SMOOTH",
"374 140 OFFCURVE",
"388 221 OFFCURVE",
"396 261 CURVE",
"396 240 OFFCURVE",
"397 219 OFFCURVE",
"397 198 CURVE SMOOTH",
"397 169 OFFCURVE",
"396 141 OFFCURVE",
"395 113 CURVE SMOOTH",
"395 108 OFFCURVE",
"395 85 OFFCURVE",
"392 64 CURVE SMOOTH",
"390 46 OFFCURVE",
"390 28 OFFCURVE",
"384 28 CURVE SMOOTH"
);
}
);
width = 912;
}
);
note = N;
unicode = 004E;
},
{
glyphname = Eng;
lastChange = "2021-11-11 14:10:08 +0000";
layers = (
{
background = {
anchors = (
{
name = bottom;
position = "{1200, -43}";
},
{
name = top;
position = "{1200, 705}";
}
);
paths = (
{
closed = 1;
nodes = (
"758 -379 OFFCURVE",
"806 -76 OFFCURVE",
"849 340 CURVE SMOOTH",
"854 382 OFFCURVE",
"858 425 OFFCURVE",
"858 468 CURVE SMOOTH",
"858 593 OFFCURVE",
"799 720 OFFCURVE",
"654 717 CURVE SMOOTH",
"547 715 OFFCURVE",
"473 613 OFFCURVE",
"425 507 CURVE",
"398 633 OFFCURVE",
"308 729 OFFCURVE",
"166 729 CURVE SMOOTH",
"130 729 OFFCURVE",
"94 721 OFFCURVE",
"63 704 CURVE SMOOTH",
"-19 660 OFFCURVE",
"-60 573 OFFCURVE",
"-60 481 CURVE SMOOTH",
"-60 373 OFFCURVE",
"4 280 OFFCURVE",
"117 263 CURVE SMOOTH",
"127 261 OFFCURVE",
"138 261 OFFCURVE",
"149 261 CURVE SMOOTH",
"179 261 OFFCURVE",
"210 267 OFFCURVE",
"237 281 CURVE SMOOTH",
"294 310 OFFCURVE",
"321 370 OFFCURVE",
"321 427 CURVE SMOOTH",
"321 500 OFFCURVE",
"276 569 OFFCURVE",
"189 569 CURVE SMOOTH",
"184 569 OFFCURVE",
"144 566 OFFCURVE",
"132 560 CURVE SMOOTH",
"121 554 OFFCURVE",
"115 544 OFFCURVE",
"115 534 CURVE SMOOTH",
"115 523 OFFCURVE",
"123 513 OFFCURVE",
"142 513 CURVE SMOOTH",
"154 513 OFFCURVE",
"165 517 OFFCURVE",
"177 520 CURVE SMOOTH",
"181 521 OFFCURVE",
"186 521 OFFCURVE",
"190 521 CURVE SMOOTH",
"236 521 OFFCURVE",
"274 471 OFFCURVE",
"274 418 CURVE SMOOTH",
"274 383 OFFCURVE",
"257 348 OFFCURVE",
"215 326 CURVE SMOOTH",
"195 316 OFFCURVE",
"170 311 OFFCURVE",
"146 311 CURVE SMOOTH",
"48 311 OFFCURVE",
"-11 389 OFFCURVE",
"-11 481 CURVE SMOOTH",
"-11 558 OFFCURVE",
"22 623 OFFCURVE",
"88 660 CURVE SMOOTH",
"109 672 OFFCURVE",
"136 680 OFFCURVE",
"160 680 CURVE SMOOTH",
"306 680 OFFCURVE",
"376 574 OFFCURVE",
"385 437 CURVE SMOOTH",
"387 406 LINE",
"367 344 OFFCURVE",
"353 280 OFFCURVE",
"340 216 CURVE SMOOTH",
"334 190 OFFCURVE",
"320 124 OFFCURVE",
"320 66 CURVE SMOOTH",
"320 10 OFFCURVE",
"334 -40 OFFCURVE",
"384 -40 CURVE SMOOTH",
"445 -40 OFFCURVE",
"455 45 OFFCURVE",
"455 113 CURVE SMOOTH",
"455 138 OFFCURVE",
"454 160 OFFCURVE",
"453 175 CURVE SMOOTH",
"449 245 OFFCURVE",
"441 314 OFFCURVE",
"437 385 CURVE",
"480 506 OFFCURVE",
"557 669 OFFCURVE",
"652 669 CURVE SMOOTH",
"772 669 OFFCURVE",
"809 578 OFFCURVE",
"809 468 CURVE SMOOTH",
"809 427 OFFCURVE",
"805 385 OFFCURVE",
"800 345 CURVE SMOOTH",
"755 -34 OFFCURVE",
"724 -329 OFFCURVE",
"478 -329 CURVE SMOOTH",
"385 -329 OFFCURVE",
"327 -278 OFFCURVE",
"327 -207 CURVE SMOOTH",
"327 -188 OFFCURVE",
"332 -167 OFFCURVE",
"341 -145 CURVE SMOOTH",
"344 -139 OFFCURVE",
"345 -134 OFFCURVE",
"345 -129 CURVE SMOOTH",
"345 -114 OFFCURVE",
"334 -103 OFFCURVE",
"322 -103 CURVE SMOOTH",
"312 -103 OFFCURVE",
"302 -109 OFFCURVE",
"295 -125 CURVE SMOOTH",
"283 -154 OFFCURVE",
"277 -181 OFFCURVE",
"277 -208 CURVE SMOOTH",
"277 -305 OFFCURVE",
"356 -379 OFFCURVE",
"479 -379 CURVE SMOOTH"
);
},
{
closed = 1;
nodes = (
"381 8 OFFCURVE",
"378 18 OFFCURVE",
"377 21 CURVE SMOOTH",
"375 32 OFFCURVE",
"374 46 OFFCURVE",
"374 61 CURVE SMOOTH",
"374 120 OFFCURVE",
"388 201 OFFCURVE",
"396 241 CURVE",
"396 220 OFFCURVE",
"397 199 OFFCURVE",
"397 178 CURVE SMOOTH",
"397 149 OFFCURVE",
"396 121 OFFCURVE",
"395 93 CURVE SMOOTH",
"395 88 OFFCURVE",
"395 65 OFFCURVE",
"392 44 CURVE SMOOTH",
"390 26 OFFCURVE",
"390 8 OFFCURVE",
"384 8 CURVE SMOOTH"
);
}
);
};
layerId = "2ADFC918-CAA7-4AF7-825A-5AAC412EF250";
paths = (
{
closed = 1;
nodes = (
"758 -359 OFFCURVE",
"806 -56 OFFCURVE",
"849 360 CURVE SMOOTH",
"854 402 OFFCURVE",
"858 445 OFFCURVE",
"858 488 CURVE SMOOTH",
"858 612 OFFCURVE",
"800 737 OFFCURVE",
"659 737 CURVE SMOOTH",
"550 737 OFFCURVE",
"474 635 OFFCURVE",
"425 527 CURVE",
"398 653 OFFCURVE",
"308 749 OFFCURVE",
"166 749 CURVE SMOOTH",
"130 749 OFFCURVE",
"94 741 OFFCURVE",
"63 724 CURVE SMOOTH",
"-19 680 OFFCURVE",
"-60 593 OFFCURVE",
"-60 501 CURVE SMOOTH",
"-60 393 OFFCURVE",
"4 300 OFFCURVE",
"117 283 CURVE SMOOTH",
"127 281 OFFCURVE",
"138 281 OFFCURVE",
"149 281 CURVE SMOOTH",
"179 281 OFFCURVE",
"210 287 OFFCURVE",
"237 301 CURVE SMOOTH",
"294 330 OFFCURVE",
"321 390 OFFCURVE",
"321 447 CURVE SMOOTH",
"321 520 OFFCURVE",
"276 589 OFFCURVE",
"189 589 CURVE SMOOTH",
"184 589 OFFCURVE",
"144 586 OFFCURVE",
"132 580 CURVE SMOOTH",
"121 574 OFFCURVE",
"115 564 OFFCURVE",
"115 554 CURVE SMOOTH",
"115 543 OFFCURVE",
"123 533 OFFCURVE",
"142 533 CURVE SMOOTH",
"154 533 OFFCURVE",
"165 537 OFFCURVE",
"177 540 CURVE SMOOTH",
"181 541 OFFCURVE",
"186 541 OFFCURVE",
"190 541 CURVE SMOOTH",
"236 541 OFFCURVE",
"274 491 OFFCURVE",
"274 438 CURVE SMOOTH",
"274 403 OFFCURVE",
"257 368 OFFCURVE",
"215 346 CURVE SMOOTH",
"195 336 OFFCURVE",
"170 331 OFFCURVE",
"146 331 CURVE SMOOTH",
"48 331 OFFCURVE",
"-11 409 OFFCURVE",
"-11 501 CURVE SMOOTH",
"-11 578 OFFCURVE",
"22 643 OFFCURVE",
"88 680 CURVE SMOOTH",
"109 692 OFFCURVE",
"136 700 OFFCURVE",
"160 700 CURVE SMOOTH",
"306 700 OFFCURVE",
"376 594 OFFCURVE",
"385 457 CURVE SMOOTH",
"387 426 LINE",
"367 364 OFFCURVE",
"353 300 OFFCURVE",
"340 236 CURVE SMOOTH",
"334 210 OFFCURVE",
"320 144 OFFCURVE",
"320 86 CURVE SMOOTH",
"320 30 OFFCURVE",
"334 -20 OFFCURVE",
"384 -20 CURVE SMOOTH",
"445 -20 OFFCURVE",
"455 65 OFFCURVE",
"455 133 CURVE SMOOTH",
"455 158 OFFCURVE",
"454 180 OFFCURVE",
"453 195 CURVE SMOOTH",
"449 265 OFFCURVE",
"441 334 OFFCURVE",
"437 405 CURVE",
"480 526 OFFCURVE",
"557 689 OFFCURVE",
"652 689 CURVE SMOOTH",
"772 689 OFFCURVE",
"809 598 OFFCURVE",
"809 488 CURVE SMOOTH",
"809 447 OFFCURVE",
"805 405 OFFCURVE",
"800 365 CURVE SMOOTH",
"755 -14 OFFCURVE",
"724 -309 OFFCURVE",
"478 -309 CURVE SMOOTH",
"385 -309 OFFCURVE",
"327 -258 OFFCURVE",
"327 -187 CURVE SMOOTH",
"327 -168 OFFCURVE",
"332 -147 OFFCURVE",
"341 -125 CURVE SMOOTH",
"344 -119 OFFCURVE",
"345 -114 OFFCURVE",
"345 -109 CURVE SMOOTH",
"345 -94 OFFCURVE",
"334 -83 OFFCURVE",
"322 -83 CURVE SMOOTH",
"312 -83 OFFCURVE",
"302 -89 OFFCURVE",
"295 -105 CURVE SMOOTH",
"283 -134 OFFCURVE",
"277 -161 OFFCURVE",
"277 -188 CURVE SMOOTH",
"277 -285 OFFCURVE",
"356 -359 OFFCURVE",
"479 -359 CURVE SMOOTH"
);
},
{
closed = 1;
nodes = (
"381 28 OFFCURVE",
"378 38 OFFCURVE",
"377 41 CURVE SMOOTH",
"375 52 OFFCURVE",
"374 66 OFFCURVE",
"374 81 CURVE SMOOTH",
"374 140 OFFCURVE",
"388 221 OFFCURVE",
"396 261 CURVE",
"396 240 OFFCURVE",
"397 219 OFFCURVE",
"397 198 CURVE SMOOTH",
"397 169 OFFCURVE",
"396 141 OFFCURVE",
"395 113 CURVE SMOOTH",
"395 108 OFFCURVE",
"395 85 OFFCURVE",
"392 64 CURVE SMOOTH",
"390 46 OFFCURVE",
"390 28 OFFCURVE",
"384 28 CURVE SMOOTH"
);
}
);
width = 903;
}
);
unicode = 014A;
},
{
glyphname = O;
lastChange = "2021-11-11 14:10:08 +0000";
layers = (
{
anchors = (
{
name = bottom;
position = "{361, -42}";
},
{
name = center;
position = "{369, 353}";
},
{
name = ogonek;
position = "{471, -19}";
},
{
name = top;
position = "{369, 742}";
},
{
name = topleft;
position = "{20, 705}";
},
{
name = topright;
position = "{528, 705}";
}
);
background = {
paths = (
{
closed = 1;
nodes = (
"11 45 OFFCURVE",
"185 -62 OFFCURVE",
"361 -62 CURVE SMOOTH",
"544 -62 OFFCURVE",
"730 54 OFFCURVE",
"743 274 CURVE SMOOTH",
"744 286 OFFCURVE",
"744 299 OFFCURVE",
"744 311 CURVE SMOOTH",
"744 412 OFFCURVE",
"717 523 OFFCURVE",
"623 579 CURVE",
"606 694 OFFCURVE",
"488 738 OFFCURVE",
"379 738 CURVE SMOOTH",
"337 738 OFFCURVE",
"297 731 OFFCURVE",
"264 720 CURVE SMOOTH",
"158 683 OFFCURVE",
"82 609 OFFCURVE",
"37 517 CURVE",
"36 518 LINE SMOOTH",
"24 534 OFFCURVE",
"7 560 OFFCURVE",
"3 579 CURVE SMOOTH",
"0 596 OFFCURVE",
"-1 607 OFFCURVE",
"-1 614 CURVE SMOOTH",
"-1 620 OFFCURVE",
"0 624 OFFCURVE",
"1 626 CURVE SMOOTH",
"5 631 LINE SMOOTH",
"12 640 OFFCURVE",
"19 648 OFFCURVE",
"25 658 CURVE SMOOTH",
"29 665 OFFCURVE",
"30 671 OFFCURVE",
"30 676 CURVE SMOOTH",
"30 690 OFFCURVE",
"18 698 OFFCURVE",
"5 698 CURVE SMOOTH",
"0 698 OFFCURVE",
"-5 697 OFFCURVE",
"-10 694 CURVE SMOOTH",
"-15 691 OFFCURVE",
"-19 687 OFFCURVE",
"-22 683 CURVE SMOOTH",
"-42 658 OFFCURVE",
"-50 631 OFFCURVE",
"-50 605 CURVE SMOOTH",
"-50 554 OFFCURVE",
"-20 504 OFFCURVE",
"17 466 CURVE",
"0 416 OFFCURVE",
"-8 363 OFFCURVE",
"-8 309 CURVE SMOOTH",
"-8 296 OFFCURVE",
"-8 283 OFFCURVE",
"-7 270 CURVE SMOOTH"
);
},
{
closed = 1;
nodes = (
"41 284 OFFCURVE",
"41 296 OFFCURVE",
"41 308 CURVE SMOOTH",
"41 349 OFFCURVE",
"46 390 OFFCURVE",
"57 430 CURVE",
"128 377 OFFCURVE",
"219 351 OFFCURVE",
"306 351 CURVE SMOOTH",
"406 351 OFFCURVE",
"540 380 OFFCURVE",
"599 472 CURVE SMOOTH",
"609 487 OFFCURVE",
"616 504 OFFCURVE",
"620 521 CURVE",
"679 471 OFFCURVE",
"695 385 OFFCURVE",
"695 306 CURVE SMOOTH",
"695 296 OFFCURVE",
"694 286 OFFCURVE",
"694 276 CURVE SMOOTH",
"684 87 OFFCURVE",
"523 -13 OFFCURVE",
"362 -13 CURVE SMOOTH",
"209 -13 OFFCURVE",
"58 78 OFFCURVE",
"42 272 CURVE SMOOTH"
);
},
{
closed = 1;
nodes = (
"225 399 OFFCURVE",
"138 426 OFFCURVE",
"75 479 CURVE",
"127 602 OFFCURVE",
"242 690 OFFCURVE",
"376 690 CURVE SMOOTH",
"442 690 OFFCURVE",
"537 664 OFFCURVE",
"566 601 CURVE",
"556 603 OFFCURVE",
"548 604 OFFCURVE",
"537 604 CURVE SMOOTH",
"518 604 OFFCURVE",
"481 600 OFFCURVE",
"469 586 CURVE SMOOTH",
"465 582 LINE",
"462 577 LINE SMOOTH",
"459 573 OFFCURVE",
"458 567 OFFCURVE",
"458 561 CURVE SMOOTH",
"458 551 OFFCURVE",
"463 542 OFFCURVE",
"475 541 CURVE SMOOTH",
"481 541 OFFCURVE",
"498 545 OFFCURVE",
"503 550 CURVE",
"505 551 LINE SMOOTH",
"509 553 OFFCURVE",
"511 553 OFFCURVE",
"514 554 CURVE SMOOTH",
"520 555 OFFCURVE",
"526 556 OFFCURVE",
"532 556 CURVE SMOOTH",
"546 556 OFFCURVE",
"561 553 OFFCURVE",
"574 548 CURVE",
"572 533 OFFCURVE",
"566 518 OFFCURVE",
"559 505 CURVE SMOOTH",
"512 423 OFFCURVE",
"395 399 OFFCURVE",
"306 399 CURVE SMOOTH"
);
}
);
};
layerId = "2ADFC918-CAA7-4AF7-825A-5AAC412EF250";
paths = (
{
closed = 1;
nodes = (
"544 -42 OFFCURVE",
"730 74 OFFCURVE",
"743 294 CURVE SMOOTH",
"744 306 OFFCURVE",
"744 319 OFFCURVE",
"744 331 CURVE SMOOTH",
"744 432 OFFCURVE",
"717 543 OFFCURVE",
"623 599 CURVE",
"606 714 OFFCURVE",
"488 758 OFFCURVE",
"379 758 CURVE SMOOTH",
"337 758 OFFCURVE",
"297 751 OFFCURVE",
"264 740 CURVE SMOOTH",
"158 703 OFFCURVE",
"82 629 OFFCURVE",
"37 537 CURVE",
"36 538 LINE SMOOTH",
"22 552 OFFCURVE",
"7 580 OFFCURVE",
"3 599 CURVE SMOOTH",
"0 616 OFFCURVE",
"-1 627 OFFCURVE",
"-1 634 CURVE SMOOTH",
"-1 640 OFFCURVE",
"0 644 OFFCURVE",
"1 646 CURVE SMOOTH",
"5 651 LINE SMOOTH",
"12 660 OFFCURVE",
"19 668 OFFCURVE",
"25 678 CURVE SMOOTH",
"29 685 OFFCURVE",
"30 691 OFFCURVE",
"30 696 CURVE SMOOTH",
"30 710 OFFCURVE",
"18 718 OFFCURVE",
"5 718 CURVE SMOOTH",
"0 718 OFFCURVE",
"-5 717 OFFCURVE",
"-10 714 CURVE SMOOTH",
"-15 711 OFFCURVE",
"-19 707 OFFCURVE",
"-22 703 CURVE SMOOTH",
"-42 678 OFFCURVE",
"-50 651 OFFCURVE",
"-50 625 CURVE SMOOTH",
"-50 574 OFFCURVE",
"-20 524 OFFCURVE",
"17 486 CURVE",
"0 436 OFFCURVE",
"-8 383 OFFCURVE",
"-8 329 CURVE SMOOTH",
"-8 316 OFFCURVE",
"-8 303 OFFCURVE",
"-7 290 CURVE SMOOTH",
"11 65 OFFCURVE",
"185 -42 OFFCURVE",
"361 -42 CURVE SMOOTH"
);
},
{
closed = 1;
nodes = (
"209 7 OFFCURVE",
"58 98 OFFCURVE",
"42 292 CURVE SMOOTH",
"41 304 OFFCURVE",
"41 316 OFFCURVE",
"41 328 CURVE SMOOTH",
"41 369 OFFCURVE",
"46 410 OFFCURVE",
"57 450 CURVE",
"128 397 OFFCURVE",
"219 371 OFFCURVE",
"306 371 CURVE SMOOTH",
"406 371 OFFCURVE",
"540 400 OFFCURVE",
"599 492 CURVE SMOOTH",
"609 507 OFFCURVE",
"616 524 OFFCURVE",
"620 541 CURVE",
"679 491 OFFCURVE",
"695 405 OFFCURVE",
"695 326 CURVE SMOOTH",
"695 316 OFFCURVE",
"694 306 OFFCURVE",
"694 296 CURVE SMOOTH",
"684 107 OFFCURVE",
"523 7 OFFCURVE",
"362 7 CURVE SMOOTH"
);
},
{
closed = 1;
nodes = (
"225 419 OFFCURVE",
"138 446 OFFCURVE",
"75 499 CURVE",
"127 622 OFFCURVE",
"242 710 OFFCURVE",
"376 710 CURVE SMOOTH",
"442 710 OFFCURVE",
"537 684 OFFCURVE",
"566 621 CURVE",
"556 623 OFFCURVE",
"548 624 OFFCURVE",
"537 624 CURVE SMOOTH",
"518 624 OFFCURVE",
"482 619 OFFCURVE",
"469 606 CURVE SMOOTH",
"465 602 LINE",
"462 597 LINE SMOOTH",
"459 593 OFFCURVE",
"458 587 OFFCURVE",
"458 581 CURVE SMOOTH",
"458 571 OFFCURVE",
"463 562 OFFCURVE",
"475 561 CURVE SMOOTH",
"481 561 OFFCURVE",
"498 565 OFFCURVE",
"503 570 CURVE",
"505 571 LINE SMOOTH",
"509 573 OFFCURVE",
"511 573 OFFCURVE",
"514 574 CURVE SMOOTH",
"520 575 OFFCURVE",
"526 576 OFFCURVE",
"532 576 CURVE SMOOTH",
"546 576 OFFCURVE",
"561 573 OFFCURVE",
"574 568 CURVE",
"572 553 OFFCURVE",
"566 538 OFFCURVE",
"559 525 CURVE SMOOTH",
"512 443 OFFCURVE",
"395 419 OFFCURVE",
"306 419 CURVE SMOOTH"
);
}
);
width = 738;
}
);
note = O;
unicode = 004F;
},
{
glyphname = Oslash;
lastChange = "2021-11-11 14:10:08 +0000";
layers = (
{
anchors = (
{
name = bottom;
position = "{344, 0}";
},
{
name = top;
position = "{358, 751}";
}
);
background = {
paths = (
{
closed = 1;
nodes = (
"532 -24 OFFCURVE",
"672 138 OFFCURVE",
"672 320 CURVE",
"673 320 LINE",
"673 413 OFFCURVE",
"638 511 OFFCURVE",
"577 578 CURVE",
"587 597 OFFCURVE",
"595 616 OFFCURVE",
"595 634 CURVE SMOOTH",
"595 651 OFFCURVE",
"582 660 OFFCURVE",
"569 660 CURVE SMOOTH",
"556 660 OFFCURVE",
"543 651 OFFCURVE",
"543 634 CURVE SMOOTH",
"543 629 OFFCURVE",
"541 623 OFFCURVE",
"537 615 CURVE",
"498 644 OFFCURVE",
"452 661 OFFCURVE",
"400 661 CURVE SMOOTH",
"389 661 OFFCURVE",
"378 661 OFFCURVE",
"367 659 CURVE SMOOTH",
"360 657 OFFCURVE",
"354 655 OFFCURVE",
"347 651 CURVE",
"333 653 OFFCURVE",
"320 654 OFFCURVE",
"307 654 CURVE SMOOTH",
"141 654 OFFCURVE",
"30 481 OFFCURVE",
"30 320 CURVE SMOOTH",
"30 222 OFFCURVE",
"68 130 OFFCURVE",
"133 66 CURVE",
"118 38 OFFCURVE",
"107 9 OFFCURVE",
"107 -18 CURVE SMOOTH",
"107 -32 OFFCURVE",
"118 -41 OFFCURVE",
"130 -41 CURVE SMOOTH",
"141 -41 OFFCURVE",
"153 -34 OFFCURVE",
"158 -15 CURVE",
"159 -13 OFFCURVE",
"159 -8 OFFCURVE",
"159 -6 CURVE SMOOTH",
"159 4 OFFCURVE",
"164 18 OFFCURVE",
"172 32 CURVE",
"221 -3 OFFCURVE",
"282 -24 OFFCURVE",
"349 -24 CURVE SMOOTH"
);
},
{
closed = 1;
nodes = (
"110 163 OFFCURVE",
"80 238 OFFCURVE",
"80 319 CURVE SMOOTH",
"80 452 OFFCURVE",
"165 588 OFFCURVE",
"284 604 CURVE",
"255 572 OFFCURVE",
"233 531 OFFCURVE",
"233 488 CURVE SMOOTH",
"233 464 OFFCURVE",
"240 441 OFFCURVE",
"255 418 CURVE SMOOTH",
"260 411 OFFCURVE",
"267 408 OFFCURVE",
"273 408 CURVE SMOOTH",
"287 408 OFFCURVE",
"300 420 OFFCURVE",
"300 435 CURVE SMOOTH",
"300 439 OFFCURVE",
"298 444 OFFCURVE",
"295 449 CURVE",
"285 459 OFFCURVE",
"281 471 OFFCURVE",
"281 485 CURVE SMOOTH",
"281 538 OFFCURVE",
"347 609 OFFCURVE",
"373 609 CURVE",
"383 611 OFFCURVE",
"392 611 OFFCURVE",
"402 611 CURVE SMOOTH",
"442 611 OFFCURVE",
"479 596 OFFCURVE",
"511 571 CURVE",
"499 553 OFFCURVE",
"487 538 OFFCURVE",
"481 530 CURVE SMOOTH",
"383 405 OFFCURVE",
"288 278 OFFCURVE",
"191 151 CURVE SMOOTH",
"160 109 LINE"
);
},
{
closed = 1;
nodes = (
"290 27 OFFCURVE",
"240 45 OFFCURVE",
"198 75 CURVE",
"211 94 OFFCURVE",
"223 111 OFFCURVE",
"231 121 CURVE SMOOTH",
"327 247 OFFCURVE",
"423 373 OFFCURVE",
"521 497 CURVE SMOOTH",
"548 533 LINE",
"593 476 OFFCURVE",
"620 397 OFFCURVE",
"620 320 CURVE SMOOTH",
"620 163 OFFCURVE",
"499 27 OFFCURVE",
"347 27 CURVE SMOOTH"
);
}
);
};
components = (
{
name = O;
}
);
layerId = "2ADFC918-CAA7-4AF7-825A-5AAC412EF250";
paths = (
{
closed = 1;
nodes = (
"152 -124 OFFCURVE",
"165 -117 OFFCURVE",
"171 -95 CURVE",
"172 -93 OFFCURVE",
"172 -87 OFFCURVE",
"172 -85 CURVE SMOOTH",
"173 -47 OFFCURVE",
"266 75 OFFCURVE",
"287 104 CURVE SMOOTH",
"397 247 OFFCURVE",
"506 391 OFFCURVE",
"617 532 CURVE SMOOTH",
"632 551 OFFCURVE",
"653 577 OFFCURVE",
"670 604 CURVE SMOOTH",
"687 632 OFFCURVE",
"701 661 OFFCURVE",
"701 688 CURVE SMOOTH",
"701 707 OFFCURVE",
"687 717 OFFCURVE",
"672 717 CURVE SMOOTH",
"657 717 OFFCURVE",
"646 707 OFFCURVE",
"646 688 CURVE SMOOTH",
"646 646 OFFCURVE",
"598 581 OFFCURVE",
"582 560 CURVE SMOOTH",
"470 418 OFFCURVE",
"362 274 OFFCURVE",
"252 130 CURVE SMOOTH",
"213 79 OFFCURVE",
"123 -39 OFFCURVE",
"123 -106 CURVE SMOOTH",
"123 -122 OFFCURVE",
"126 -124 OFFCURVE",
"139 -124 CURVE SMOOTH"
);
}
);
width = 738;
}
);
note = Oslash;
unicode = 00D8;
},
{
glyphname = OE;
lastChange = "2021-11-11 14:10:08 +0000";
layers = (
{
background = {
anchors = (
{
name = bottom;
position = "{1060, -37}";
},
{
name = ogonek;
position = "{1056, -37}";
},
{
name = top;
position = "{1084, 752}";
},
{
name = topleft;
position = "{758, 705}";
}
);
paths = (
{
closed = 1;
nodes = (
"722 3 OFFCURVE",
"608 59 OFFCURVE",
"608 189 CURVE SMOOTH",
"608 269 OFFCURVE",
"671 334 OFFCURVE",
"744 370 CURVE",
"784 344 OFFCURVE",
"829 330 OFFCURVE",
"875 330 CURVE SMOOTH",
"948 330 OFFCURVE",
"985 355 OFFCURVE",
"985 389 CURVE SMOOTH",
"985 420 OFFCURVE",
"955 441 OFFCURVE",
"890 448 CURVE SMOOTH",
"845 452 OFFCURVE",
"793 441 OFFCURVE",
"751 426 CURVE",
"720 453 OFFCURVE",
"699 488 OFFCURVE",
"699 525 CURVE SMOOTH",
"699 642 OFFCURVE",
"795 687 OFFCURVE",
"901 687 CURVE SMOOTH",
"953 687 OFFCURVE",
"1016 661 OFFCURVE",
"1016 602 CURVE SMOOTH",
"1016 591 OFFCURVE",
"1012 578 OFFCURVE",
"1006 569 CURVE SMOOTH",
"1001 562 OFFCURVE",
"991 559 OFFCURVE",
"981 559 CURVE SMOOTH",
"966 559 OFFCURVE",
"951 566 OFFCURVE",
"949 574 CURVE",
"949 577 OFFCURVE",
"952 584 OFFCURVE",
"952 588 CURVE SMOOTH",
"953 610 OFFCURVE",
"943 619 OFFCURVE",
"932 619 CURVE SMOOTH",
"919 619 OFFCURVE",
"903 605 OFFCURVE",
"903 587 CURVE SMOOTH",
"903 542 OFFCURVE",
"944 507 OFFCURVE",
"986 507 CURVE SMOOTH",
"1008 507 OFFCURVE",
"1031 518 OFFCURVE",
"1048 542 CURVE SMOOTH",
"1061 560 OFFCURVE",
"1067 583 OFFCURVE",
"1067 605 CURVE SMOOTH",
"1065 691 OFFCURVE",
"974 736 OFFCURVE",
"901 736 CURVE SMOOTH",
"783 736 OFFCURVE",
"670 682 OFFCURVE",
"652 560 CURVE",
"644 566 OFFCURVE",
"634 572 OFFCURVE",
"623 579 CURVE",
"606 694 OFFCURVE",
"488 738 OFFCURVE",
"379 738 CURVE SMOOTH",
"337 738 OFFCURVE",
"297 731 OFFCURVE",
"264 720 CURVE SMOOTH",
"158 683 OFFCURVE",
"82 609 OFFCURVE",
"37 517 CURVE",
"36 518 LINE SMOOTH",
"22 532 OFFCURVE",
"7 560 OFFCURVE",
"3 579 CURVE SMOOTH",
"0 597 OFFCURVE",
"-2 608 OFFCURVE",
"-2 615 CURVE SMOOTH",
"-2 621 OFFCURVE",
"-1 624 OFFCURVE",
"1 626 CURVE SMOOTH",
"5 631 LINE SMOOTH",
"12 640 OFFCURVE",
"19 648 OFFCURVE",
"25 658 CURVE SMOOTH",
"29 665 OFFCURVE",
"30 671 OFFCURVE",
"30 676 CURVE SMOOTH",
"30 690 OFFCURVE",
"18 698 OFFCURVE",
"5 698 CURVE SMOOTH",
"0 698 OFFCURVE",
"-5 697 OFFCURVE",
"-10 694 CURVE SMOOTH",
"-15 691 OFFCURVE",
"-19 687 OFFCURVE",
"-22 683 CURVE SMOOTH",
"-42 658 OFFCURVE",
"-50 631 OFFCURVE",
"-50 605 CURVE SMOOTH",
"-50 554 OFFCURVE",
"-20 504 OFFCURVE",
"17 466 CURVE",
"0 416 OFFCURVE",
"-8 363 OFFCURVE",
"-8 309 CURVE SMOOTH",
"-8 296 OFFCURVE",
"-8 283 OFFCURVE",
"-7 270 CURVE SMOOTH",
"11 45 OFFCURVE",
"186 -62 OFFCURVE",
"362 -62 CURVE SMOOTH",
"457 -62 OFFCURVE",
"552 -31 OFFCURVE",
"624 29 CURVE",
"676 -22 OFFCURVE",
"754 -45 OFFCURVE",
"834 -45 CURVE SMOOTH",
"976 -45 OFFCURVE",
"1123 29 OFFCURVE",
"1136 159 CURVE SMOOTH",
"1137 168 OFFCURVE",
"1137 177 OFFCURVE",
"1137 186 CURVE SMOOTH",
"1137 200 OFFCURVE",
"1136 213 OFFCURVE",
"1132 228 CURVE SMOOTH",
"1121 268 OFFCURVE",
"1088 305 OFFCURVE",
"1041 305 CURVE SMOOTH",
"1033 305 OFFCURVE",
"1007 301 OFFCURVE",
"999 292 CURVE SMOOTH",
"989 281 OFFCURVE",
"985 273 OFFCURVE",
"985 267 CURVE SMOOTH",
"985 255 OFFCURVE",
"1002 252 OFFCURVE",
"1018 252 CURVE SMOOTH",
"1031 252 OFFCURVE",
"1043 254 OFFCURVE",
"1042 254 CURVE SMOOTH",
"1090 255 OFFCURVE",
"1088 196 OFFCURVE",
"1087 162 CURVE SMOOTH",
"1086 141 OFFCURVE",
"1077 120 OFFCURVE",
"1066 102 CURVE SMOOTH",
"1020 31 OFFCURVE",
"920 3 OFFCURVE",
"839 3 CURVE SMOOTH"
);
},
{
closed = 1;
nodes = (
"530 14 OFFCURVE",
"446 -13 OFFCURVE",
"362 -13 CURVE SMOOTH",
"209 -13 OFFCURVE",
"58 78 OFFCURVE",
"42 272 CURVE SMOOTH",
"41 284 OFFCURVE",
"41 296 OFFCURVE",
"41 308 CURVE SMOOTH",
"41 349 OFFCURVE",
"46 390 OFFCURVE",
"57 430 CURVE",
"128 377 OFFCURVE",
"219 351 OFFCURVE",
"306 351 CURVE SMOOTH",
"406 351 OFFCURVE",
"540 380 OFFCURVE",
"599 472 CURVE SMOOTH",
"609 487 OFFCURVE",
"616 504 OFFCURVE",
"620 521 CURVE",
"634 509 OFFCURVE",
"646 495 OFFCURVE",
"655 480 CURVE",
"664 451 OFFCURVE",
"680 425 OFFCURVE",
"701 403 CURVE",
"622 359 OFFCURVE",
"561 285 OFFCURVE",
"561 188 CURVE SMOOTH",
"561 140 OFFCURVE",
"573 100 OFFCURVE",
"593 67 CURVE"
);
},
{
closed = 1;
nodes = (
"225 399 OFFCURVE",
"138 426 OFFCURVE",
"75 479 CURVE",
"128 604 OFFCURVE",
"246 693 OFFCURVE",
"383 690 CURVE SMOOTH",
"448 688 OFFCURVE",
"538 662 OFFCURVE",
"566 601 CURVE",
"556 603 OFFCURVE",
"548 604 OFFCURVE",
"538 604 CURVE SMOOTH",
"520 604 OFFCURVE",
"483 600 OFFCURVE",
"469 586 CURVE SMOOTH",
"465 582 LINE",
"462 577 LINE SMOOTH",
"459 573 OFFCURVE",
"458 567 OFFCURVE",
"458 561 CURVE SMOOTH",
"458 551 OFFCURVE",
"463 542 OFFCURVE",
"475 541 CURVE SMOOTH",
"481 541 OFFCURVE",
"498 545 OFFCURVE",
"503 550 CURVE",
"505 551 LINE SMOOTH",
"509 553 OFFCURVE",
"511 553 OFFCURVE",
"514 554 CURVE SMOOTH",
"520 555 OFFCURVE",
"526 556 OFFCURVE",
"532 556 CURVE SMOOTH",
"546 556 OFFCURVE",
"561 553 OFFCURVE",
"574 548 CURVE",
"572 533 OFFCURVE",
"566 518 OFFCURVE",
"559 505 CURVE SMOOTH",
"512 423 OFFCURVE",
"395 399 OFFCURVE",
"306 399 CURVE SMOOTH"
);
},
{
closed = 1;
nodes = (
"932 374 OFFCURVE",
"913 369 OFFCURVE",
"889 369 CURVE SMOOTH",
"851 369 OFFCURVE",
"801 381 OFFCURVE",
"789 396 CURVE",
"801 405 OFFCURVE",
"844 415 OFFCURVE",
"880 415 CURVE SMOOTH",
"911 415 OFFCURVE",
"937 408 OFFCURVE",
"934 387 CURVE SMOOTH"
);
}
);
};
layerId = "2ADFC918-CAA7-4AF7-825A-5AAC412EF250";
paths = (
{
closed = 1;
nodes = (
"457 -42 OFFCURVE",
"552 -11 OFFCURVE",
"624 49 CURVE",
"676 -2 OFFCURVE",
"754 -25 OFFCURVE",
"834 -25 CURVE SMOOTH",
"976 -25 OFFCURVE",
"1123 49 OFFCURVE",
"1136 179 CURVE SMOOTH",
"1137 188 OFFCURVE",
"1137 197 OFFCURVE",
"1137 206 CURVE SMOOTH",
"1137 220 OFFCURVE",
"1136 233 OFFCURVE",
"1132 248 CURVE SMOOTH",
"1121 288 OFFCURVE",
"1088 325 OFFCURVE",
"1041 325 CURVE SMOOTH",
"1033 325 OFFCURVE",
"1007 321 OFFCURVE",
"999 312 CURVE SMOOTH",
"989 301 OFFCURVE",
"985 293 OFFCURVE",
"985 287 CURVE SMOOTH",
"985 275 OFFCURVE",
"1002 272 OFFCURVE",
"1018 272 CURVE SMOOTH",
"1033 272 OFFCURVE",
"1046 274 OFFCURVE",
"1043 274 CURVE SMOOTH",
"1090 274 OFFCURVE",
"1088 216 OFFCURVE",
"1087 182 CURVE SMOOTH",
"1086 161 OFFCURVE",
"1077 140 OFFCURVE",
"1066 122 CURVE SMOOTH",
"1020 51 OFFCURVE",
"920 23 OFFCURVE",
"839 23 CURVE SMOOTH",
"722 23 OFFCURVE",
"608 79 OFFCURVE",
"608 209 CURVE SMOOTH",
"608 289 OFFCURVE",
"671 354 OFFCURVE",
"744 390 CURVE",
"784 364 OFFCURVE",
"829 350 OFFCURVE",
"875 350 CURVE SMOOTH",
"948 350 OFFCURVE",
"985 375 OFFCURVE",
"985 409 CURVE SMOOTH",
"985 440 OFFCURVE",
"955 461 OFFCURVE",
"890 468 CURVE SMOOTH",
"845 472 OFFCURVE",
"793 461 OFFCURVE",
"751 446 CURVE",
"720 473 OFFCURVE",
"699 508 OFFCURVE",
"699 545 CURVE SMOOTH",
"699 662 OFFCURVE",
"795 707 OFFCURVE",
"901 707 CURVE SMOOTH",
"953 707 OFFCURVE",
"1016 681 OFFCURVE",
"1016 622 CURVE SMOOTH",
"1016 611 OFFCURVE",
"1012 598 OFFCURVE",
"1006 589 CURVE SMOOTH",
"1001 582 OFFCURVE",
"991 579 OFFCURVE",
"981 579 CURVE SMOOTH",
"966 579 OFFCURVE",
"951 586 OFFCURVE",
"949 594 CURVE",
"949 597 OFFCURVE",
"952 604 OFFCURVE",
"952 608 CURVE SMOOTH",
"953 630 OFFCURVE",
"943 639 OFFCURVE",
"932 639 CURVE SMOOTH",
"919 639 OFFCURVE",
"903 625 OFFCURVE",
"903 607 CURVE SMOOTH",
"903 562 OFFCURVE",
"944 527 OFFCURVE",
"986 527 CURVE SMOOTH",
"1008 527 OFFCURVE",
"1031 538 OFFCURVE",
"1048 562 CURVE SMOOTH",
"1061 580 OFFCURVE",
"1067 603 OFFCURVE",
"1067 625 CURVE SMOOTH",
"1065 711 OFFCURVE",
"974 756 OFFCURVE",
"901 756 CURVE SMOOTH",
"783 756 OFFCURVE",
"670 702 OFFCURVE",
"652 580 CURVE",
"644 586 OFFCURVE",
"634 592 OFFCURVE",
"623 599 CURVE",
"606 714 OFFCURVE",
"488 758 OFFCURVE",
"379 758 CURVE SMOOTH",
"337 758 OFFCURVE",
"297 751 OFFCURVE",
"264 740 CURVE SMOOTH",
"158 703 OFFCURVE",
"82 629 OFFCURVE",
"37 537 CURVE",
"36 538 LINE SMOOTH",
"22 552 OFFCURVE",
"7 580 OFFCURVE",
"3 599 CURVE SMOOTH",
"0 617 OFFCURVE",
"-2 628 OFFCURVE",
"-2 635 CURVE SMOOTH",
"-2 641 OFFCURVE",
"-1 644 OFFCURVE",
"1 646 CURVE SMOOTH",
"5 651 LINE SMOOTH",
"12 660 OFFCURVE",
"19 668 OFFCURVE",
"25 678 CURVE SMOOTH",
"29 685 OFFCURVE",
"30 691 OFFCURVE",
"30 696 CURVE SMOOTH",
"30 710 OFFCURVE",
"18 718 OFFCURVE",
"5 718 CURVE SMOOTH",
"0 718 OFFCURVE",
"-5 717 OFFCURVE",
"-10 714 CURVE SMOOTH",
"-15 711 OFFCURVE",
"-19 707 OFFCURVE",
"-22 703 CURVE SMOOTH",
"-42 678 OFFCURVE",
"-50 651 OFFCURVE",
"-50 625 CURVE SMOOTH",
"-50 574 OFFCURVE",
"-20 524 OFFCURVE",
"17 486 CURVE",
"0 436 OFFCURVE",
"-8 383 OFFCURVE",
"-8 329 CURVE SMOOTH",
"-8 316 OFFCURVE",
"-8 303 OFFCURVE",
"-7 290 CURVE SMOOTH",
"11 65 OFFCURVE",
"186 -42 OFFCURVE",
"362 -42 CURVE SMOOTH"
);
},
{
closed = 1;
nodes = (
"209 7 OFFCURVE",
"58 98 OFFCURVE",
"42 292 CURVE SMOOTH",
"41 304 OFFCURVE",
"41 316 OFFCURVE",
"41 328 CURVE SMOOTH",
"41 369 OFFCURVE",
"46 410 OFFCURVE",
"57 450 CURVE",
"128 397 OFFCURVE",
"219 371 OFFCURVE",
"306 371 CURVE SMOOTH",
"406 371 OFFCURVE",
"540 400 OFFCURVE",
"599 492 CURVE SMOOTH",
"609 507 OFFCURVE",
"616 524 OFFCURVE",
"620 541 CURVE",
"634 529 OFFCURVE",
"646 515 OFFCURVE",
"655 500 CURVE",
"664 471 OFFCURVE",
"680 445 OFFCURVE",
"701 423 CURVE",
"622 379 OFFCURVE",
"561 305 OFFCURVE",
"561 208 CURVE SMOOTH",
"561 160 OFFCURVE",
"573 120 OFFCURVE",
"593 87 CURVE",
"530 34 OFFCURVE",
"446 7 OFFCURVE",
"362 7 CURVE SMOOTH"
);
},
{
closed = 1;
nodes = (
"225 419 OFFCURVE",
"138 446 OFFCURVE",
"75 499 CURVE",
"127 622 OFFCURVE",
"242 710 OFFCURVE",
"376 710 CURVE SMOOTH",
"442 710 OFFCURVE",
"537 684 OFFCURVE",
"566 621 CURVE",
"556 623 OFFCURVE",
"548 624 OFFCURVE",
"538 624 CURVE SMOOTH",
"520 624 OFFCURVE",
"483 620 OFFCURVE",
"469 606 CURVE SMOOTH",
"465 602 LINE",
"462 597 LINE SMOOTH",
"459 593 OFFCURVE",
"458 587 OFFCURVE",
"458 581 CURVE SMOOTH",
"458 571 OFFCURVE",
"463 562 OFFCURVE",
"475 561 CURVE SMOOTH",
"481 561 OFFCURVE",
"498 565 OFFCURVE",
"503 570 CURVE",
"505 571 LINE SMOOTH",
"509 573 OFFCURVE",
"511 573 OFFCURVE",
"514 574 CURVE SMOOTH",
"520 575 OFFCURVE",
"526 576 OFFCURVE",
"532 576 CURVE SMOOTH",
"546 576 OFFCURVE",
"561 573 OFFCURVE",
"574 568 CURVE",
"572 553 OFFCURVE",
"566 538 OFFCURVE",
"559 525 CURVE SMOOTH",
"512 443 OFFCURVE",
"395 419 OFFCURVE",
"306 419 CURVE SMOOTH"
);
},
{
closed = 1;
nodes = (
"851 389 OFFCURVE",
"801 401 OFFCURVE",
"789 416 CURVE",
"801 425 OFFCURVE",
"844 435 OFFCURVE",
"880 435 CURVE SMOOTH",
"909 435 OFFCURVE",
"934 429 OFFCURVE",
"934 410 CURVE SMOOTH",
"934 395 OFFCURVE",
"915 389 OFFCURVE",
"889 389 CURVE SMOOTH"
);
}
);
width = 1139;
}
);
note = OE;
unicode = 0152;
},
{
glyphname = P;
lastChange = "2021-11-11 00:11:46 +0000";
layers = (
{
background = {
paths = (
{
closed = 1;
nodes = (
"216 -70 OFFCURVE",
"232 27 OFFCURVE",
"237 81 CURVE SMOOTH",
"242 132 OFFCURVE",
"242 183 OFFCURVE",
"244 235 CURVE",
"259 234 OFFCURVE",
"274 233 OFFCURVE",
"288 233 CURVE SMOOTH",
"507 233 OFFCURVE",
"614 353 OFFCURVE",
"614 473 CURVE SMOOTH",
"614 597 OFFCURVE",
"502 723 OFFCURVE",
"286 723 CURVE SMOOTH",
"165 723 OFFCURVE",
"15 679 OFFCURVE",
"-41 559 CURVE SMOOTH",
"-54 532 OFFCURVE",
"-61 501 OFFCURVE",
"-61 470 CURVE SMOOTH",
"-61 442 OFFCURVE",
"-55 414 OFFCURVE",
"-40 390 CURVE SMOOTH",
"-14 349 OFFCURVE",
"36 323 OFFCURVE",
"85 323 CURVE SMOOTH",
"104 323 OFFCURVE",
"122 327 OFFCURVE",
"139 335 CURVE SMOOTH",
"144 337 OFFCURVE",
"163 348 OFFCURVE",
"166 354 CURVE SMOOTH",
"171 362 OFFCURVE",
"173 368 OFFCURVE",
"173 374 CURVE SMOOTH",
"173 387 OFFCURVE",
"162 393 OFFCURVE",
"149 393 CURVE SMOOTH",
"141 393 OFFCURVE",
"132 390 OFFCURVE",
"126 384 CURVE SMOOTH",
"116 374 OFFCURVE",
"111 372 OFFCURVE",
"90 372 CURVE SMOOTH",
"38 372 OFFCURVE",
"-12 414 OFFCURVE",
"-12 467 CURVE SMOOTH",
"-12 495 OFFCURVE",
"-3 524 OFFCURVE",
"10 548 CURVE SMOOTH",
"60 637 OFFCURVE",
"177 674 OFFCURVE",
"284 674 CURVE SMOOTH",
"326 674 OFFCURVE",
"366 668 OFFCURVE",
"400 658 CURVE SMOOTH",
"476 635 OFFCURVE",
"562 577 OFFCURVE",
"565 492 CURVE SMOOTH",
"570 369 OFFCURVE",
"487 313 OFFCURVE",
"374 291 CURVE SMOOTH",
"345 285 OFFCURVE",
"315 282 OFFCURVE",
"286 282 CURVE SMOOTH",
"273 282 OFFCURVE",
"261 283 OFFCURVE",
"248 284 CURVE",
"248 334 OFFCURVE",
"247 493 OFFCURVE",
"283 535 CURVE SMOOTH",
"286 538 OFFCURVE",
"289 542 OFFCURVE",
"299 549 CURVE SMOOTH",
"306 553 OFFCURVE",
"308 559 OFFCURVE",
"308 565 CURVE SMOOTH",
"308 576 OFFCURVE",
"298 586 OFFCURVE",
"283 586 CURVE SMOOTH",
"278 586 OFFCURVE",
"273 584 OFFCURVE",
"267 582 CURVE",
"206 549 OFFCURVE",
"204 443 OFFCURVE",
"201 384 CURVE SMOOTH",
"198 307 OFFCURVE",
"195 4 OFFCURVE",
"162 -21 CURVE",
"150 -21 OFFCURVE",
"135 -20 OFFCURVE",
"127 -30 CURVE SMOOTH",
"124 -34 OFFCURVE",
"122 -40 OFFCURVE",
"122 -46 CURVE SMOOTH",
"122 -58 OFFCURVE",
"130 -70 OFFCURVE",
"155 -70 CURVE SMOOTH"
);
}
);
};
layerId = "2ADFC918-CAA7-4AF7-825A-5AAC412EF250";
paths = (
{
closed = 1;
nodes = (
"216 -50 OFFCURVE",
"232 47 OFFCURVE",
"237 101 CURVE SMOOTH",
"242 152 OFFCURVE",
"242 203 OFFCURVE",
"244 255 CURVE",
"259 254 OFFCURVE",
"274 253 OFFCURVE",
"288 253 CURVE SMOOTH",
"507 253 OFFCURVE",
"614 373 OFFCURVE",
"614 493 CURVE SMOOTH",
"614 617 OFFCURVE",
"502 743 OFFCURVE",
"286 743 CURVE SMOOTH",
"165 743 OFFCURVE",
"15 699 OFFCURVE",
"-41 579 CURVE SMOOTH",
"-54 552 OFFCURVE",
"-61 521 OFFCURVE",
"-61 490 CURVE SMOOTH",
"-61 462 OFFCURVE",
"-55 434 OFFCURVE",
"-40 410 CURVE SMOOTH",
"-14 369 OFFCURVE",
"36 343 OFFCURVE",
"85 343 CURVE SMOOTH",
"104 343 OFFCURVE",
"122 347 OFFCURVE",
"139 355 CURVE SMOOTH",
"144 357 OFFCURVE",
"163 368 OFFCURVE",
"166 374 CURVE SMOOTH",
"171 382 OFFCURVE",
"173 388 OFFCURVE",
"173 394 CURVE SMOOTH",
"173 407 OFFCURVE",
"162 413 OFFCURVE",
"149 413 CURVE SMOOTH",
"141 413 OFFCURVE",
"132 410 OFFCURVE",
"126 404 CURVE SMOOTH",
"116 394 OFFCURVE",
"111 392 OFFCURVE",
"90 392 CURVE SMOOTH",
"38 392 OFFCURVE",
"-12 434 OFFCURVE",
"-12 487 CURVE SMOOTH",
"-12 515 OFFCURVE",
"-3 544 OFFCURVE",
"10 568 CURVE SMOOTH",
"60 657 OFFCURVE",
"177 694 OFFCURVE",
"284 694 CURVE SMOOTH",
"326 694 OFFCURVE",
"366 688 OFFCURVE",
"400 678 CURVE SMOOTH",
"476 655 OFFCURVE",
"562 597 OFFCURVE",
"565 512 CURVE SMOOTH",
"570 389 OFFCURVE",
"487 333 OFFCURVE",
"374 311 CURVE SMOOTH",
"345 305 OFFCURVE",
"315 302 OFFCURVE",
"286 302 CURVE SMOOTH",
"273 302 OFFCURVE",
"261 303 OFFCURVE",
"248 304 CURVE",
"248 354 OFFCURVE",
"247 513 OFFCURVE",
"283 555 CURVE SMOOTH",
"286 558 OFFCURVE",
"289 562 OFFCURVE",
"299 569 CURVE SMOOTH",
"306 573 OFFCURVE",
"308 579 OFFCURVE",
"308 585 CURVE SMOOTH",
"308 596 OFFCURVE",
"298 606 OFFCURVE",
"283 606 CURVE SMOOTH",
"278 606 OFFCURVE",
"273 604 OFFCURVE",
"267 602 CURVE",
"206 569 OFFCURVE",
"204 463 OFFCURVE",
"201 404 CURVE SMOOTH",
"198 327 OFFCURVE",
"195 24 OFFCURVE",
"162 -1 CURVE",
"150 -1 OFFCURVE",
"135 0 OFFCURVE",
"127 -10 CURVE SMOOTH",
"124 -14 OFFCURVE",
"122 -20 OFFCURVE",
"122 -26 CURVE SMOOTH",
"122 -38 OFFCURVE",
"130 -50 OFFCURVE",
"155 -50 CURVE SMOOTH"
);
}
);
width = 594;
}
);
note = P;
unicode = 0050;
},
{
glyphname = Thorn;
lastChange = "2021-11-11 14:10:08 +0000";
layers = (
{
layerId = "2ADFC918-CAA7-4AF7-825A-5AAC412EF250";
paths = (
{
closed = 1;
nodes = (
"216 -50 OFFCURVE",
"232 39 OFFCURVE",
"237 93 CURVE",
"244 95 LINE",
"259 94 OFFCURVE",
"274 93 OFFCURVE",
"288 93 CURVE SMOOTH",
"507 93 OFFCURVE",
"614 213 OFFCURVE",
"614 333 CURVE SMOOTH",
"614 452 OFFCURVE",
"517 588 OFFCURVE",
"275 588 CURVE SMOOTH",
"265 588 OFFCURVE",
"255 587 OFFCURVE",
"244 587 CURVE",
"242 538 LINE",
"284 538 OFFCURVE",
"366 528 OFFCURVE",
"400 518 CURVE SMOOTH",
"476 495 OFFCURVE",
"562 437 OFFCURVE",
"565 352 CURVE SMOOTH",
"570 229 OFFCURVE",
"487 173 OFFCURVE",
"374 151 CURVE SMOOTH",
"345 145 OFFCURVE",
"315 142 OFFCURVE",
"286 142 CURVE SMOOTH",
"273 142 OFFCURVE",
"261 143 OFFCURVE",
"248 144 CURVE",
"248 168 OFFCURVE",
"244 283 OFFCURVE",
"244 403 CURVE SMOOTH",
"244 539 OFFCURVE",
"249 680 OFFCURVE",
"268 702 CURVE SMOOTH",
"271 705 OFFCURVE",
"274 709 OFFCURVE",
"284 716 CURVE SMOOTH",
"291 720 OFFCURVE",
"293 726 OFFCURVE",
"293 732 CURVE SMOOTH",
"293 743 OFFCURVE",
"283 753 OFFCURVE",
"268 753 CURVE SMOOTH",
"263 753 OFFCURVE",
"258 751 OFFCURVE",
"252 749 CURVE",
"191 716 OFFCURVE",
"204 463 OFFCURVE",
"201 404 CURVE SMOOTH",
"198 327 OFFCURVE",
"195 24 OFFCURVE",
"162 -1 CURVE",
"150 -1 OFFCURVE",
"135 0 OFFCURVE",
"127 -10 CURVE SMOOTH",
"124 -14 OFFCURVE",
"122 -20 OFFCURVE",
"122 -26 CURVE SMOOTH",
"122 -38 OFFCURVE",
"130 -50 OFFCURVE",
"155 -50 CURVE SMOOTH"
);
}
);
width = 594;
}
);
unicode = 00DE;
},
{
glyphname = Q;
lastChange = "2021-11-11 14:06:44 +0000";
layers = (
{
background = {
paths = (
{
closed = 1;
nodes = (
"723 -156 OFFCURVE",
"729 -147 OFFCURVE",
"729 -139 CURVE SMOOTH",
"729 -123 OFFCURVE",
"710 -107 OFFCURVE",
"691 -112 CURVE SMOOTH",
"687 -113 LINE",
"683 -113 LINE SMOOTH",
"626 -116 OFFCURVE",
"587 -72 OFFCURVE",
"551 -35 CURVE",
"624 -5 OFFCURVE",
"702 53 OFFCURVE",
"735 127 CURVE SMOOTH",
"760 184 OFFCURVE",
"774 242 OFFCURVE",
"774 298 CURVE SMOOTH",
"774 367 OFFCURVE",
"754 434 OFFCURVE",
"708 496 CURVE SMOOTH",
"698 509 OFFCURVE",
"685 520 OFFCURVE",
"672 530 CURVE",
"674 540 OFFCURVE",
"675 549 OFFCURVE",
"675 559 CURVE SMOOTH",
"675 564 OFFCURVE",
"675 570 OFFCURVE",
"674 575 CURVE SMOOTH",
"661 693 OFFCURVE",
"541 738 OFFCURVE",
"430 738 CURVE SMOOTH",
"388 738 OFFCURVE",
"347 732 OFFCURVE",
"314 720 CURVE SMOOTH",
"208 683 OFFCURVE",
"132 608 OFFCURVE",
"88 516 CURVE",
"71 541 OFFCURVE",
"61 569 OFFCURVE",
"61 599 CURVE SMOOTH",
"61 611 OFFCURVE",
"64 641 OFFCURVE",
"73 654 CURVE",
"75 656 LINE",
"76 658 OFFCURVE",
"78 661 OFFCURVE",
"78 664 CURVE SMOOTH",
"79 668 OFFCURVE",
"79 672 OFFCURVE",
"79 675 CURVE SMOOTH",
"79 691 OFFCURVE",
"70 698 OFFCURVE",
"59 698 CURVE SMOOTH",
"48 698 OFFCURVE",
"36 691 OFFCURVE",
"31 680 CURVE SMOOTH",
"19 652 OFFCURVE",
"12 631 OFFCURVE",
"12 600 CURVE SMOOTH",
"12 549 OFFCURVE",
"34 502 OFFCURVE",
"67 464 CURVE",
"50 415 OFFCURVE",
"42 362 OFFCURVE",
"42 309 CURVE SMOOTH",
"42 296 OFFCURVE",
"42 283 OFFCURVE",
"43 270 CURVE SMOOTH",
"49 192 OFFCURVE",
"76 119 OFFCURVE",
"127 59 CURVE",
"125 57 LINE",
"117 53 LINE SMOOTH",
"108 49 OFFCURVE",
"103 40 OFFCURVE",
"103 31 CURVE SMOOTH",
"103 19 OFFCURVE",
"113 7 OFFCURVE",
"137 9 CURVE",
"137 9 OFFCURVE",
"157 18 OFFCURVE",
"165 21 CURVE",
"232 -34 OFFCURVE",
"320 -62 OFFCURVE",
"407 -62 CURVE SMOOTH",
"438 -62 OFFCURVE",
"468 -59 OFFCURVE",
"497 -52 CURVE",
"547 -101 OFFCURVE",
"587 -150 OFFCURVE",
"663 -159 CURVE SMOOTH",
"669 -160 OFFCURVE",
"685 -161 OFFCURVE",
"697 -161 CURVE SMOOTH",
"702 -161 OFFCURVE",
"706 -161 OFFCURVE",
"708 -160 CURVE"
);
},
{
closed = 1;
nodes = (
"436 -12 OFFCURVE",
"424 -13 OFFCURVE",
"411 -13 CURVE SMOOTH",
"346 -13 OFFCURVE",
"280 4 OFFCURVE",
"227 39 CURVE",
"241 41 OFFCURVE",
"255 42 OFFCURVE",
"269 42 CURVE SMOOTH",
"332 42 OFFCURVE",
"399 23 OFFCURVE",
"449 -11 CURVE"
);
},
{
closed = 1;
nodes = (
"494 -32 OFFCURVE",
"487 -26 OFFCURVE",
"479 -20 CURVE",
"489 -18 OFFCURVE",
"499 -14 OFFCURVE",
"508 -11 CURVE",
"529 -31 LINE",
"520 -34 OFFCURVE",
"510 -37 OFFCURVE",
"500 -39 CURVE"
);
},
{
closed = 1;
nodes = (
"441 59 OFFCURVE",
"361 92 OFFCURVE",
"276 92 CURVE SMOOTH",
"243 92 OFFCURVE",
"210 87 OFFCURVE",
"177 77 CURVE",
"124 130 OFFCURVE",
"98 197 OFFCURVE",
"92 272 CURVE SMOOTH",
"91 284 OFFCURVE",
"91 295 OFFCURVE",
"91 307 CURVE SMOOTH",
"91 347 OFFCURVE",
"96 388 OFFCURVE",
"107 426 CURVE",
"177 373 OFFCURVE",
"271 351 OFFCURVE",
"357 351 CURVE SMOOTH",
"458 351 OFFCURVE",
"594 380 OFFCURVE",
"652 477 CURVE SMOOTH",
"655 482 LINE",
"669 467 LINE",
"709 414 OFFCURVE",
"727 358 OFFCURVE",
"727 299 CURVE SMOOTH",
"727 249 OFFCURVE",
"714 198 OFFCURVE",
"692 147 CURVE SMOOTH",
"662 78 OFFCURVE",
"583 25 OFFCURVE",
"511 2 CURVE"
);
},
{
closed = 1;
nodes = (
"275 399 OFFCURVE",
"185 419 OFFCURVE",
"124 474 CURVE",
"175 598 OFFCURVE",
"291 690 OFFCURVE",
"426 690 CURVE SMOOTH",
"497 690 OFFCURVE",
"631 657 OFFCURVE",
"625 555 CURVE",
"601 564 OFFCURVE",
"576 569 OFFCURVE",
"552 569 CURVE SMOOTH",
"501 569 OFFCURVE",
"452 547 OFFCURVE",
"417 500 CURVE SMOOTH",
"411 493 OFFCURVE",
"393 466 OFFCURVE",
"391 458 CURVE SMOOTH",
"390 455 OFFCURVE",
"390 451 OFFCURVE",
"390 448 CURVE SMOOTH",
"390 433 OFFCURVE",
"400 423 OFFCURVE",
"412 423 CURVE SMOOTH",
"419 423 OFFCURVE",
"427 427 OFFCURVE",
"434 435 CURVE SMOOTH",
"437 439 OFFCURVE",
"439 443 OFFCURVE",
"441 447 CURVE SMOOTH",
"448 463 OFFCURVE",
"459 477 OFFCURVE",
"471 489 CURVE SMOOTH",
"494 510 OFFCURVE",
"524 520 OFFCURVE",
"555 520 CURVE SMOOTH",
"574 520 OFFCURVE",
"594 516 OFFCURVE",
"612 509 CURVE",
"566 422 OFFCURVE",
"441 399 OFFCURVE",
"357 399 CURVE SMOOTH"
);
}
);
};
layerId = "2ADFC918-CAA7-4AF7-825A-5AAC412EF250";
paths = (
{
closed = 1;
nodes = (
"702 -141 OFFCURVE",
"706 -141 OFFCURVE",
"708 -140 CURVE",
"723 -136 OFFCURVE",
"729 -127 OFFCURVE",
"729 -119 CURVE SMOOTH",
"729 -103 OFFCURVE",
"710 -87 OFFCURVE",
"691 -92 CURVE SMOOTH",
"687 -93 LINE",
"683 -93 LINE SMOOTH",
"626 -96 OFFCURVE",
"587 -52 OFFCURVE",
"551 -15 CURVE",
"624 15 OFFCURVE",
"702 73 OFFCURVE",
"735 147 CURVE SMOOTH",
"760 204 OFFCURVE",
"774 262 OFFCURVE",
"774 318 CURVE SMOOTH",
"774 387 OFFCURVE",
"754 454 OFFCURVE",
"708 516 CURVE SMOOTH",
"698 529 OFFCURVE",
"685 540 OFFCURVE",
"672 550 CURVE",
"674 560 OFFCURVE",
"675 569 OFFCURVE",
"675 579 CURVE SMOOTH",
"675 584 OFFCURVE",
"675 590 OFFCURVE",
"674 595 CURVE SMOOTH",
"661 713 OFFCURVE",
"541 758 OFFCURVE",
"430 758 CURVE SMOOTH",
"388 758 OFFCURVE",
"347 752 OFFCURVE",
"314 740 CURVE SMOOTH",
"208 703 OFFCURVE",
"132 628 OFFCURVE",
"88 536 CURVE",
"71 561 OFFCURVE",
"61 589 OFFCURVE",
"61 619 CURVE SMOOTH",
"61 631 OFFCURVE",
"64 661 OFFCURVE",
"73 674 CURVE",
"75 676 LINE",
"76 678 OFFCURVE",
"78 681 OFFCURVE",
"78 684 CURVE SMOOTH",
"79 688 OFFCURVE",
"79 692 OFFCURVE",
"79 695 CURVE SMOOTH",
"79 711 OFFCURVE",
"70 718 OFFCURVE",
"59 718 CURVE SMOOTH",
"48 718 OFFCURVE",
"36 711 OFFCURVE",
"31 700 CURVE SMOOTH",
"19 672 OFFCURVE",
"12 651 OFFCURVE",
"12 620 CURVE SMOOTH",
"12 569 OFFCURVE",
"34 522 OFFCURVE",
"67 484 CURVE",
"50 435 OFFCURVE",
"42 382 OFFCURVE",
"42 329 CURVE SMOOTH",
"42 316 OFFCURVE",
"42 303 OFFCURVE",
"43 290 CURVE SMOOTH",
"49 212 OFFCURVE",
"76 139 OFFCURVE",
"127 79 CURVE",
"125 77 LINE",
"117 73 LINE SMOOTH",
"108 69 OFFCURVE",
"103 60 OFFCURVE",
"103 51 CURVE SMOOTH",
"103 39 OFFCURVE",
"113 27 OFFCURVE",
"137 29 CURVE",
"137 29 OFFCURVE",
"157 38 OFFCURVE",
"165 41 CURVE",
"232 -14 OFFCURVE",
"320 -42 OFFCURVE",
"407 -42 CURVE SMOOTH",
"438 -42 OFFCURVE",
"468 -39 OFFCURVE",
"497 -32 CURVE",
"547 -81 OFFCURVE",
"587 -130 OFFCURVE",
"663 -139 CURVE SMOOTH",
"669 -140 OFFCURVE",
"685 -141 OFFCURVE",
"697 -141 CURVE SMOOTH"
);
},
{
closed = 1;
nodes = (
"346 7 OFFCURVE",
"280 24 OFFCURVE",
"227 59 CURVE",
"241 61 OFFCURVE",
"255 62 OFFCURVE",
"269 62 CURVE SMOOTH",
"332 62 OFFCURVE",
"399 43 OFFCURVE",
"449 9 CURVE",
"436 8 OFFCURVE",
"424 7 OFFCURVE",
"411 7 CURVE SMOOTH"
);
},
{
closed = 1;
nodes = (
"494 -12 OFFCURVE",
"487 -6 OFFCURVE",
"479 0 CURVE",
"489 2 OFFCURVE",
"499 6 OFFCURVE",
"508 9 CURVE",
"529 -11 LINE",
"520 -14 OFFCURVE",
"510 -17 OFFCURVE",
"500 -19 CURVE"
);
},
{
closed = 1;
nodes = (
"441 79 OFFCURVE",
"361 112 OFFCURVE",
"276 112 CURVE SMOOTH",
"243 112 OFFCURVE",
"210 107 OFFCURVE",
"177 97 CURVE",
"124 150 OFFCURVE",
"98 217 OFFCURVE",
"92 292 CURVE SMOOTH",
"91 304 OFFCURVE",
"91 315 OFFCURVE",
"91 327 CURVE SMOOTH",
"91 367 OFFCURVE",
"96 408 OFFCURVE",
"107 446 CURVE",
"177 393 OFFCURVE",
"271 371 OFFCURVE",
"357 371 CURVE SMOOTH",
"458 371 OFFCURVE",
"594 400 OFFCURVE",
"652 497 CURVE SMOOTH",
"655 502 LINE",
"669 487 LINE",
"709 434 OFFCURVE",
"727 378 OFFCURVE",
"727 319 CURVE SMOOTH",
"727 269 OFFCURVE",
"714 218 OFFCURVE",
"692 167 CURVE SMOOTH",
"662 98 OFFCURVE",
"583 45 OFFCURVE",
"511 22 CURVE"
);
},
{
closed = 1;
nodes = (
"275 419 OFFCURVE",
"185 439 OFFCURVE",
"124 494 CURVE",
"175 618 OFFCURVE",
"291 710 OFFCURVE",
"426 710 CURVE SMOOTH",
"497 710 OFFCURVE",
"631 677 OFFCURVE",
"625 575 CURVE",
"601 584 OFFCURVE",
"576 589 OFFCURVE",
"552 589 CURVE SMOOTH",
"501 589 OFFCURVE",
"452 567 OFFCURVE",
"417 520 CURVE SMOOTH",
"411 513 OFFCURVE",
"393 486 OFFCURVE",
"391 478 CURVE SMOOTH",
"390 475 OFFCURVE",
"390 471 OFFCURVE",
"390 468 CURVE SMOOTH",
"390 453 OFFCURVE",
"400 443 OFFCURVE",
"412 443 CURVE SMOOTH",
"419 443 OFFCURVE",
"427 447 OFFCURVE",
"434 455 CURVE SMOOTH",
"437 459 OFFCURVE",
"439 463 OFFCURVE",
"441 467 CURVE SMOOTH",
"448 483 OFFCURVE",
"459 497 OFFCURVE",
"471 509 CURVE SMOOTH",
"494 530 OFFCURVE",
"524 540 OFFCURVE",
"555 540 CURVE SMOOTH",
"574 540 OFFCURVE",
"594 536 OFFCURVE",
"612 529 CURVE",
"566 442 OFFCURVE",
"441 419 OFFCURVE",
"357 419 CURVE SMOOTH"
);
}
);
width = 768;
}
);
note = Q;
unicode = 0051;
},
{
glyphname = R;
lastChange = "2021-11-11 14:10:08 +0000";
layers = (
{
anchors = (
{
name = bottom;
position = "{521, 0}";
},
{
name = top;
position = "{623, 705}";
}
);
background = {
paths = (
{
closed = 1;
nodes = (
"868 -95 OFFCURVE",
"896 -92 OFFCURVE",
"906 -88 CURVE SMOOTH",
"917 -82 OFFCURVE",
"922 -73 OFFCURVE",
"922 -64 CURVE SMOOTH",
"922 -53 OFFCURVE",
"913 -42 OFFCURVE",
"895 -42 CURVE SMOOTH",
"890 -42 OFFCURVE",
"885 -44 OFFCURVE",
"880 -45 CURVE SMOOTH",
"875 -46 OFFCURVE",
"870 -47 OFFCURVE",
"865 -47 CURVE SMOOTH",
"784 -47 OFFCURVE",
"701 73 OFFCURVE",
"660 132 CURVE SMOOTH",
"625 181 OFFCURVE",
"581 237 OFFCURVE",
"529 282 CURVE",
"595 298 OFFCURVE",
"658 332 OFFCURVE",
"697 380 CURVE SMOOTH",
"726 416 OFFCURVE",
"742 460 OFFCURVE",
"742 504 CURVE SMOOTH",
"742 531 OFFCURVE",
"736 559 OFFCURVE",
"723 585 CURVE SMOOTH",
"662 708 OFFCURVE",
"500 738 OFFCURVE",
"380 738 CURVE SMOOTH",
"207 738 OFFCURVE",
"37 665 OFFCURVE",
"4 475 CURVE SMOOTH",
"2 462 OFFCURVE",
"1 450 OFFCURVE",
"1 437 CURVE SMOOTH",
"1 346 OFFCURVE",
"59 268 OFFCURVE",
"166 268 CURVE SMOOTH",
"194 268 OFFCURVE",
"223 274 OFFCURVE",
"247 288 CURVE SMOOTH",
"283 309 OFFCURVE",
"305 354 OFFCURVE",
"305 397 CURVE SMOOTH",
"305 434 OFFCURVE",
"289 469 OFFCURVE",
"253 486 CURVE SMOOTH",
"246 489 OFFCURVE",
"222 497 OFFCURVE",
"214 496 CURVE SMOOTH",
"196 493 OFFCURVE",
"189 484 OFFCURVE",
"189 475 CURVE SMOOTH",
"189 459 OFFCURVE",
"210 441 OFFCURVE",
"228 445 CURVE",
"230 445 LINE SMOOTH",
"232 445 OFFCURVE",
"232 444 OFFCURVE",
"238 440 CURVE SMOOTH",
"250 431 OFFCURVE",
"256 414 OFFCURVE",
"256 397 CURVE SMOOTH",
"256 370 OFFCURVE",
"244 342 OFFCURVE",
"225 331 CURVE SMOOTH",
"209 322 OFFCURVE",
"184 317 OFFCURVE",
"164 317 CURVE SMOOTH",
"89 317 OFFCURVE",
"50 371 OFFCURVE",
"50 436 CURVE SMOOTH",
"50 446 OFFCURVE",
"51 457 OFFCURVE",
"53 467 CURVE SMOOTH",
"79 631 OFFCURVE",
"228 689 OFFCURVE",
"380 689 CURVE SMOOTH",
"485 689 OFFCURVE",
"630 668 OFFCURVE",
"678 563 CURVE SMOOTH",
"687 542 OFFCURVE",
"692 521 OFFCURVE",
"692 500 CURVE SMOOTH",
"692 468 OFFCURVE",
"681 437 OFFCURVE",
"658 410 CURVE SMOOTH",
"622 369 OFFCURVE",
"549 332 OFFCURVE",
"481 319 CURVE",
"456 335 OFFCURVE",
"430 348 OFFCURVE",
"403 356 CURVE",
"407 405 OFFCURVE",
"415 510 OFFCURVE",
"442 549 CURVE",
"458 553 OFFCURVE",
"465 564 OFFCURVE",
"465 575 CURVE SMOOTH",
"465 585 OFFCURVE",
"457 595 OFFCURVE",
"443 595 CURVE SMOOTH",
"403 595 OFFCURVE",
"377 523 OFFCURVE",
"371 492 CURVE SMOOTH",
"363 450 OFFCURVE",
"359 405 OFFCURVE",
"354 362 CURVE",
"338 356 OFFCURVE",
"331 342 OFFCURVE",
"331 326 CURVE SMOOTH",
"331 312 OFFCURVE",
"337 298 OFFCURVE",
"346 289 CURVE",
"342 241 OFFCURVE",
"338 194 OFFCURVE",
"332 147 CURVE SMOOTH",
"325 89 LINE SMOOTH",
"322 52 OFFCURVE",
"318 28 OFFCURVE",
"299 -4 CURVE SMOOTH",
"287 -22 LINE SMOOTH",
"283 -29 OFFCURVE",
"278 -39 OFFCURVE",
"278 -48 CURVE SMOOTH",
"278 -55 OFFCURVE",
"280 -61 OFFCURVE",
"287 -66 CURVE SMOOTH",
"289 -68 OFFCURVE",
"293 -69 OFFCURVE",
"296 -69 CURVE SMOOTH",
"301 -69 OFFCURVE",
"306 -67 OFFCURVE",
"309 -66 CURVE SMOOTH",
"345 -50 OFFCURVE",
"368 48 OFFCURVE",
"374 83 CURVE SMOOTH",
"385 146 OFFCURVE",
"389 210 OFFCURVE",
"395 274 CURVE",
"408 272 OFFCURVE",
"421 271 OFFCURVE",
"435 271 CURVE SMOOTH",
"445 271 OFFCURVE",
"455 271 OFFCURVE",
"465 272 CURVE",
"526 224 OFFCURVE",
"585 153 OFFCURVE",
"620 104 CURVE SMOOTH",
"675 26 OFFCURVE",
"754 -95 OFFCURVE",
"862 -95 CURVE SMOOTH"
);
},
{
closed = 1;
nodes = (
"399 312 LINE",
"399 311 LINE",
"394 317 LINE",
"403 315 OFFCURVE",
"412 314 OFFCURVE",
"421 314 CURVE",
"418 303 LINE"
);
}
);
};
layerId = "2ADFC918-CAA7-4AF7-825A-5AAC412EF250";
paths = (
{
closed = 1;
nodes = (
"868 -75 OFFCURVE",
"896 -72 OFFCURVE",
"906 -68 CURVE SMOOTH",
"917 -62 OFFCURVE",
"922 -53 OFFCURVE",
"922 -44 CURVE SMOOTH",
"922 -33 OFFCURVE",
"913 -22 OFFCURVE",
"895 -22 CURVE SMOOTH",
"890 -22 OFFCURVE",
"885 -24 OFFCURVE",
"880 -25 CURVE SMOOTH",
"875 -26 OFFCURVE",
"870 -27 OFFCURVE",
"865 -27 CURVE SMOOTH",
"784 -27 OFFCURVE",
"701 93 OFFCURVE",
"660 152 CURVE SMOOTH",
"625 201 OFFCURVE",
"581 257 OFFCURVE",
"529 302 CURVE",
"595 318 OFFCURVE",
"658 352 OFFCURVE",
"697 400 CURVE SMOOTH",
"726 436 OFFCURVE",
"742 480 OFFCURVE",
"742 524 CURVE SMOOTH",
"742 551 OFFCURVE",
"736 579 OFFCURVE",
"723 605 CURVE SMOOTH",
"662 728 OFFCURVE",
"500 758 OFFCURVE",
"380 758 CURVE SMOOTH",
"207 758 OFFCURVE",
"37 685 OFFCURVE",
"4 495 CURVE SMOOTH",
"2 482 OFFCURVE",
"1 470 OFFCURVE",
"1 457 CURVE SMOOTH",
"1 366 OFFCURVE",
"59 288 OFFCURVE",
"166 288 CURVE SMOOTH",
"194 288 OFFCURVE",
"223 294 OFFCURVE",
"247 308 CURVE SMOOTH",
"283 329 OFFCURVE",
"305 374 OFFCURVE",
"305 417 CURVE SMOOTH",
"305 454 OFFCURVE",
"289 489 OFFCURVE",
"253 506 CURVE SMOOTH",
"246 509 OFFCURVE",
"222 517 OFFCURVE",
"214 516 CURVE SMOOTH",
"196 513 OFFCURVE",
"189 504 OFFCURVE",
"189 495 CURVE SMOOTH",
"189 479 OFFCURVE",
"210 461 OFFCURVE",
"228 465 CURVE",
"230 465 LINE SMOOTH",
"232 465 OFFCURVE",
"232 464 OFFCURVE",
"238 460 CURVE SMOOTH",
"250 451 OFFCURVE",
"256 434 OFFCURVE",
"256 417 CURVE SMOOTH",
"256 390 OFFCURVE",
"244 362 OFFCURVE",
"225 351 CURVE SMOOTH",
"209 342 OFFCURVE",
"184 337 OFFCURVE",
"164 337 CURVE SMOOTH",
"89 337 OFFCURVE",
"50 391 OFFCURVE",
"50 456 CURVE SMOOTH",
"50 466 OFFCURVE",
"51 477 OFFCURVE",
"53 487 CURVE SMOOTH",
"79 651 OFFCURVE",
"228 709 OFFCURVE",
"380 709 CURVE SMOOTH",
"485 709 OFFCURVE",
"630 688 OFFCURVE",
"678 583 CURVE SMOOTH",
"687 562 OFFCURVE",
"692 541 OFFCURVE",
"692 520 CURVE SMOOTH",
"692 488 OFFCURVE",
"681 457 OFFCURVE",
"658 430 CURVE SMOOTH",
"622 389 OFFCURVE",
"549 352 OFFCURVE",
"481 339 CURVE",
"456 355 OFFCURVE",
"430 368 OFFCURVE",
"403 376 CURVE",
"407 425 OFFCURVE",
"415 530 OFFCURVE",
"442 569 CURVE",
"458 573 OFFCURVE",
"465 584 OFFCURVE",
"465 595 CURVE SMOOTH",
"465 605 OFFCURVE",
"457 615 OFFCURVE",
"443 615 CURVE SMOOTH",
"403 615 OFFCURVE",
"377 543 OFFCURVE",
"371 512 CURVE SMOOTH",
"363 470 OFFCURVE",
"359 425 OFFCURVE",
"354 382 CURVE",
"338 376 OFFCURVE",
"331 362 OFFCURVE",
"331 346 CURVE SMOOTH",
"331 332 OFFCURVE",
"337 318 OFFCURVE",
"346 309 CURVE",
"342 261 OFFCURVE",
"338 214 OFFCURVE",
"332 167 CURVE SMOOTH",
"325 109 LINE SMOOTH",
"321 72 OFFCURVE",
"320 47 OFFCURVE",
"299 16 CURVE SMOOTH",
"287 -2 LINE SMOOTH",
"283 -9 OFFCURVE",
"278 -19 OFFCURVE",
"278 -28 CURVE SMOOTH",
"278 -35 OFFCURVE",
"280 -41 OFFCURVE",
"287 -46 CURVE SMOOTH",
"289 -48 OFFCURVE",
"293 -49 OFFCURVE",
"296 -49 CURVE SMOOTH",
"301 -49 OFFCURVE",
"306 -47 OFFCURVE",
"309 -46 CURVE SMOOTH",
"345 -30 OFFCURVE",
"368 68 OFFCURVE",
"374 103 CURVE SMOOTH",
"385 166 OFFCURVE",
"389 230 OFFCURVE",
"395 294 CURVE",
"408 292 OFFCURVE",
"421 291 OFFCURVE",
"435 291 CURVE SMOOTH",
"445 291 OFFCURVE",
"455 291 OFFCURVE",
"465 292 CURVE",
"526 244 OFFCURVE",
"585 173 OFFCURVE",
"620 124 CURVE SMOOTH",
"675 46 OFFCURVE",
"754 -75 OFFCURVE",
"862 -75 CURVE SMOOTH"
);
},
{
closed = 1;
nodes = (
"399 332 LINE",
"399 331 LINE",
"394 337 LINE",
"403 335 OFFCURVE",
"412 334 OFFCURVE",
"421 334 CURVE",
"418 323 LINE"
);
}
);
width = 763;
}
);
note = R;
unicode = 0052;
},
{
glyphname = S;
lastChange = "2021-11-11 14:10:08 +0000";
layers = (
{
anchors = (
{
name = bottom;
position = "{310, -56}";
},
{
name = top;
position = "{352, 747}";
}
);
background = {
paths = (
{
closed = 1;
nodes = (
"442 -85 OFFCURVE",
"607 3 OFFCURVE",
"607 172 CURVE SMOOTH",
"607 308 OFFCURVE",
"503 374 OFFCURVE",
"388 408 CURVE SMOOTH",
"339 422 OFFCURVE",
"209 455 OFFCURVE",
"195 511 CURVE SMOOTH",
"192 522 OFFCURVE",
"191 533 OFFCURVE",
"191 544 CURVE SMOOTH",
"191 625 OFFCURVE",
"269 678 OFFCURVE",
"352 678 CURVE SMOOTH",
"381 678 OFFCURVE",
"410 673 OFFCURVE",
"436 659 CURVE SMOOTH",
"465 644 OFFCURVE",
"492 611 OFFCURVE",
"492 579 CURVE SMOOTH",
"492 556 OFFCURVE",
"482 546 OFFCURVE",
"468 537 CURVE SMOOTH",
"464 534 OFFCURVE",
"458 533 OFFCURVE",
"452 533 CURVE SMOOTH",
"441 533 OFFCURVE",
"430 538 OFFCURVE",
"429 550 CURVE SMOOTH",
"429 555 OFFCURVE",
"430 558 OFFCURVE",
"430 562 CURVE SMOOTH",
"430 565 OFFCURVE",
"430 567 OFFCURVE",
"429 570 CURVE SMOOTH",
"425 582 OFFCURVE",
"418 587 OFFCURVE",
"411 587 CURVE SMOOTH",
"398 587 OFFCURVE",
"383 573 OFFCURVE",
"381 558 CURVE SMOOTH",
"375 509 OFFCURVE",
"412 486 OFFCURVE",
"450 486 CURVE SMOOTH",
"471 486 OFFCURVE",
"493 493 OFFCURVE",
"509 507 CURVE SMOOTH",
"533 528 OFFCURVE",
"542 552 OFFCURVE",
"542 578 CURVE SMOOTH",
"542 624 OFFCURVE",
"509 671 OFFCURVE",
"471 695 CURVE SMOOTH",
"435 718 OFFCURVE",
"393 727 OFFCURVE",
"352 727 CURVE SMOOTH",
"246 727 OFFCURVE",
"142 656 OFFCURVE",
"142 549 CURVE SMOOTH",
"142 533 OFFCURVE",
"144 516 OFFCURVE",
"149 499 CURVE SMOOTH",
"175 408 OFFCURVE",
"296 386 OFFCURVE",
"374 362 CURVE SMOOTH",
"471 332 OFFCURVE",
"558 283 OFFCURVE",
"558 172 CURVE SMOOTH",
"558 35 OFFCURVE",
"418 -36 OFFCURVE",
"294 -36 CURVE SMOOTH",
"256 -36 OFFCURVE",
"218 -30 OFFCURVE",
"183 -16 CURVE SMOOTH",
"111 12 OFFCURVE",
"55 71 OFFCURVE",
"55 146 CURVE SMOOTH",
"55 155 OFFCURVE",
"55 164 OFFCURVE",
"57 173 CURVE SMOOTH",
"70 246 OFFCURVE",
"109 284 OFFCURVE",
"177 284 CURVE SMOOTH",
"248 284 OFFCURVE",
"311 241 OFFCURVE",
"311 167 CURVE SMOOTH",
"311 157 OFFCURVE",
"310 148 OFFCURVE",
"308 141 CURVE SMOOTH",
"299 114 OFFCURVE",
"252 92 OFFCURVE",
"219 92 CURVE SMOOTH",
"214 92 OFFCURVE",
"208 93 OFFCURVE",
"204 94 CURVE SMOOTH",
"196 96 OFFCURVE",
"194 95 OFFCURVE",
"194 97 CURVE",
"193 99 LINE SMOOTH",
"188 109 OFFCURVE",
"175 115 OFFCURVE",
"163 115 CURVE SMOOTH",
"150 115 OFFCURVE",
"139 109 OFFCURVE",
"139 95 CURVE SMOOTH",
"139 91 OFFCURVE",
"141 85 OFFCURVE",
"144 78 CURVE SMOOTH",
"147 72 OFFCURVE",
"169 57 OFFCURVE",
"175 54 CURVE SMOOTH",
"191 46 OFFCURVE",
"208 42 OFFCURVE",
"226 42 CURVE SMOOTH",
"280 42 OFFCURVE",
"337 77 OFFCURVE",
"354 128 CURVE SMOOTH",
"359 143 OFFCURVE",
"361 158 OFFCURVE",
"361 173 CURVE SMOOTH",
"361 254 OFFCURVE",
"289 320 OFFCURVE",
"208 331 CURVE SMOOTH",
"198 332 OFFCURVE",
"188 333 OFFCURVE",
"179 333 CURVE SMOOTH",
"89 333 OFFCURVE",
"22 274 OFFCURVE",
"8 181 CURVE SMOOTH",
"6 169 OFFCURVE",
"5 157 OFFCURVE",
"5 146 CURVE SMOOTH",
"5 -2 OFFCURVE",
"158 -85 OFFCURVE",
"294 -85 CURVE SMOOTH"
);
}
);
};
layerId = "2ADFC918-CAA7-4AF7-825A-5AAC412EF250";
paths = (
{
closed = 1;
nodes = (
"442 -65 OFFCURVE",
"607 23 OFFCURVE",
"607 192 CURVE SMOOTH",
"607 328 OFFCURVE",
"503 394 OFFCURVE",
"388 428 CURVE SMOOTH",
"339 442 OFFCURVE",
"209 475 OFFCURVE",
"195 531 CURVE SMOOTH",
"192 542 OFFCURVE",
"191 553 OFFCURVE",
"191 564 CURVE SMOOTH",
"191 645 OFFCURVE",
"269 698 OFFCURVE",
"352 698 CURVE SMOOTH",
"381 698 OFFCURVE",
"410 693 OFFCURVE",
"436 679 CURVE SMOOTH",
"465 664 OFFCURVE",
"492 631 OFFCURVE",
"492 599 CURVE SMOOTH",
"492 576 OFFCURVE",
"482 566 OFFCURVE",
"468 557 CURVE SMOOTH",
"464 554 OFFCURVE",
"458 553 OFFCURVE",
"452 553 CURVE SMOOTH",
"441 553 OFFCURVE",
"430 558 OFFCURVE",
"429 570 CURVE SMOOTH",
"429 575 OFFCURVE",
"430 578 OFFCURVE",
"430 582 CURVE SMOOTH",
"430 585 OFFCURVE",
"430 587 OFFCURVE",
"429 590 CURVE SMOOTH",
"425 602 OFFCURVE",
"418 607 OFFCURVE",
"411 607 CURVE SMOOTH",
"398 607 OFFCURVE",
"383 593 OFFCURVE",
"381 578 CURVE SMOOTH",
"375 529 OFFCURVE",
"412 506 OFFCURVE",
"450 506 CURVE SMOOTH",
"471 506 OFFCURVE",
"493 513 OFFCURVE",
"509 527 CURVE SMOOTH",
"533 548 OFFCURVE",
"542 572 OFFCURVE",
"542 598 CURVE SMOOTH",
"542 644 OFFCURVE",
"509 691 OFFCURVE",
"471 715 CURVE SMOOTH",
"435 738 OFFCURVE",
"393 747 OFFCURVE",
"352 747 CURVE SMOOTH",
"246 747 OFFCURVE",
"142 676 OFFCURVE",
"142 569 CURVE SMOOTH",
"142 553 OFFCURVE",
"144 536 OFFCURVE",
"149 519 CURVE SMOOTH",
"175 428 OFFCURVE",
"296 406 OFFCURVE",
"374 382 CURVE SMOOTH",
"471 352 OFFCURVE",
"558 303 OFFCURVE",
"558 192 CURVE SMOOTH",
"558 55 OFFCURVE",
"418 -16 OFFCURVE",
"294 -16 CURVE SMOOTH",
"256 -16 OFFCURVE",
"218 -10 OFFCURVE",
"183 4 CURVE SMOOTH",
"111 32 OFFCURVE",
"55 91 OFFCURVE",
"55 166 CURVE SMOOTH",
"55 175 OFFCURVE",
"55 184 OFFCURVE",
"57 193 CURVE SMOOTH",
"70 266 OFFCURVE",
"109 304 OFFCURVE",
"177 304 CURVE SMOOTH",
"248 304 OFFCURVE",
"311 261 OFFCURVE",
"311 187 CURVE SMOOTH",
"311 177 OFFCURVE",
"310 168 OFFCURVE",
"308 161 CURVE SMOOTH",
"299 134 OFFCURVE",
"252 112 OFFCURVE",
"219 112 CURVE SMOOTH",
"214 112 OFFCURVE",
"208 113 OFFCURVE",
"204 114 CURVE SMOOTH",
"196 116 OFFCURVE",
"194 115 OFFCURVE",
"194 117 CURVE",
"193 119 LINE SMOOTH",
"188 129 OFFCURVE",
"175 135 OFFCURVE",
"163 135 CURVE SMOOTH",
"150 135 OFFCURVE",
"139 129 OFFCURVE",
"139 115 CURVE SMOOTH",
"139 111 OFFCURVE",
"141 105 OFFCURVE",
"144 98 CURVE SMOOTH",
"147 92 OFFCURVE",
"169 77 OFFCURVE",
"175 74 CURVE SMOOTH",
"191 66 OFFCURVE",
"208 62 OFFCURVE",
"226 62 CURVE SMOOTH",
"280 62 OFFCURVE",
"337 97 OFFCURVE",
"354 148 CURVE SMOOTH",
"359 163 OFFCURVE",
"361 178 OFFCURVE",
"361 193 CURVE SMOOTH",
"361 274 OFFCURVE",
"289 340 OFFCURVE",
"208 351 CURVE SMOOTH",
"198 352 OFFCURVE",
"188 353 OFFCURVE",
"179 353 CURVE SMOOTH",
"89 353 OFFCURVE",
"22 294 OFFCURVE",
"8 201 CURVE SMOOTH",
"6 189 OFFCURVE",
"5 177 OFFCURVE",
"5 166 CURVE SMOOTH",
"5 18 OFFCURVE",
"158 -65 OFFCURVE",
"294 -65 CURVE SMOOTH"
);
}
);
width = 635;
}
);
note = S;
unicode = 0053;
},
{
glyphname = Germandbls;
lastChange = "2021-11-11 14:10:08 +0000";
layers = (
{
background = {
paths = (
{
closed = 1;
nodes = (
"56 -64 OFFCURVE",
"100 124 OFFCURVE",
"121 231 CURVE SMOOTH",
"130 277 OFFCURVE",
"172 546 OFFCURVE",
"205 589 CURVE SMOOTH",
"227 617 OFFCURVE",
"258 632 OFFCURVE",
"308 632 CURVE SMOOTH",
"340 632 OFFCURVE",
"410 616 OFFCURVE",
"410 569 CURVE SMOOTH",
"410 563 OFFCURVE",
"408 557 OFFCURVE",
"406 550 CURVE SMOOTH",
"379 470 OFFCURVE",
"281 425 OFFCURVE",
"209 391 CURVE",
"195 377 OFFCURVE",
"188 363 OFFCURVE",
"188 348 CURVE SMOOTH",
"188 314 OFFCURVE",
"225 278 OFFCURVE",
"306 251 CURVE SMOOTH",
"362 232 OFFCURVE",
"394 200 OFFCURVE",
"394 142 CURVE SMOOTH",
"394 80 OFFCURVE",
"358 41 OFFCURVE",
"312 23 CURVE SMOOTH",
"291 15 OFFCURVE",
"268 11 OFFCURVE",
"246 11 CURVE SMOOTH",
"194 11 OFFCURVE",
"150 33 OFFCURVE",
"155 75 CURVE SMOOTH",
"156 79 OFFCURVE",
"157 84 OFFCURVE",
"157 87 CURVE SMOOTH",
"157 103 OFFCURVE",
"146 112 OFFCURVE",
"135 112 CURVE SMOOTH",
"123 112 OFFCURVE",
"110 102 OFFCURVE",
"105 80 CURVE",
"104 3 OFFCURVE",
"168 -33 OFFCURVE",
"241 -33 CURVE SMOOTH",
"270 -33 OFFCURVE",
"301 -27 OFFCURVE",
"329 -16 CURVE SMOOTH",
"395 11 OFFCURVE",
"447 68 OFFCURVE",
"444 144 CURVE SMOOTH",
"441 222 OFFCURVE",
"399 271 OFFCURVE",
"325 295 CURVE SMOOTH",
"293 305 OFFCURVE",
"248 319 OFFCURVE",
"235 350 CURVE",
"359 416 OFFCURVE",
"441 463 OFFCURVE",
"454 557 CURVE SMOOTH",
"455 564 OFFCURVE",
"455 570 OFFCURVE",
"455 576 CURVE SMOOTH",
"455 660 OFFCURVE",
"366 673 OFFCURVE",
"316 673 CURVE SMOOTH",
"233 673 OFFCURVE",
"187 654 OFFCURVE",
"162 617 CURVE SMOOTH",
"138 581 OFFCURVE",
"138 561 OFFCURVE",
"70 224 CURVE SMOOTH",
"52 135 OFFCURVE",
"0 -80 OFFCURVE",
"-8 -107 CURVE SMOOTH",
"-10 -113 OFFCURVE",
"-10 -118 OFFCURVE",
"-10 -123 CURVE SMOOTH",
"-10 -137 OFFCURVE",
"-3 -145 OFFCURVE",
"6 -145 CURVE SMOOTH",
"17 -145 OFFCURVE",
"30 -135 OFFCURVE",
"39 -111 CURVE SMOOTH"
);
}
);
};
layerId = "2ADFC918-CAA7-4AF7-825A-5AAC412EF250";
paths = (
{
closed = 1;
nodes = (
"17 -125 OFFCURVE",
"30 -115 OFFCURVE",
"39 -91 CURVE SMOOTH",
"56 -44 OFFCURVE",
"100 144 OFFCURVE",
"121 251 CURVE SMOOTH",
"130 297 OFFCURVE",
"172 566 OFFCURVE",
"205 609 CURVE SMOOTH",
"227 637 OFFCURVE",
"258 652 OFFCURVE",
"308 652 CURVE SMOOTH",
"340 652 OFFCURVE",
"410 636 OFFCURVE",
"410 589 CURVE SMOOTH",
"410 583 OFFCURVE",
"408 577 OFFCURVE",
"406 570 CURVE SMOOTH",
"379 490 OFFCURVE",
"281 445 OFFCURVE",
"209 411 CURVE",
"195 397 OFFCURVE",
"188 383 OFFCURVE",
"188 368 CURVE SMOOTH",
"188 334 OFFCURVE",
"225 298 OFFCURVE",
"306 271 CURVE SMOOTH",
"362 252 OFFCURVE",
"394 220 OFFCURVE",
"394 162 CURVE SMOOTH",
"394 100 OFFCURVE",
"358 61 OFFCURVE",
"312 43 CURVE SMOOTH",
"291 35 OFFCURVE",
"268 31 OFFCURVE",
"246 31 CURVE SMOOTH",
"194 31 OFFCURVE",
"150 53 OFFCURVE",
"155 95 CURVE SMOOTH",
"156 99 OFFCURVE",
"157 104 OFFCURVE",
"157 107 CURVE SMOOTH",
"157 123 OFFCURVE",
"146 132 OFFCURVE",
"135 132 CURVE SMOOTH",
"123 132 OFFCURVE",
"110 122 OFFCURVE",
"105 100 CURVE",
"104 23 OFFCURVE",
"168 -13 OFFCURVE",
"241 -13 CURVE SMOOTH",
"270 -13 OFFCURVE",
"301 -7 OFFCURVE",
"329 4 CURVE SMOOTH",
"393 30 OFFCURVE",
"444 85 OFFCURVE",
"444 158 CURVE SMOOTH",
"444 239 OFFCURVE",
"401 290 OFFCURVE",
"325 315 CURVE SMOOTH",
"293 325 OFFCURVE",
"248 339 OFFCURVE",
"235 370 CURVE",
"359 436 OFFCURVE",
"441 483 OFFCURVE",
"454 577 CURVE SMOOTH",
"455 584 OFFCURVE",
"455 590 OFFCURVE",
"455 596 CURVE SMOOTH",
"455 680 OFFCURVE",
"366 693 OFFCURVE",
"316 693 CURVE SMOOTH",
"233 693 OFFCURVE",
"187 674 OFFCURVE",
"162 637 CURVE SMOOTH",
"138 601 OFFCURVE",
"138 581 OFFCURVE",
"70 244 CURVE SMOOTH",
"52 155 OFFCURVE",
"0 -60 OFFCURVE",
"-8 -87 CURVE SMOOTH",
"-10 -93 OFFCURVE",
"-10 -98 OFFCURVE",
"-10 -103 CURVE SMOOTH",
"-10 -117 OFFCURVE",
"-3 -125 OFFCURVE",
"6 -125 CURVE SMOOTH"
);
}
);
width = 474;
}
);
unicode = 1E9E;
},
{
glyphname = Schwa;
lastChange = "2021-11-11 00:11:46 +0000";
layers = (
{
background = {
anchors = (
{
name = bottom;
position = "{344, -47}";
},
{
name = top;
position = "{328, 733}";
}
);
paths = (
{
closed = 1;
nodes = (
"514 15 OFFCURVE",
"616 196 OFFCURVE",
"616 393 CURVE SMOOTH",
"616 594 OFFCURVE",
"512 740 OFFCURVE",
"326 740 CURVE SMOOTH",
"238 740 OFFCURVE",
"141 697 OFFCURVE",
"90 615 CURVE SMOOTH",
"77 593 OFFCURVE",
"66 567 OFFCURVE",
"66 539 CURVE SMOOTH",
"66 530 OFFCURVE",
"72 518 OFFCURVE",
"80 518 CURVE SMOOTH",
"104 518 OFFCURVE",
"99 551 OFFCURVE",
"114 573 CURVE",
"139 625 OFFCURVE",
"201 667 OFFCURVE",
"252 683 CURVE SMOOTH",
"277 691 OFFCURVE",
"300 694 OFFCURVE",
"326 694 CURVE SMOOTH",
"492 694 OFFCURVE",
"573 570 OFFCURVE",
"573 391 CURVE SMOOTH",
"573 219 OFFCURVE",
"481 60 OFFCURVE",
"293 60 CURVE SMOOTH",
"208 60 OFFCURVE",
"113 107 OFFCURVE",
"113 214 CURVE SMOOTH",
"113 289 OFFCURVE",
"205 387 OFFCURVE",
"395 387 CURVE SMOOTH",
"444 387 OFFCURVE",
"500 380 OFFCURVE",
"563 365 CURVE SMOOTH",
"567 364 OFFCURVE",
"570 364 OFFCURVE",
"574 364 CURVE SMOOTH",
"592 364 OFFCURVE",
"608 374 OFFCURVE",
"608 385 CURVE SMOOTH",
"608 395 OFFCURVE",
"597 405 OFFCURVE",
"569 410 CURVE SMOOTH",
"507 421 OFFCURVE",
"452 426 OFFCURVE",
"403 426 CURVE SMOOTH",
"170 426 OFFCURVE",
"69 314 OFFCURVE",
"69 214 CURVE SMOOTH",
"69 77 OFFCURVE",
"188 15 OFFCURVE",
"291 15 CURVE SMOOTH"
);
}
);
};
layerId = "2ADFC918-CAA7-4AF7-825A-5AAC412EF250";
paths = (
{
closed = 1;
nodes = (
"514 35 OFFCURVE",
"616 216 OFFCURVE",
"616 413 CURVE SMOOTH",
"616 614 OFFCURVE",
"512 760 OFFCURVE",
"326 760 CURVE SMOOTH",
"238 760 OFFCURVE",
"141 717 OFFCURVE",
"90 635 CURVE SMOOTH",
"77 613 OFFCURVE",
"66 587 OFFCURVE",
"66 559 CURVE SMOOTH",
"66 550 OFFCURVE",
"72 538 OFFCURVE",
"80 538 CURVE SMOOTH",
"104 538 OFFCURVE",
"99 571 OFFCURVE",
"114 593 CURVE",
"139 645 OFFCURVE",
"201 687 OFFCURVE",
"252 703 CURVE SMOOTH",
"277 711 OFFCURVE",
"300 714 OFFCURVE",
"326 714 CURVE SMOOTH",
"492 714 OFFCURVE",
"573 590 OFFCURVE",
"573 411 CURVE SMOOTH",
"573 239 OFFCURVE",
"481 80 OFFCURVE",
"293 80 CURVE SMOOTH",
"208 80 OFFCURVE",
"113 127 OFFCURVE",
"113 234 CURVE SMOOTH",
"113 309 OFFCURVE",
"205 407 OFFCURVE",
"395 407 CURVE SMOOTH",
"444 407 OFFCURVE",
"500 400 OFFCURVE",
"563 385 CURVE SMOOTH",
"567 384 OFFCURVE",
"570 384 OFFCURVE",
"574 384 CURVE SMOOTH",
"592 384 OFFCURVE",
"608 394 OFFCURVE",
"608 405 CURVE SMOOTH",
"608 415 OFFCURVE",
"597 425 OFFCURVE",
"569 430 CURVE SMOOTH",
"507 441 OFFCURVE",
"452 446 OFFCURVE",
"403 446 CURVE SMOOTH",
"170 446 OFFCURVE",
"69 334 OFFCURVE",
"69 234 CURVE SMOOTH",
"69 97 OFFCURVE",
"188 35 OFFCURVE",
"291 35 CURVE SMOOTH"
);
}
);
width = 689;
}
);
unicode = 018F;
},
{
glyphname = T;
lastChange = "2021-11-11 14:10:08 +0000";
layers = (
{
anchors = (
{
name = bottom;
position = "{259, -34}";
},
{
name = center;
position = "{516, 470}";
},
{
name = top;
position = "{577, 742}";
}
);
background = {
paths = (
{
closed = 1;
nodes = (
"484 -65 OFFCURVE",
"548 147 OFFCURVE",
"545 363 CURVE SMOOTH",
"545 378 OFFCURVE",
"542 415 OFFCURVE",
"541 460 CURVE SMOOTH",
"541 473 OFFCURVE",
"540 487 OFFCURVE",
"540 500 CURVE SMOOTH",
"540 531 OFFCURVE",
"542 563 OFFCURVE",
"545 591 CURVE",
"575 584 OFFCURVE",
"617 576 OFFCURVE",
"658 576 CURVE SMOOTH",
"704 576 OFFCURVE",
"748 586 OFFCURVE",
"777 616 CURVE SMOOTH",
"781 620 OFFCURVE",
"794 636 OFFCURVE",
"795 642 CURVE SMOOTH",
"796 646 OFFCURVE",
"796 650 OFFCURVE",
"796 653 CURVE SMOOTH",
"796 668 OFFCURVE",
"789 673 OFFCURVE",
"779 673 CURVE SMOOTH",
"765 673 OFFCURVE",
"747 661 OFFCURVE",
"747 651 CURVE SMOOTH",
"747 650 LINE SMOOTH",
"747 649 OFFCURVE",
"746 649 OFFCURVE",
"742 646 CURVE SMOOTH",
"723 632 OFFCURVE",
"689 627 OFFCURVE",
"655 627 CURVE SMOOTH",
"619 627 OFFCURVE",
"583 632 OFFCURVE",
"559 638 CURVE SMOOTH",
"555 639 LINE",
"562 663 OFFCURVE",
"572 674 OFFCURVE",
"584 674 CURVE SMOOTH",
"598 674 OFFCURVE",
"605 683 OFFCURVE",
"605 694 CURVE SMOOTH",
"605 707 OFFCURVE",
"595 721 OFFCURVE",
"577 722 CURVE SMOOTH",
"569 722 OFFCURVE",
"546 707 OFFCURVE",
"541 703 CURVE SMOOTH",
"526 690 OFFCURVE",
"515 673 OFFCURVE",
"507 653 CURVE",
"475 663 OFFCURVE",
"443 675 OFFCURVE",
"411 685 CURVE SMOOTH",
"352 704 OFFCURVE",
"295 715 OFFCURVE",
"233 715 CURVE SMOOTH",
"111 715 OFFCURVE",
"40 616 OFFCURVE",
"40 524 CURVE SMOOTH",
"40 459 OFFCURVE",
"76 397 OFFCURVE",
"155 378 CURVE SMOOTH",
"165 375 OFFCURVE",
"177 374 OFFCURVE",
"188 374 CURVE SMOOTH",
"255 374 OFFCURVE",
"336 414 OFFCURVE",
"340 485 CURVE SMOOTH",
"340 491 OFFCURVE",
"340 513 OFFCURVE",
"335 521 CURVE SMOOTH",
"328 532 OFFCURVE",
"321 537 OFFCURVE",
"315 537 CURVE SMOOTH",
"301 537 OFFCURVE",
"291 515 OFFCURVE",
"291 501 CURVE SMOOTH",
"291 494 OFFCURVE",
"293 489 OFFCURVE",
"297 487 CURVE",
"294 483 LINE",
"284 449 OFFCURVE",
"223 423 OFFCURVE",
"182 423 CURVE SMOOTH",
"177 423 OFFCURVE",
"172 423 OFFCURVE",
"167 424 CURVE SMOOTH",
"115 435 OFFCURVE",
"90 479 OFFCURVE",
"90 526 CURVE SMOOTH",
"90 592 OFFCURVE",
"139 665 OFFCURVE",
"233 665 CURVE SMOOTH",
"330 665 OFFCURVE",
"404 631 OFFCURVE",
"494 604 CURVE",
"490 579 OFFCURVE",
"489 552 OFFCURVE",
"489 525 CURVE SMOOTH",
"489 509 OFFCURVE",
"489 493 OFFCURVE",
"490 478 CURVE SMOOTH",
"493 434 OFFCURVE",
"496 393 OFFCURVE",
"496 363 CURVE SMOOTH",
"494 169 OFFCURVE",
"454 -16 OFFCURVE",
"225 -16 CURVE SMOOTH",
"116 -16 OFFCURVE",
"47 61 OFFCURVE",
"47 161 CURVE SMOOTH",
"47 173 OFFCURVE",
"48 186 OFFCURVE",
"50 199 CURVE SMOOTH",
"61 263 OFFCURVE",
"128 314 OFFCURVE",
"187 314 CURVE SMOOTH",
"219 314 OFFCURVE",
"248 300 OFFCURVE",
"266 267 CURVE SMOOTH",
"272 255 OFFCURVE",
"276 241 OFFCURVE",
"276 227 CURVE SMOOTH",
"276 206 OFFCURVE",
"268 185 OFFCURVE",
"249 175 CURVE SMOOTH",
"240 170 OFFCURVE",
"236 169 OFFCURVE",
"233 169 CURVE SMOOTH",
"231 169 LINE SMOOTH",
"221 170 OFFCURVE",
"215 170 OFFCURVE",
"204 167 CURVE SMOOTH",
"186 163 OFFCURVE",
"179 153 OFFCURVE",
"179 143 CURVE SMOOTH",
"179 132 OFFCURVE",
"188 121 OFFCURVE",
"201 118 CURVE SMOOTH",
"214 115 OFFCURVE",
"242 120 OFFCURVE",
"254 124 CURVE SMOOTH",
"301 139 OFFCURVE",
"326 183 OFFCURVE",
"326 229 CURVE SMOOTH",
"326 251 OFFCURVE",
"320 273 OFFCURVE",
"308 292 CURVE SMOOTH",
"277 342 OFFCURVE",
"232 363 OFFCURVE",
"186 363 CURVE SMOOTH",
"103 363 OFFCURVE",
"16 295 OFFCURVE",
"1 207 CURVE SMOOTH",
"-2 191 OFFCURVE",
"-3 176 OFFCURVE",
"-3 161 CURVE SMOOTH",
"-3 36 OFFCURVE",
"91 -65 OFFCURVE",
"225 -65 CURVE SMOOTH"
);
}
);
};
layerId = "2ADFC918-CAA7-4AF7-825A-5AAC412EF250";
paths = (
{
closed = 1;
nodes = (
"484 -45 OFFCURVE",
"548 167 OFFCURVE",
"545 383 CURVE SMOOTH",
"545 398 OFFCURVE",
"542 435 OFFCURVE",
"541 480 CURVE SMOOTH",
"541 493 OFFCURVE",
"540 507 OFFCURVE",
"540 520 CURVE SMOOTH",
"540 551 OFFCURVE",
"542 583 OFFCURVE",
"545 611 CURVE",
"575 604 OFFCURVE",
"617 596 OFFCURVE",
"658 596 CURVE SMOOTH",
"704 596 OFFCURVE",
"748 606 OFFCURVE",
"777 636 CURVE SMOOTH",
"781 640 OFFCURVE",
"794 656 OFFCURVE",
"795 662 CURVE SMOOTH",
"796 666 OFFCURVE",
"796 670 OFFCURVE",
"796 673 CURVE SMOOTH",
"796 688 OFFCURVE",
"789 693 OFFCURVE",
"779 693 CURVE SMOOTH",
"765 693 OFFCURVE",
"747 681 OFFCURVE",
"747 671 CURVE SMOOTH",
"747 670 LINE SMOOTH",
"747 669 OFFCURVE",
"746 669 OFFCURVE",
"742 666 CURVE SMOOTH",
"723 652 OFFCURVE",
"689 647 OFFCURVE",
"655 647 CURVE SMOOTH",
"619 647 OFFCURVE",
"583 652 OFFCURVE",
"559 658 CURVE SMOOTH",
"555 659 LINE",
"562 683 OFFCURVE",
"572 694 OFFCURVE",
"584 694 CURVE SMOOTH",
"598 694 OFFCURVE",
"605 703 OFFCURVE",
"605 714 CURVE SMOOTH",
"605 727 OFFCURVE",
"595 741 OFFCURVE",
"577 742 CURVE SMOOTH",
"569 742 OFFCURVE",
"546 727 OFFCURVE",
"541 723 CURVE SMOOTH",
"526 710 OFFCURVE",
"515 693 OFFCURVE",
"507 673 CURVE",
"475 683 OFFCURVE",
"443 695 OFFCURVE",
"411 705 CURVE SMOOTH",
"352 724 OFFCURVE",
"295 735 OFFCURVE",
"233 735 CURVE SMOOTH",
"111 735 OFFCURVE",
"40 636 OFFCURVE",
"40 544 CURVE SMOOTH",
"40 479 OFFCURVE",
"76 417 OFFCURVE",
"155 398 CURVE SMOOTH",
"165 395 OFFCURVE",
"177 394 OFFCURVE",
"188 394 CURVE SMOOTH",
"255 394 OFFCURVE",
"336 434 OFFCURVE",
"340 505 CURVE SMOOTH",
"340 511 OFFCURVE",
"340 533 OFFCURVE",
"335 541 CURVE SMOOTH",
"328 552 OFFCURVE",
"321 557 OFFCURVE",
"315 557 CURVE SMOOTH",
"301 557 OFFCURVE",
"291 535 OFFCURVE",
"291 521 CURVE SMOOTH",
"291 514 OFFCURVE",
"293 509 OFFCURVE",
"297 507 CURVE",
"294 503 LINE",
"284 469 OFFCURVE",
"223 443 OFFCURVE",
"182 443 CURVE SMOOTH",
"177 443 OFFCURVE",
"172 443 OFFCURVE",
"167 444 CURVE SMOOTH",
"115 455 OFFCURVE",
"90 499 OFFCURVE",
"90 546 CURVE SMOOTH",
"90 612 OFFCURVE",
"139 685 OFFCURVE",
"233 685 CURVE SMOOTH",
"330 685 OFFCURVE",
"404 651 OFFCURVE",
"494 624 CURVE",
"490 599 OFFCURVE",
"489 572 OFFCURVE",
"489 545 CURVE SMOOTH",
"489 529 OFFCURVE",
"489 513 OFFCURVE",
"490 498 CURVE SMOOTH",
"493 454 OFFCURVE",
"496 413 OFFCURVE",
"496 383 CURVE SMOOTH",
"494 189 OFFCURVE",
"454 4 OFFCURVE",
"225 4 CURVE SMOOTH",
"116 4 OFFCURVE",
"47 81 OFFCURVE",
"47 181 CURVE SMOOTH",
"47 193 OFFCURVE",
"48 206 OFFCURVE",
"50 219 CURVE SMOOTH",
"61 283 OFFCURVE",
"128 334 OFFCURVE",
"187 334 CURVE SMOOTH",
"219 334 OFFCURVE",
"248 320 OFFCURVE",
"266 287 CURVE SMOOTH",
"272 275 OFFCURVE",
"276 261 OFFCURVE",
"276 247 CURVE SMOOTH",
"276 226 OFFCURVE",
"268 205 OFFCURVE",
"249 195 CURVE SMOOTH",
"240 190 OFFCURVE",
"236 189 OFFCURVE",
"233 189 CURVE SMOOTH",
"231 189 LINE SMOOTH",
"221 189 OFFCURVE",
"215 190 OFFCURVE",
"204 187 CURVE SMOOTH",
"186 183 OFFCURVE",
"179 173 OFFCURVE",
"179 163 CURVE SMOOTH",
"179 149 OFFCURVE",
"193 137 OFFCURVE",
"211 137 CURVE SMOOTH",
"225 137 OFFCURVE",
"245 141 OFFCURVE",
"254 144 CURVE SMOOTH",
"301 159 OFFCURVE",
"326 203 OFFCURVE",
"326 249 CURVE SMOOTH",
"326 271 OFFCURVE",
"320 293 OFFCURVE",
"308 312 CURVE SMOOTH",
"277 362 OFFCURVE",
"232 383 OFFCURVE",
"186 383 CURVE SMOOTH",
"103 383 OFFCURVE",
"16 315 OFFCURVE",
"1 227 CURVE SMOOTH",
"-2 211 OFFCURVE",
"-3 196 OFFCURVE",
"-3 181 CURVE SMOOTH",
"-3 56 OFFCURVE",
"91 -45 OFFCURVE",
"225 -45 CURVE SMOOTH"
);
}
);
width = 586;
}
);
note = T;
unicode = 0054;
},
{
glyphname = U;
lastChange = "2021-11-11 14:10:08 +0000";
layers = (
{
anchors = (
{
name = bottom;
position = "{535, -34}";
},
{
name = ogonek;
position = "{937, -10}";
},
{
name = top;
position = "{648, 705}";
},
{
name = topright;
position = "{791, 661}";
}
);
background = {
paths = (
{
closed = 1;
nodes = (
"842 -66 OFFCURVE",
"847 -67 OFFCURVE",
"852 -67 CURVE SMOOTH",
"864 -67 OFFCURVE",
"869 -57 OFFCURVE",
"869 -46 CURVE SMOOTH",
"869 -36 OFFCURVE",
"865 -24 OFFCURVE",
"858 -17 CURVE SMOOTH",
"856 -15 LINE",
"855 -15 OFFCURVE",
"854 -14 OFFCURVE",
"854 -13 CURVE",
"821 30 OFFCURVE",
"811 134 OFFCURVE",
"811 247 CURVE SMOOTH",
"811 378 OFFCURVE",
"825 520 OFFCURVE",
"835 593 CURVE SMOOTH",
"836 603 OFFCURVE",
"837 609 OFFCURVE",
"839 618 CURVE SMOOTH",
"841 627 OFFCURVE",
"839 638 OFFCURVE",
"831 644 CURVE SMOOTH",
"826 647 OFFCURVE",
"822 648 OFFCURVE",
"819 648 CURVE SMOOTH",
"811 648 OFFCURVE",
"806 643 OFFCURVE",
"804 636 CURVE SMOOTH",
"800 621 OFFCURVE",
"799 604 OFFCURVE",
"794 573 CURVE SMOOTH",
"776 418 OFFCURVE",
"701 -4 OFFCURVE",
"488 -4 CURVE SMOOTH",
"396 -4 OFFCURVE",
"370 77 OFFCURVE",
"370 157 CURVE SMOOTH",
"370 170 OFFCURVE",
"371 184 OFFCURVE",
"372 197 CURVE SMOOTH",
"376 242 OFFCURVE",
"388 285 OFFCURVE",
"400 328 CURVE SMOOTH",
"416 383 OFFCURVE",
"429 444 OFFCURVE",
"429 502 CURVE SMOOTH",
"429 606 OFFCURVE",
"388 698 OFFCURVE",
"254 725 CURVE SMOOTH",
"238 728 OFFCURVE",
"222 730 OFFCURVE",
"206 730 CURVE SMOOTH",
"86 730 OFFCURVE",
"-2 634 OFFCURVE",
"-19 513 CURVE SMOOTH",
"-21 501 OFFCURVE",
"-21 489 OFFCURVE",
"-21 477 CURVE SMOOTH",
"-21 384 OFFCURVE",
"27 299 OFFCURVE",
"124 272 CURVE SMOOTH",
"142 267 OFFCURVE",
"161 265 OFFCURVE",
"181 265 CURVE SMOOTH",
"194 265 OFFCURVE",
"208 266 OFFCURVE",
"221 269 CURVE SMOOTH",
"302 287 OFFCURVE",
"345 364 OFFCURVE",
"345 431 CURVE SMOOTH",
"345 490 OFFCURVE",
"312 541 OFFCURVE",
"243 541 CURVE SMOOTH",
"229 541 OFFCURVE",
"212 539 OFFCURVE",
"202 535 CURVE SMOOTH",
"191 530 OFFCURVE",
"185 522 OFFCURVE",
"185 514 CURVE SMOOTH",
"185 501 OFFCURVE",
"197 489 OFFCURVE",
"216 489 CURVE SMOOTH",
"224 489 OFFCURVE",
"231 490 OFFCURVE",
"235 491 CURVE SMOOTH",
"243 494 OFFCURVE",
"243 497 OFFCURVE",
"247 497 CURVE SMOOTH",
"249 497 OFFCURVE",
"252 496 OFFCURVE",
"260 494 CURVE SMOOTH",
"284 488 OFFCURVE",
"296 462 OFFCURVE",
"296 432 CURVE SMOOTH",
"296 387 OFFCURVE",
"268 331 OFFCURVE",
"210 318 CURVE SMOOTH",
"201 316 OFFCURVE",
"190 315 OFFCURVE",
"178 315 CURVE SMOOTH",
"166 315 OFFCURVE",
"153 316 OFFCURVE",
"142 319 CURVE SMOOTH",
"64 336 OFFCURVE",
"28 400 OFFCURVE",
"28 473 CURVE SMOOTH",
"28 484 OFFCURVE",
"28 495 OFFCURVE",
"30 506 CURVE SMOOTH",
"43 607 OFFCURVE",
"108 680 OFFCURVE",
"204 680 CURVE SMOOTH",
"217 680 OFFCURVE",
"230 679 OFFCURVE",
"243 676 CURVE SMOOTH",
"349 655 OFFCURVE",
"381 587 OFFCURVE",
"381 506 CURVE SMOOTH",
"381 453 OFFCURVE",
"368 396 OFFCURVE",
"353 342 CURVE SMOOTH",
"339 293 OFFCURVE",
"329 244 OFFCURVE",
"325 193 CURVE SMOOTH",
"324 183 OFFCURVE",
"324 173 OFFCURVE",
"324 162 CURVE SMOOTH",
"324 61 OFFCURVE",
"358 -53 OFFCURVE",
"484 -53 CURVE SMOOTH",
"638 -53 OFFCURVE",
"722 110 OFFCURVE",
"766 238 CURVE",
"767 153 OFFCURVE",
"774 25 OFFCURVE",
"812 -36 CURVE SMOOTH",
"816 -42 OFFCURVE",
"829 -60 OFFCURVE",
"836 -63 CURVE SMOOTH"
);
}
);
};
layerId = "2ADFC918-CAA7-4AF7-825A-5AAC412EF250";
paths = (
{
closed = 1;
nodes = (
"864 -47 OFFCURVE",
"869 -37 OFFCURVE",
"869 -26 CURVE SMOOTH",
"869 -16 OFFCURVE",
"865 -4 OFFCURVE",
"858 3 CURVE SMOOTH",
"856 5 LINE",
"855 5 OFFCURVE",
"854 6 OFFCURVE",
"854 7 CURVE",
"821 50 OFFCURVE",
"811 154 OFFCURVE",
"811 267 CURVE SMOOTH",
"811 398 OFFCURVE",
"825 540 OFFCURVE",
"835 613 CURVE SMOOTH",
"836 623 OFFCURVE",
"837 629 OFFCURVE",
"839 638 CURVE SMOOTH",
"841 647 OFFCURVE",
"839 658 OFFCURVE",
"831 664 CURVE SMOOTH",
"826 667 OFFCURVE",
"822 668 OFFCURVE",
"819 668 CURVE SMOOTH",
"811 668 OFFCURVE",
"806 663 OFFCURVE",
"804 656 CURVE SMOOTH",
"800 641 OFFCURVE",
"799 624 OFFCURVE",
"794 593 CURVE SMOOTH",
"776 438 OFFCURVE",
"701 16 OFFCURVE",
"488 16 CURVE SMOOTH",
"396 16 OFFCURVE",
"370 97 OFFCURVE",
"370 177 CURVE SMOOTH",
"370 190 OFFCURVE",
"371 204 OFFCURVE",
"372 217 CURVE SMOOTH",
"376 262 OFFCURVE",
"388 305 OFFCURVE",
"400 348 CURVE SMOOTH",
"416 403 OFFCURVE",
"429 464 OFFCURVE",
"429 522 CURVE SMOOTH",
"429 626 OFFCURVE",
"388 718 OFFCURVE",
"254 745 CURVE SMOOTH",
"238 748 OFFCURVE",
"222 750 OFFCURVE",
"206 750 CURVE SMOOTH",
"86 750 OFFCURVE",
"-2 654 OFFCURVE",
"-19 533 CURVE SMOOTH",
"-21 521 OFFCURVE",
"-21 509 OFFCURVE",
"-21 497 CURVE SMOOTH",
"-21 404 OFFCURVE",
"27 319 OFFCURVE",
"124 292 CURVE SMOOTH",
"142 287 OFFCURVE",
"161 285 OFFCURVE",
"181 285 CURVE SMOOTH",
"194 285 OFFCURVE",
"208 286 OFFCURVE",
"221 289 CURVE SMOOTH",
"302 307 OFFCURVE",
"345 384 OFFCURVE",
"345 451 CURVE SMOOTH",
"345 510 OFFCURVE",
"312 561 OFFCURVE",
"243 561 CURVE SMOOTH",
"229 561 OFFCURVE",
"212 559 OFFCURVE",
"202 555 CURVE SMOOTH",
"191 550 OFFCURVE",
"185 542 OFFCURVE",
"185 534 CURVE SMOOTH",
"185 521 OFFCURVE",
"197 509 OFFCURVE",
"216 509 CURVE SMOOTH",
"224 509 OFFCURVE",
"231 510 OFFCURVE",
"235 511 CURVE SMOOTH",
"243 514 OFFCURVE",
"243 517 OFFCURVE",
"247 517 CURVE SMOOTH",
"249 517 OFFCURVE",
"252 516 OFFCURVE",
"260 514 CURVE SMOOTH",
"284 508 OFFCURVE",
"296 482 OFFCURVE",
"296 452 CURVE SMOOTH",
"296 407 OFFCURVE",
"268 351 OFFCURVE",
"210 338 CURVE SMOOTH",
"201 336 OFFCURVE",
"190 335 OFFCURVE",
"178 335 CURVE SMOOTH",
"166 335 OFFCURVE",
"153 336 OFFCURVE",
"142 339 CURVE SMOOTH",
"64 356 OFFCURVE",
"28 420 OFFCURVE",
"28 493 CURVE SMOOTH",
"28 504 OFFCURVE",
"28 515 OFFCURVE",
"30 526 CURVE SMOOTH",
"43 627 OFFCURVE",
"108 700 OFFCURVE",
"204 700 CURVE SMOOTH",
"217 700 OFFCURVE",
"230 699 OFFCURVE",
"243 696 CURVE SMOOTH",
"349 675 OFFCURVE",
"381 607 OFFCURVE",
"381 526 CURVE SMOOTH",
"381 473 OFFCURVE",
"368 416 OFFCURVE",
"353 362 CURVE SMOOTH",
"339 313 OFFCURVE",
"329 264 OFFCURVE",
"325 213 CURVE SMOOTH",
"324 203 OFFCURVE",
"324 193 OFFCURVE",
"324 182 CURVE SMOOTH",
"324 81 OFFCURVE",
"358 -33 OFFCURVE",
"484 -33 CURVE SMOOTH",
"638 -33 OFFCURVE",
"722 130 OFFCURVE",
"766 258 CURVE",
"767 173 OFFCURVE",
"774 45 OFFCURVE",
"812 -16 CURVE SMOOTH",
"816 -22 OFFCURVE",
"829 -40 OFFCURVE",
"836 -43 CURVE SMOOTH",
"842 -46 OFFCURVE",
"847 -47 OFFCURVE",
"852 -47 CURVE SMOOTH"
);
}
);
width = 861;
}
);
note = U;
unicode = 0055;
},
{
glyphname = V;
lastChange = "2021-11-11 14:10:08 +0000";
layers = (
{
background = {
paths = (
{
closed = 1;
nodes = (
"633 -25 OFFCURVE",
"642 1 OFFCURVE",
"650 27 CURVE SMOOTH",
"694 160 OFFCURVE",
"829 596 OFFCURVE",
"926 653 CURVE SMOOTH",
"934 658 OFFCURVE",
"938 659 OFFCURVE",
"941 659 CURVE SMOOTH",
"944 659 OFFCURVE",
"947 657 OFFCURVE",
"952 657 CURVE SMOOTH",
"956 657 LINE",
"975 660 OFFCURVE",
"982 669 OFFCURVE",
"982 678 CURVE SMOOTH",
"982 690 OFFCURVE",
"973 702 OFFCURVE",
"964 706 CURVE SMOOTH",
"955 710 OFFCURVE",
"922 699 OFFCURVE",
"914 695 CURVE SMOOTH",
"776 626 OFFCURVE",
"662 215 OFFCURVE",
"613 68 CURVE",
"592 154 OFFCURVE",
"570 240 OFFCURVE",
"546 326 CURVE SMOOTH",
"530 384 OFFCURVE",
"513 444 OFFCURVE",
"493 501 CURVE SMOOTH",
"446 638 OFFCURVE",
"359 721 OFFCURVE",
"213 721 CURVE SMOOTH",
"179 721 OFFCURVE",
"146 716 OFFCURVE",
"116 701 CURVE SMOOTH",
"33 661 OFFCURVE",
"-9 577 OFFCURVE",
"-9 485 CURVE SMOOTH",
"-9 374 OFFCURVE",
"68 283 OFFCURVE",
"191 283 CURVE SMOOTH",
"221 283 OFFCURVE",
"251 289 OFFCURVE",
"277 302 CURVE SMOOTH",
"334 331 OFFCURVE",
"363 394 OFFCURVE",
"363 451 CURVE SMOOTH",
"363 515 OFFCURVE",
"327 571 OFFCURVE",
"252 567 CURVE SMOOTH",
"239 566 OFFCURVE",
"207 559 OFFCURVE",
"195 552 CURVE SMOOTH",
"185 546 OFFCURVE",
"180 538 OFFCURVE",
"180 530 CURVE SMOOTH",
"180 517 OFFCURVE",
"193 505 OFFCURVE",
"213 508 CURVE SMOOTH",
"221 509 OFFCURVE",
"234 511 OFFCURVE",
"241 518 CURVE SMOOTH",
"242 519 LINE SMOOTH",
"244 521 OFFCURVE",
"245 521 OFFCURVE",
"261 520 CURVE SMOOTH",
"294 518 OFFCURVE",
"315 485 OFFCURVE",
"315 446 CURVE SMOOTH",
"315 409 OFFCURVE",
"297 369 OFFCURVE",
"255 347 CURVE SMOOTH",
"236 337 OFFCURVE",
"212 332 OFFCURVE",
"189 332 CURVE SMOOTH",
"95 332 OFFCURVE",
"40 402 OFFCURVE",
"40 488 CURVE SMOOTH",
"40 564 OFFCURVE",
"75 629 OFFCURVE",
"145 660 CURVE SMOOTH",
"160 667 OFFCURVE",
"177 671 OFFCURVE",
"194 671 CURVE SMOOTH",
"335 671 OFFCURVE",
"401 613 OFFCURVE",
"447 485 CURVE SMOOTH",
"489 368 OFFCURVE",
"520 246 OFFCURVE",
"549 127 CURVE SMOOTH",
"558 89 OFFCURVE",
"567 52 OFFCURVE",
"575 14 CURVE SMOOTH",
"578 1 OFFCURVE",
"579 -13 OFFCURVE",
"584 -26 CURVE SMOOTH",
"589 -38 OFFCURVE",
"598 -44 OFFCURVE",
"607 -44 CURVE SMOOTH",
"616 -44 OFFCURVE",
"625 -38 OFFCURVE",
"631 -29 CURVE SMOOTH"
);
}
);
};
layerId = "2ADFC918-CAA7-4AF7-825A-5AAC412EF250";
paths = (
{
closed = 1;
nodes = (
"616 -24 OFFCURVE",
"625 -18 OFFCURVE",
"631 -9 CURVE SMOOTH",
"633 -5 OFFCURVE",
"642 21 OFFCURVE",
"650 47 CURVE SMOOTH",
"694 180 OFFCURVE",
"829 616 OFFCURVE",
"926 673 CURVE SMOOTH",
"934 678 OFFCURVE",
"938 679 OFFCURVE",
"941 679 CURVE SMOOTH",
"944 679 OFFCURVE",
"947 677 OFFCURVE",
"952 677 CURVE SMOOTH",
"956 677 LINE",
"975 680 OFFCURVE",
"982 689 OFFCURVE",
"982 698 CURVE SMOOTH",
"982 712 OFFCURVE",
"969 727 OFFCURVE",
"959 727 CURVE SMOOTH",
"946 727 OFFCURVE",
"921 718 OFFCURVE",
"914 715 CURVE SMOOTH",
"776 646 OFFCURVE",
"662 235 OFFCURVE",
"613 88 CURVE",
"592 174 OFFCURVE",
"570 260 OFFCURVE",
"546 346 CURVE SMOOTH",
"530 404 OFFCURVE",
"513 464 OFFCURVE",
"493 521 CURVE SMOOTH",
"446 658 OFFCURVE",
"359 741 OFFCURVE",
"213 741 CURVE SMOOTH",
"179 741 OFFCURVE",
"146 736 OFFCURVE",
"116 721 CURVE SMOOTH",
"33 681 OFFCURVE",
"-9 597 OFFCURVE",
"-9 505 CURVE SMOOTH",
"-9 394 OFFCURVE",
"68 303 OFFCURVE",
"191 303 CURVE SMOOTH",
"221 303 OFFCURVE",
"251 309 OFFCURVE",
"277 322 CURVE SMOOTH",
"334 351 OFFCURVE",
"363 414 OFFCURVE",
"363 471 CURVE SMOOTH",
"363 535 OFFCURVE",
"327 591 OFFCURVE",
"252 587 CURVE SMOOTH",
"239 586 OFFCURVE",
"207 579 OFFCURVE",
"195 572 CURVE SMOOTH",
"185 566 OFFCURVE",
"180 558 OFFCURVE",
"180 550 CURVE SMOOTH",
"180 537 OFFCURVE",
"193 525 OFFCURVE",
"213 528 CURVE SMOOTH",
"221 529 OFFCURVE",
"234 531 OFFCURVE",
"241 538 CURVE SMOOTH",
"242 539 LINE SMOOTH",
"244 541 OFFCURVE",
"245 541 OFFCURVE",
"261 540 CURVE SMOOTH",
"294 538 OFFCURVE",
"315 505 OFFCURVE",
"315 466 CURVE SMOOTH",
"315 429 OFFCURVE",
"297 389 OFFCURVE",
"255 367 CURVE SMOOTH",
"236 357 OFFCURVE",
"212 352 OFFCURVE",
"189 352 CURVE SMOOTH",
"95 352 OFFCURVE",
"40 422 OFFCURVE",
"40 508 CURVE SMOOTH",
"40 584 OFFCURVE",
"75 649 OFFCURVE",
"145 680 CURVE SMOOTH",
"160 687 OFFCURVE",
"177 691 OFFCURVE",
"194 691 CURVE SMOOTH",
"335 691 OFFCURVE",
"401 633 OFFCURVE",
"447 505 CURVE SMOOTH",
"489 388 OFFCURVE",
"520 266 OFFCURVE",
"549 147 CURVE SMOOTH",
"558 109 OFFCURVE",
"567 72 OFFCURVE",
"575 34 CURVE SMOOTH",
"578 21 OFFCURVE",
"579 7 OFFCURVE",
"584 -6 CURVE SMOOTH",
"589 -18 OFFCURVE",
"598 -24 OFFCURVE",
"607 -24 CURVE SMOOTH"
);
}
);
width = 856;
}
);
note = V;
unicode = 0056;
},
{
glyphname = W;
lastChange = "2021-11-11 14:10:08 +0000";
layers = (
{
anchors = (
{
name = bottom;
position = "{612, 0}";
},
{
name = top;
position = "{863, 705}";
}
);
background = {
paths = (
{
closed = 1;
nodes = (
"710 -40 OFFCURVE",
"779 44 OFFCURVE",
"819 141 CURVE",
"844 44 OFFCURVE",
"894 -35 OFFCURVE",
"986 -35 CURVE SMOOTH",
"1175 -35 OFFCURVE",
"1215 210 OFFCURVE",
"1222 348 CURVE SMOOTH",
"1222 358 OFFCURVE",
"1223 369 OFFCURVE",
"1223 381 CURVE SMOOTH",
"1223 478 OFFCURVE",
"1205 642 OFFCURVE",
"1116 682 CURVE SMOOTH",
"1108 686 OFFCURVE",
"1090 690 OFFCURVE",
"1076 690 CURVE SMOOTH",
"1069 690 OFFCURVE",
"1063 689 OFFCURVE",
"1059 687 CURVE SMOOTH",
"1045 681 OFFCURVE",
"1040 673 OFFCURVE",
"1040 665 CURVE SMOOTH",
"1040 652 OFFCURVE",
"1056 639 OFFCURVE",
"1073 641 CURVE",
"1077 644 OFFCURVE",
"1082 646 OFFCURVE",
"1086 646 CURVE SMOOTH",
"1116 646 OFFCURVE",
"1140 573 OFFCURVE",
"1146 556 CURVE SMOOTH",
"1165 500 OFFCURVE",
"1174 438 OFFCURVE",
"1174 379 CURVE SMOOTH",
"1174 274 OFFCURVE",
"1148 14 OFFCURVE",
"987 13 CURVE SMOOTH",
"888 12 OFFCURVE",
"858 186 OFFCURVE",
"851 241 CURVE",
"862 284 OFFCURVE",
"869 326 OFFCURVE",
"873 363 CURVE SMOOTH",
"876 389 OFFCURVE",
"878 428 OFFCURVE",
"878 465 CURVE SMOOTH",
"878 497 OFFCURVE",
"876 528 OFFCURVE",
"871 550 CURVE SMOOTH",
"869 557 OFFCURVE",
"865 571 OFFCURVE",
"856 571 CURVE SMOOTH",
"835 571 OFFCURVE",
"823 524 OFFCURVE",
"819 508 CURVE SMOOTH",
"807 467 OFFCURVE",
"799 399 OFFCURVE",
"799 326 CURVE SMOOTH",
"799 298 OFFCURVE",
"800 270 OFFCURVE",
"803 241 CURVE",
"772 139 OFFCURVE",
"713 7 OFFCURVE",
"593 7 CURVE SMOOTH",
"592 7 LINE SMOOTH",
"534 7 OFFCURVE",
"517 82 OFFCURVE",
"517 168 CURVE SMOOTH",
"517 265 OFFCURVE",
"538 376 OFFCURVE",
"543 411 CURVE SMOOTH",
"546 433 OFFCURVE",
"548 455 OFFCURVE",
"548 477 CURVE SMOOTH",
"548 498 OFFCURVE",
"546 519 OFFCURVE",
"542 540 CURVE SMOOTH",
"519 656 OFFCURVE",
"420 722 OFFCURVE",
"306 722 CURVE SMOOTH",
"270 722 OFFCURVE",
"232 713 OFFCURVE",
"199 699 CURVE SMOOTH",
"81 650 OFFCURVE",
"27 548 OFFCURVE",
"27 423 CURVE SMOOTH",
"27 303 OFFCURVE",
"89 198 OFFCURVE",
"227 198 CURVE SMOOTH",
"259 198 OFFCURVE",
"295 205 OFFCURVE",
"323 219 CURVE SMOOTH",
"383 250 OFFCURVE",
"416 313 OFFCURVE",
"416 370 CURVE SMOOTH",
"416 430 OFFCURVE",
"379 483 OFFCURVE",
"300 483 CURVE SMOOTH",
"286 483 OFFCURVE",
"268 481 OFFCURVE",
"259 478 CURVE SMOOTH",
"248 474 OFFCURVE",
"240 463 OFFCURVE",
"240 452 CURVE SMOOTH",
"240 442 OFFCURVE",
"248 433 OFFCURVE",
"268 432 CURVE SMOOTH",
"279 432 OFFCURVE",
"287 432 OFFCURVE",
"298 436 CURVE SMOOTH",
"302 437 OFFCURVE",
"305 437 OFFCURVE",
"320 433 CURVE SMOOTH",
"353 424 OFFCURVE",
"368 393 OFFCURVE",
"368 361 CURVE SMOOTH",
"368 345 OFFCURVE",
"364 328 OFFCURVE",
"356 313 CURVE SMOOTH",
"344 289 OFFCURVE",
"328 275 OFFCURVE",
"304 263 CURVE SMOOTH",
"281 251 OFFCURVE",
"248 245 OFFCURVE",
"222 245 CURVE SMOOTH",
"120 247 OFFCURVE",
"76 328 OFFCURVE",
"76 422 CURVE SMOOTH",
"76 527 OFFCURVE",
"117 615 OFFCURVE",
"215 656 CURVE SMOOTH",
"243 667 OFFCURVE",
"274 674 OFFCURVE",
"304 674 CURVE SMOOTH",
"406 674 OFFCURVE",
"481 622 OFFCURVE",
"496 518 CURVE SMOOTH",
"498 504 OFFCURVE",
"499 490 OFFCURVE",
"499 475 CURVE SMOOTH",
"499 456 OFFCURVE",
"497 436 OFFCURVE",
"495 416 CURVE SMOOTH",
"491 382 OFFCURVE",
"483 348 OFFCURVE",
"478 315 CURVE SMOOTH",
"473 281 OFFCURVE",
"465 226 OFFCURVE",
"465 170 CURVE SMOOTH",
"465 67 OFFCURVE",
"490 -40 OFFCURVE",
"599 -40 CURVE SMOOTH"
);
}
);
};
layerId = "2ADFC918-CAA7-4AF7-825A-5AAC412EF250";
paths = (
{
closed = 1;
nodes = (
"710 -20 OFFCURVE",
"779 64 OFFCURVE",
"819 161 CURVE",
"844 64 OFFCURVE",
"894 -15 OFFCURVE",
"986 -15 CURVE SMOOTH",
"1175 -15 OFFCURVE",
"1215 230 OFFCURVE",
"1222 368 CURVE SMOOTH",
"1222 378 OFFCURVE",
"1223 389 OFFCURVE",
"1223 401 CURVE SMOOTH",
"1223 498 OFFCURVE",
"1205 662 OFFCURVE",
"1116 702 CURVE SMOOTH",
"1108 706 OFFCURVE",
"1090 710 OFFCURVE",
"1076 710 CURVE SMOOTH",
"1069 710 OFFCURVE",
"1063 709 OFFCURVE",
"1059 707 CURVE SMOOTH",
"1045 701 OFFCURVE",
"1040 693 OFFCURVE",
"1040 685 CURVE SMOOTH",
"1040 672 OFFCURVE",
"1056 659 OFFCURVE",
"1073 661 CURVE",
"1077 664 OFFCURVE",
"1082 666 OFFCURVE",
"1086 666 CURVE SMOOTH",
"1116 666 OFFCURVE",
"1140 593 OFFCURVE",
"1146 576 CURVE SMOOTH",
"1165 520 OFFCURVE",
"1174 458 OFFCURVE",
"1174 399 CURVE SMOOTH",
"1174 294 OFFCURVE",
"1148 34 OFFCURVE",
"987 33 CURVE SMOOTH",
"888 32 OFFCURVE",
"858 206 OFFCURVE",
"851 261 CURVE",
"862 304 OFFCURVE",
"869 346 OFFCURVE",
"873 383 CURVE SMOOTH",
"876 409 OFFCURVE",
"878 448 OFFCURVE",
"878 485 CURVE SMOOTH",
"878 517 OFFCURVE",
"876 548 OFFCURVE",
"871 570 CURVE SMOOTH",
"869 577 OFFCURVE",
"865 591 OFFCURVE",
"856 591 CURVE SMOOTH",
"835 591 OFFCURVE",
"823 544 OFFCURVE",
"819 528 CURVE SMOOTH",
"807 487 OFFCURVE",
"799 419 OFFCURVE",
"799 346 CURVE SMOOTH",
"799 318 OFFCURVE",
"800 290 OFFCURVE",
"803 261 CURVE",
"772 159 OFFCURVE",
"713 27 OFFCURVE",
"593 27 CURVE SMOOTH",
"592 27 LINE SMOOTH",
"534 27 OFFCURVE",
"517 102 OFFCURVE",
"517 188 CURVE SMOOTH",
"517 285 OFFCURVE",
"538 396 OFFCURVE",
"543 431 CURVE SMOOTH",
"546 453 OFFCURVE",
"548 475 OFFCURVE",
"548 497 CURVE SMOOTH",
"548 518 OFFCURVE",
"546 539 OFFCURVE",
"542 560 CURVE SMOOTH",
"519 676 OFFCURVE",
"420 742 OFFCURVE",
"306 742 CURVE SMOOTH",
"270 742 OFFCURVE",
"232 733 OFFCURVE",
"199 719 CURVE SMOOTH",
"81 670 OFFCURVE",
"27 568 OFFCURVE",
"27 443 CURVE SMOOTH",
"27 323 OFFCURVE",
"89 218 OFFCURVE",
"227 218 CURVE SMOOTH",
"259 218 OFFCURVE",
"295 225 OFFCURVE",
"323 239 CURVE SMOOTH",
"383 270 OFFCURVE",
"416 333 OFFCURVE",
"416 390 CURVE SMOOTH",
"416 450 OFFCURVE",
"379 503 OFFCURVE",
"300 503 CURVE SMOOTH",
"286 503 OFFCURVE",
"268 501 OFFCURVE",
"259 498 CURVE SMOOTH",
"248 494 OFFCURVE",
"240 483 OFFCURVE",
"240 472 CURVE SMOOTH",
"240 462 OFFCURVE",
"248 453 OFFCURVE",
"268 452 CURVE SMOOTH",
"279 452 OFFCURVE",
"287 452 OFFCURVE",
"298 456 CURVE SMOOTH",
"302 457 OFFCURVE",
"305 457 OFFCURVE",
"320 453 CURVE SMOOTH",
"353 444 OFFCURVE",
"368 413 OFFCURVE",
"368 381 CURVE SMOOTH",
"368 365 OFFCURVE",
"364 348 OFFCURVE",
"356 333 CURVE SMOOTH",
"344 309 OFFCURVE",
"328 295 OFFCURVE",
"304 283 CURVE SMOOTH",
"281 271 OFFCURVE",
"248 265 OFFCURVE",
"222 265 CURVE SMOOTH",
"120 267 OFFCURVE",
"76 348 OFFCURVE",
"76 442 CURVE SMOOTH",
"76 547 OFFCURVE",
"117 635 OFFCURVE",
"215 676 CURVE SMOOTH",
"243 687 OFFCURVE",
"274 694 OFFCURVE",
"304 694 CURVE SMOOTH",
"406 694 OFFCURVE",
"481 642 OFFCURVE",
"496 538 CURVE SMOOTH",
"498 524 OFFCURVE",
"499 510 OFFCURVE",
"499 495 CURVE SMOOTH",
"499 476 OFFCURVE",
"497 456 OFFCURVE",
"495 436 CURVE SMOOTH",
"491 402 OFFCURVE",
"483 368 OFFCURVE",
"478 335 CURVE SMOOTH",
"473 301 OFFCURVE",
"465 246 OFFCURVE",
"465 190 CURVE SMOOTH",
"465 87 OFFCURVE",
"490 -20 OFFCURVE",
"599 -20 CURVE SMOOTH"
);
}
);
width = 1223;
}
);
note = W;
unicode = 0057;
},
{
glyphname = X;
lastChange = "2021-11-11 14:06:44 +0000";
layers = (
{
background = {
paths = (
{
closed = 1;
nodes = (
"597 -47 OFFCURVE",
"603 -40 OFFCURVE",
"603 -32 CURVE SMOOTH",
"603 -16 OFFCURVE",
"579 -1 OFFCURVE",
"565 -6 CURVE SMOOTH",
"563 -7 LINE SMOOTH",
"554 -10 OFFCURVE",
"537 -6 OFFCURVE",
"529 -2 CURVE SMOOTH",
"447 30 OFFCURVE",
"360 235 OFFCURVE",
"324 315 CURVE",
"354 350 OFFCURVE",
"406 409 OFFCURVE",
"454 469 CURVE SMOOTH",
"504 531 OFFCURVE",
"550 595 OFFCURVE",
"566 637 CURVE",
"566 638 OFFCURVE",
"570 654 OFFCURVE",
"570 658 CURVE SMOOTH",
"570 659 LINE",
"564 677 OFFCURVE",
"554 683 OFFCURVE",
"544 683 CURVE SMOOTH",
"531 683 OFFCURVE",
"519 673 OFFCURVE",
"519 661 CURVE SMOOTH",
"519 607 OFFCURVE",
"346 415 OFFCURVE",
"302 366 CURVE",
"272 436 OFFCURVE",
"188 643 OFFCURVE",
"115 666 CURVE SMOOTH",
"110 667 OFFCURVE",
"105 668 OFFCURVE",
"100 668 CURVE SMOOTH",
"83 668 OFFCURVE",
"68 661 OFFCURVE",
"68 649 CURVE SMOOTH",
"68 640 OFFCURVE",
"76 630 OFFCURVE",
"97 619 CURVE SMOOTH",
"106 615 LINE SMOOTH",
"148 592 OFFCURVE",
"240 376 OFFCURVE",
"263 323 CURVE",
"206 257 OFFCURVE",
"16 50 OFFCURVE",
"3 -24 CURVE SMOOTH",
"-1 -46 OFFCURVE",
"11 -65 OFFCURVE",
"27 -65 CURVE SMOOTH",
"38 -65 OFFCURVE",
"51 -55 OFFCURVE",
"62 -30 CURVE SMOOTH",
"63 -28 OFFCURVE",
"62 -26 OFFCURVE",
"62 -24 CURVE SMOOTH",
"62 -22 LINE SMOOTH",
"63 -15 OFFCURVE",
"66 -7 OFFCURVE",
"70 0 CURVE SMOOTH",
"96 52 OFFCURVE",
"136 96 OFFCURVE",
"173 140 CURVE SMOOTH",
"210 185 OFFCURVE",
"249 228 OFFCURVE",
"287 272 CURVE",
"331 173 OFFCURVE",
"424 -23 OFFCURVE",
"538 -51 CURVE SMOOTH",
"543 -52 OFFCURVE",
"558 -55 OFFCURVE",
"569 -55 CURVE SMOOTH",
"575 -55 OFFCURVE",
"579 -54 OFFCURVE",
"582 -53 CURVE SMOOTH"
);
}
);
};
layerId = "2ADFC918-CAA7-4AF7-825A-5AAC412EF250";
paths = (
{
closed = 1;
nodes = (
"38 -45 OFFCURVE",
"51 -35 OFFCURVE",
"62 -10 CURVE SMOOTH",
"63 -8 OFFCURVE",
"62 -6 OFFCURVE",
"62 -4 CURVE SMOOTH",
"62 -2 LINE SMOOTH",
"63 5 OFFCURVE",
"66 13 OFFCURVE",
"70 20 CURVE SMOOTH",
"96 72 OFFCURVE",
"136 116 OFFCURVE",
"173 160 CURVE SMOOTH",
"210 205 OFFCURVE",
"249 248 OFFCURVE",
"287 292 CURVE",
"331 193 OFFCURVE",
"424 -3 OFFCURVE",
"538 -31 CURVE SMOOTH",
"543 -32 OFFCURVE",
"558 -35 OFFCURVE",
"569 -35 CURVE SMOOTH",
"575 -35 OFFCURVE",
"579 -34 OFFCURVE",
"582 -33 CURVE SMOOTH",
"597 -27 OFFCURVE",
"603 -20 OFFCURVE",
"603 -12 CURVE SMOOTH",
"603 4 OFFCURVE",
"579 19 OFFCURVE",
"565 14 CURVE SMOOTH",
"563 13 LINE SMOOTH",
"554 10 OFFCURVE",
"537 14 OFFCURVE",
"529 18 CURVE SMOOTH",
"447 50 OFFCURVE",
"360 255 OFFCURVE",
"324 335 CURVE",
"354 370 OFFCURVE",
"406 429 OFFCURVE",
"454 489 CURVE SMOOTH",
"504 551 OFFCURVE",
"550 615 OFFCURVE",
"566 657 CURVE",
"566 658 OFFCURVE",
"570 674 OFFCURVE",
"570 678 CURVE SMOOTH",
"570 679 LINE",
"564 697 OFFCURVE",
"554 703 OFFCURVE",
"544 703 CURVE SMOOTH",
"531 703 OFFCURVE",
"519 693 OFFCURVE",
"519 681 CURVE SMOOTH",
"519 627 OFFCURVE",
"346 435 OFFCURVE",
"302 386 CURVE",
"272 456 OFFCURVE",
"188 663 OFFCURVE",
"115 686 CURVE SMOOTH",
"110 687 OFFCURVE",
"105 688 OFFCURVE",
"100 688 CURVE SMOOTH",
"83 688 OFFCURVE",
"68 681 OFFCURVE",
"68 669 CURVE SMOOTH",
"68 660 OFFCURVE",
"76 650 OFFCURVE",
"97 639 CURVE SMOOTH",
"106 635 LINE SMOOTH",
"148 612 OFFCURVE",
"240 396 OFFCURVE",
"263 343 CURVE",
"206 277 OFFCURVE",
"16 70 OFFCURVE",
"3 -4 CURVE SMOOTH",
"-1 -26 OFFCURVE",
"11 -45 OFFCURVE",
"27 -45 CURVE SMOOTH"
);
}
);
width = 553;
}
);
note = X;
unicode = 0058;
},
